<mxfile host="app.diagrams.net" modified="2023-12-18T03:36:43.945Z" agent="Mozilla/5.0 (Windows NT 10.0; Win64; x64) AppleWebKit/537.36 (KHTML, like Gecko) Chrome/120.0.0.0 Safari/537.36" etag="kIrKTQHe0uJezGMChk4o" version="22.1.11" type="github">
  <diagram name="Page-1" id="e56a1550-8fbb-45ad-956c-1786394a9013">
    <mxGraphModel dx="1237" dy="600" grid="1" gridSize="10" guides="1" tooltips="1" connect="1" arrows="1" fold="1" page="1" pageScale="1" pageWidth="1100" pageHeight="850" background="none" math="0" shadow="0">
      <root>
        <mxCell id="0" />
        <mxCell id="1" parent="0" />
        <mxCell id="XuhRDX56pQfsWtt-mXjJ-22" value="Curso/Conhecimento/Formações" style="shape=table;startSize=30;container=1;collapsible=0;childLayout=tableLayout;fixedRows=1;rowLines=0;fontStyle=0;strokeColor=default;fontSize=16;labelBackgroundColor=default;" vertex="1" parent="1">
          <mxGeometry x="10" y="490" width="400" height="780" as="geometry" />
        </mxCell>
        <mxCell id="XuhRDX56pQfsWtt-mXjJ-23" value="" style="shape=tableRow;horizontal=0;startSize=0;swimlaneHead=0;swimlaneBody=0;top=0;left=0;bottom=0;right=0;collapsible=0;dropTarget=0;fillColor=none;points=[[0,0.5],[1,0.5]];portConstraint=eastwest;strokeColor=inherit;fontSize=16;" vertex="1" parent="XuhRDX56pQfsWtt-mXjJ-22">
          <mxGeometry y="30" width="400" height="30" as="geometry" />
        </mxCell>
        <mxCell id="XuhRDX56pQfsWtt-mXjJ-24" value="PK, string" style="shape=partialRectangle;html=1;whiteSpace=wrap;connectable=0;fillColor=none;top=0;left=0;bottom=0;right=0;overflow=hidden;pointerEvents=1;strokeColor=inherit;fontSize=16;" vertex="1" parent="XuhRDX56pQfsWtt-mXjJ-23">
          <mxGeometry width="80" height="30" as="geometry">
            <mxRectangle width="80" height="30" as="alternateBounds" />
          </mxGeometry>
        </mxCell>
        <mxCell id="XuhRDX56pQfsWtt-mXjJ-25" value="Nome" style="shape=partialRectangle;html=1;whiteSpace=wrap;connectable=0;fillColor=none;top=0;left=0;bottom=0;right=0;align=left;spacingLeft=6;overflow=hidden;strokeColor=inherit;fontSize=16;" vertex="1" parent="XuhRDX56pQfsWtt-mXjJ-23">
          <mxGeometry x="80" width="320" height="30" as="geometry">
            <mxRectangle width="320" height="30" as="alternateBounds" />
          </mxGeometry>
        </mxCell>
        <mxCell id="XuhRDX56pQfsWtt-mXjJ-26" value="" style="shape=tableRow;horizontal=0;startSize=0;swimlaneHead=0;swimlaneBody=0;top=0;left=0;bottom=0;right=0;collapsible=0;dropTarget=0;fillColor=none;points=[[0,0.5],[1,0.5]];portConstraint=eastwest;strokeColor=inherit;fontSize=16;" vertex="1" parent="XuhRDX56pQfsWtt-mXjJ-22">
          <mxGeometry y="60" width="400" height="30" as="geometry" />
        </mxCell>
        <mxCell id="XuhRDX56pQfsWtt-mXjJ-27" value=", int" style="shape=partialRectangle;html=1;whiteSpace=wrap;connectable=0;fillColor=none;top=0;left=0;bottom=0;right=0;overflow=hidden;strokeColor=inherit;fontSize=16;" vertex="1" parent="XuhRDX56pQfsWtt-mXjJ-26">
          <mxGeometry width="80" height="30" as="geometry">
            <mxRectangle width="80" height="30" as="alternateBounds" />
          </mxGeometry>
        </mxCell>
        <mxCell id="XuhRDX56pQfsWtt-mXjJ-28" value="ID" style="shape=partialRectangle;html=1;whiteSpace=wrap;connectable=0;fillColor=none;top=0;left=0;bottom=0;right=0;align=left;spacingLeft=6;overflow=hidden;strokeColor=inherit;fontSize=16;" vertex="1" parent="XuhRDX56pQfsWtt-mXjJ-26">
          <mxGeometry x="80" width="320" height="30" as="geometry">
            <mxRectangle width="320" height="30" as="alternateBounds" />
          </mxGeometry>
        </mxCell>
        <mxCell id="XuhRDX56pQfsWtt-mXjJ-29" value="" style="shape=tableRow;horizontal=0;startSize=0;swimlaneHead=0;swimlaneBody=0;top=0;left=0;bottom=0;right=0;collapsible=0;dropTarget=0;fillColor=none;points=[[0,0.5],[1,0.5]];portConstraint=eastwest;strokeColor=inherit;fontSize=16;" vertex="1" parent="XuhRDX56pQfsWtt-mXjJ-22">
          <mxGeometry y="90" width="400" height="30" as="geometry" />
        </mxCell>
        <mxCell id="XuhRDX56pQfsWtt-mXjJ-30" value="FK, string" style="shape=partialRectangle;html=1;whiteSpace=wrap;connectable=0;fillColor=none;top=0;left=0;bottom=0;right=0;overflow=hidden;strokeColor=inherit;fontSize=16;" vertex="1" parent="XuhRDX56pQfsWtt-mXjJ-29">
          <mxGeometry width="80" height="30" as="geometry">
            <mxRectangle width="80" height="30" as="alternateBounds" />
          </mxGeometry>
        </mxCell>
        <mxCell id="XuhRDX56pQfsWtt-mXjJ-31" value="Status" style="shape=partialRectangle;html=1;whiteSpace=wrap;connectable=0;fillColor=none;top=0;left=0;bottom=0;right=0;align=left;spacingLeft=6;overflow=hidden;strokeColor=inherit;fontSize=16;" vertex="1" parent="XuhRDX56pQfsWtt-mXjJ-29">
          <mxGeometry x="80" width="320" height="30" as="geometry">
            <mxRectangle width="320" height="30" as="alternateBounds" />
          </mxGeometry>
        </mxCell>
        <mxCell id="XuhRDX56pQfsWtt-mXjJ-32" value="" style="shape=tableRow;horizontal=0;startSize=0;swimlaneHead=0;swimlaneBody=0;top=0;left=0;bottom=0;right=0;collapsible=0;dropTarget=0;fillColor=none;points=[[0,0.5],[1,0.5]];portConstraint=eastwest;strokeColor=inherit;fontSize=16;" vertex="1" parent="XuhRDX56pQfsWtt-mXjJ-22">
          <mxGeometry y="120" width="400" height="30" as="geometry" />
        </mxCell>
        <mxCell id="XuhRDX56pQfsWtt-mXjJ-33" value=", date" style="shape=partialRectangle;html=1;whiteSpace=wrap;connectable=0;fillColor=none;top=0;left=0;bottom=0;right=0;overflow=hidden;strokeColor=inherit;fontSize=16;" vertex="1" parent="XuhRDX56pQfsWtt-mXjJ-32">
          <mxGeometry width="80" height="30" as="geometry">
            <mxRectangle width="80" height="30" as="alternateBounds" />
          </mxGeometry>
        </mxCell>
        <mxCell id="XuhRDX56pQfsWtt-mXjJ-34" value="Início" style="shape=partialRectangle;html=1;whiteSpace=wrap;connectable=0;fillColor=none;top=0;left=0;bottom=0;right=0;align=left;spacingLeft=6;overflow=hidden;strokeColor=inherit;fontSize=16;" vertex="1" parent="XuhRDX56pQfsWtt-mXjJ-32">
          <mxGeometry x="80" width="320" height="30" as="geometry">
            <mxRectangle width="320" height="30" as="alternateBounds" />
          </mxGeometry>
        </mxCell>
        <mxCell id="XuhRDX56pQfsWtt-mXjJ-38" value="" style="shape=tableRow;horizontal=0;startSize=0;swimlaneHead=0;swimlaneBody=0;top=0;left=0;bottom=0;right=0;collapsible=0;dropTarget=0;fillColor=none;points=[[0,0.5],[1,0.5]];portConstraint=eastwest;strokeColor=inherit;fontSize=16;" vertex="1" parent="XuhRDX56pQfsWtt-mXjJ-22">
          <mxGeometry y="150" width="400" height="30" as="geometry" />
        </mxCell>
        <mxCell id="XuhRDX56pQfsWtt-mXjJ-39" value="FK, float" style="shape=partialRectangle;html=1;whiteSpace=wrap;connectable=0;fillColor=none;top=0;left=0;bottom=0;right=0;overflow=hidden;strokeColor=inherit;fontSize=16;" vertex="1" parent="XuhRDX56pQfsWtt-mXjJ-38">
          <mxGeometry width="80" height="30" as="geometry">
            <mxRectangle width="80" height="30" as="alternateBounds" />
          </mxGeometry>
        </mxCell>
        <mxCell id="XuhRDX56pQfsWtt-mXjJ-40" value="Conclusão (Filtro Status Aulas/Fragm)" style="shape=partialRectangle;html=1;whiteSpace=wrap;connectable=0;fillColor=none;top=0;left=0;bottom=0;right=0;align=left;spacingLeft=6;overflow=hidden;strokeColor=inherit;fontSize=16;" vertex="1" parent="XuhRDX56pQfsWtt-mXjJ-38">
          <mxGeometry x="80" width="320" height="30" as="geometry">
            <mxRectangle width="320" height="30" as="alternateBounds" />
          </mxGeometry>
        </mxCell>
        <mxCell id="XuhRDX56pQfsWtt-mXjJ-44" value="" style="shape=tableRow;horizontal=0;startSize=0;swimlaneHead=0;swimlaneBody=0;top=0;left=0;bottom=0;right=0;collapsible=0;dropTarget=0;fillColor=none;points=[[0,0.5],[1,0.5]];portConstraint=eastwest;strokeColor=inherit;fontSize=16;" vertex="1" parent="XuhRDX56pQfsWtt-mXjJ-22">
          <mxGeometry y="180" width="400" height="30" as="geometry" />
        </mxCell>
        <mxCell id="XuhRDX56pQfsWtt-mXjJ-45" value="FK, int" style="shape=partialRectangle;html=1;whiteSpace=wrap;connectable=0;fillColor=none;top=0;left=0;bottom=0;right=0;overflow=hidden;strokeColor=inherit;fontSize=16;" vertex="1" parent="XuhRDX56pQfsWtt-mXjJ-44">
          <mxGeometry width="80" height="30" as="geometry">
            <mxRectangle width="80" height="30" as="alternateBounds" />
          </mxGeometry>
        </mxCell>
        <mxCell id="XuhRDX56pQfsWtt-mXjJ-46" value="Curso Minuto (∑ Min Aula - Aulas/Fragm)" style="shape=partialRectangle;html=1;whiteSpace=wrap;connectable=0;fillColor=none;top=0;left=0;bottom=0;right=0;align=left;spacingLeft=6;overflow=hidden;strokeColor=inherit;fontSize=16;" vertex="1" parent="XuhRDX56pQfsWtt-mXjJ-44">
          <mxGeometry x="80" width="320" height="30" as="geometry">
            <mxRectangle width="320" height="30" as="alternateBounds" />
          </mxGeometry>
        </mxCell>
        <mxCell id="XuhRDX56pQfsWtt-mXjJ-41" value="" style="shape=tableRow;horizontal=0;startSize=0;swimlaneHead=0;swimlaneBody=0;top=0;left=0;bottom=0;right=0;collapsible=0;dropTarget=0;fillColor=none;points=[[0,0.5],[1,0.5]];portConstraint=eastwest;strokeColor=inherit;fontSize=16;" vertex="1" parent="XuhRDX56pQfsWtt-mXjJ-22">
          <mxGeometry y="210" width="400" height="30" as="geometry" />
        </mxCell>
        <mxCell id="XuhRDX56pQfsWtt-mXjJ-42" value="∑, int" style="shape=partialRectangle;html=1;whiteSpace=wrap;connectable=0;fillColor=none;top=0;left=0;bottom=0;right=0;overflow=hidden;strokeColor=inherit;fontSize=16;" vertex="1" parent="XuhRDX56pQfsWtt-mXjJ-41">
          <mxGeometry width="80" height="30" as="geometry">
            <mxRectangle width="80" height="30" as="alternateBounds" />
          </mxGeometry>
        </mxCell>
        <mxCell id="XuhRDX56pQfsWtt-mXjJ-43" value="Curso Hora" style="shape=partialRectangle;html=1;whiteSpace=wrap;connectable=0;fillColor=none;top=0;left=0;bottom=0;right=0;align=left;spacingLeft=6;overflow=hidden;strokeColor=inherit;fontSize=16;" vertex="1" parent="XuhRDX56pQfsWtt-mXjJ-41">
          <mxGeometry x="80" width="320" height="30" as="geometry">
            <mxRectangle width="320" height="30" as="alternateBounds" />
          </mxGeometry>
        </mxCell>
        <mxCell id="XuhRDX56pQfsWtt-mXjJ-69" value="" style="shape=tableRow;horizontal=0;startSize=0;swimlaneHead=0;swimlaneBody=0;top=0;left=0;bottom=0;right=0;collapsible=0;dropTarget=0;fillColor=none;points=[[0,0.5],[1,0.5]];portConstraint=eastwest;strokeColor=inherit;fontSize=16;" vertex="1" parent="XuhRDX56pQfsWtt-mXjJ-22">
          <mxGeometry y="240" width="400" height="30" as="geometry" />
        </mxCell>
        <mxCell id="XuhRDX56pQfsWtt-mXjJ-70" value=", int" style="shape=partialRectangle;html=1;whiteSpace=wrap;connectable=0;fillColor=none;top=0;left=0;bottom=0;right=0;overflow=hidden;strokeColor=inherit;fontSize=16;" vertex="1" parent="XuhRDX56pQfsWtt-mXjJ-69">
          <mxGeometry width="80" height="30" as="geometry">
            <mxRectangle width="80" height="30" as="alternateBounds" />
          </mxGeometry>
        </mxCell>
        <mxCell id="XuhRDX56pQfsWtt-mXjJ-71" value="Qtde Hora Estudo Dia" style="shape=partialRectangle;html=1;whiteSpace=wrap;connectable=0;fillColor=none;top=0;left=0;bottom=0;right=0;align=left;spacingLeft=6;overflow=hidden;strokeColor=inherit;fontSize=16;" vertex="1" parent="XuhRDX56pQfsWtt-mXjJ-69">
          <mxGeometry x="80" width="320" height="30" as="geometry">
            <mxRectangle width="320" height="30" as="alternateBounds" />
          </mxGeometry>
        </mxCell>
        <mxCell id="XuhRDX56pQfsWtt-mXjJ-66" value="" style="shape=tableRow;horizontal=0;startSize=0;swimlaneHead=0;swimlaneBody=0;top=0;left=0;bottom=0;right=0;collapsible=0;dropTarget=0;fillColor=none;points=[[0,0.5],[1,0.5]];portConstraint=eastwest;strokeColor=inherit;fontSize=16;" vertex="1" parent="XuhRDX56pQfsWtt-mXjJ-22">
          <mxGeometry y="270" width="400" height="30" as="geometry" />
        </mxCell>
        <mxCell id="XuhRDX56pQfsWtt-mXjJ-67" value=", date" style="shape=partialRectangle;html=1;whiteSpace=wrap;connectable=0;fillColor=none;top=0;left=0;bottom=0;right=0;overflow=hidden;strokeColor=inherit;fontSize=16;" vertex="1" parent="XuhRDX56pQfsWtt-mXjJ-66">
          <mxGeometry width="80" height="30" as="geometry">
            <mxRectangle width="80" height="30" as="alternateBounds" />
          </mxGeometry>
        </mxCell>
        <mxCell id="XuhRDX56pQfsWtt-mXjJ-68" value="Índice de Aprendizado" style="shape=partialRectangle;html=1;whiteSpace=wrap;connectable=0;fillColor=none;top=0;left=0;bottom=0;right=0;align=left;spacingLeft=6;overflow=hidden;strokeColor=inherit;fontSize=16;" vertex="1" parent="XuhRDX56pQfsWtt-mXjJ-66">
          <mxGeometry x="80" width="320" height="30" as="geometry">
            <mxRectangle width="320" height="30" as="alternateBounds" />
          </mxGeometry>
        </mxCell>
        <mxCell id="XuhRDX56pQfsWtt-mXjJ-63" value="" style="shape=tableRow;horizontal=0;startSize=0;swimlaneHead=0;swimlaneBody=0;top=0;left=0;bottom=0;right=0;collapsible=0;dropTarget=0;fillColor=none;points=[[0,0.5],[1,0.5]];portConstraint=eastwest;strokeColor=inherit;fontSize=16;" vertex="1" parent="XuhRDX56pQfsWtt-mXjJ-22">
          <mxGeometry y="300" width="400" height="30" as="geometry" />
        </mxCell>
        <mxCell id="XuhRDX56pQfsWtt-mXjJ-64" value="∑, int" style="shape=partialRectangle;html=1;whiteSpace=wrap;connectable=0;fillColor=none;top=0;left=0;bottom=0;right=0;overflow=hidden;strokeColor=inherit;fontSize=16;" vertex="1" parent="XuhRDX56pQfsWtt-mXjJ-63">
          <mxGeometry width="80" height="30" as="geometry">
            <mxRectangle width="80" height="30" as="alternateBounds" />
          </mxGeometry>
        </mxCell>
        <mxCell id="XuhRDX56pQfsWtt-mXjJ-65" value="Tempo Aprendizado" style="shape=partialRectangle;html=1;whiteSpace=wrap;connectable=0;fillColor=none;top=0;left=0;bottom=0;right=0;align=left;spacingLeft=6;overflow=hidden;strokeColor=inherit;fontSize=16;" vertex="1" parent="XuhRDX56pQfsWtt-mXjJ-63">
          <mxGeometry x="80" width="320" height="30" as="geometry">
            <mxRectangle width="320" height="30" as="alternateBounds" />
          </mxGeometry>
        </mxCell>
        <mxCell id="XuhRDX56pQfsWtt-mXjJ-60" value="" style="shape=tableRow;horizontal=0;startSize=0;swimlaneHead=0;swimlaneBody=0;top=0;left=0;bottom=0;right=0;collapsible=0;dropTarget=0;fillColor=none;points=[[0,0.5],[1,0.5]];portConstraint=eastwest;strokeColor=inherit;fontSize=16;" vertex="1" parent="XuhRDX56pQfsWtt-mXjJ-22">
          <mxGeometry y="330" width="400" height="30" as="geometry" />
        </mxCell>
        <mxCell id="XuhRDX56pQfsWtt-mXjJ-61" value="∑, int" style="shape=partialRectangle;html=1;whiteSpace=wrap;connectable=0;fillColor=none;top=0;left=0;bottom=0;right=0;overflow=hidden;strokeColor=inherit;fontSize=16;" vertex="1" parent="XuhRDX56pQfsWtt-mXjJ-60">
          <mxGeometry width="80" height="30" as="geometry">
            <mxRectangle width="80" height="30" as="alternateBounds" />
          </mxGeometry>
        </mxCell>
        <mxCell id="XuhRDX56pQfsWtt-mXjJ-62" value="Curso + Aprendizado Hora" style="shape=partialRectangle;html=1;whiteSpace=wrap;connectable=0;fillColor=none;top=0;left=0;bottom=0;right=0;align=left;spacingLeft=6;overflow=hidden;strokeColor=inherit;fontSize=16;" vertex="1" parent="XuhRDX56pQfsWtt-mXjJ-60">
          <mxGeometry x="80" width="320" height="30" as="geometry">
            <mxRectangle width="320" height="30" as="alternateBounds" />
          </mxGeometry>
        </mxCell>
        <mxCell id="XuhRDX56pQfsWtt-mXjJ-57" value="" style="shape=tableRow;horizontal=0;startSize=0;swimlaneHead=0;swimlaneBody=0;top=0;left=0;bottom=0;right=0;collapsible=0;dropTarget=0;fillColor=none;points=[[0,0.5],[1,0.5]];portConstraint=eastwest;strokeColor=inherit;fontSize=16;" vertex="1" parent="XuhRDX56pQfsWtt-mXjJ-22">
          <mxGeometry y="360" width="400" height="30" as="geometry" />
        </mxCell>
        <mxCell id="XuhRDX56pQfsWtt-mXjJ-58" value="∑, date" style="shape=partialRectangle;html=1;whiteSpace=wrap;connectable=0;fillColor=none;top=0;left=0;bottom=0;right=0;overflow=hidden;strokeColor=inherit;fontSize=16;" vertex="1" parent="XuhRDX56pQfsWtt-mXjJ-57">
          <mxGeometry width="80" height="30" as="geometry">
            <mxRectangle width="80" height="30" as="alternateBounds" />
          </mxGeometry>
        </mxCell>
        <mxCell id="XuhRDX56pQfsWtt-mXjJ-59" value="Fim do aprendizado" style="shape=partialRectangle;html=1;whiteSpace=wrap;connectable=0;fillColor=none;top=0;left=0;bottom=0;right=0;align=left;spacingLeft=6;overflow=hidden;strokeColor=inherit;fontSize=16;" vertex="1" parent="XuhRDX56pQfsWtt-mXjJ-57">
          <mxGeometry x="80" width="320" height="30" as="geometry">
            <mxRectangle width="320" height="30" as="alternateBounds" />
          </mxGeometry>
        </mxCell>
        <mxCell id="XuhRDX56pQfsWtt-mXjJ-54" value="" style="shape=tableRow;horizontal=0;startSize=0;swimlaneHead=0;swimlaneBody=0;top=0;left=0;bottom=0;right=0;collapsible=0;dropTarget=0;fillColor=none;points=[[0,0.5],[1,0.5]];portConstraint=eastwest;strokeColor=inherit;fontSize=16;" vertex="1" parent="XuhRDX56pQfsWtt-mXjJ-22">
          <mxGeometry y="390" width="400" height="30" as="geometry" />
        </mxCell>
        <mxCell id="XuhRDX56pQfsWtt-mXjJ-55" value=", int" style="shape=partialRectangle;html=1;whiteSpace=wrap;connectable=0;fillColor=none;top=0;left=0;bottom=0;right=0;overflow=hidden;strokeColor=inherit;fontSize=16;" vertex="1" parent="XuhRDX56pQfsWtt-mXjJ-54">
          <mxGeometry width="80" height="30" as="geometry">
            <mxRectangle width="80" height="30" as="alternateBounds" />
          </mxGeometry>
        </mxCell>
        <mxCell id="XuhRDX56pQfsWtt-mXjJ-56" value="Índice publicação" style="shape=partialRectangle;html=1;whiteSpace=wrap;connectable=0;fillColor=none;top=0;left=0;bottom=0;right=0;align=left;spacingLeft=6;overflow=hidden;strokeColor=inherit;fontSize=16;" vertex="1" parent="XuhRDX56pQfsWtt-mXjJ-54">
          <mxGeometry x="80" width="320" height="30" as="geometry">
            <mxRectangle width="320" height="30" as="alternateBounds" />
          </mxGeometry>
        </mxCell>
        <mxCell id="XuhRDX56pQfsWtt-mXjJ-691" value="" style="shape=tableRow;horizontal=0;startSize=0;swimlaneHead=0;swimlaneBody=0;top=0;left=0;bottom=0;right=0;collapsible=0;dropTarget=0;fillColor=none;points=[[0,0.5],[1,0.5]];portConstraint=eastwest;strokeColor=inherit;fontSize=16;" vertex="1" parent="XuhRDX56pQfsWtt-mXjJ-22">
          <mxGeometry y="420" width="400" height="30" as="geometry" />
        </mxCell>
        <mxCell id="XuhRDX56pQfsWtt-mXjJ-692" value="∑, int" style="shape=partialRectangle;html=1;whiteSpace=wrap;connectable=0;fillColor=none;top=0;left=0;bottom=0;right=0;overflow=hidden;strokeColor=inherit;fontSize=16;" vertex="1" parent="XuhRDX56pQfsWtt-mXjJ-691">
          <mxGeometry width="80" height="30" as="geometry">
            <mxRectangle width="80" height="30" as="alternateBounds" />
          </mxGeometry>
        </mxCell>
        <mxCell id="XuhRDX56pQfsWtt-mXjJ-693" value="Tempo Publicação" style="shape=partialRectangle;html=1;whiteSpace=wrap;connectable=0;fillColor=none;top=0;left=0;bottom=0;right=0;align=left;spacingLeft=6;overflow=hidden;strokeColor=inherit;fontSize=16;" vertex="1" parent="XuhRDX56pQfsWtt-mXjJ-691">
          <mxGeometry x="80" width="320" height="30" as="geometry">
            <mxRectangle width="320" height="30" as="alternateBounds" />
          </mxGeometry>
        </mxCell>
        <mxCell id="XuhRDX56pQfsWtt-mXjJ-51" value="" style="shape=tableRow;horizontal=0;startSize=0;swimlaneHead=0;swimlaneBody=0;top=0;left=0;bottom=0;right=0;collapsible=0;dropTarget=0;fillColor=none;points=[[0,0.5],[1,0.5]];portConstraint=eastwest;strokeColor=inherit;fontSize=16;" vertex="1" parent="XuhRDX56pQfsWtt-mXjJ-22">
          <mxGeometry y="450" width="400" height="30" as="geometry" />
        </mxCell>
        <mxCell id="XuhRDX56pQfsWtt-mXjJ-52" value="∑, int" style="shape=partialRectangle;html=1;whiteSpace=wrap;connectable=0;fillColor=none;top=0;left=0;bottom=0;right=0;overflow=hidden;strokeColor=inherit;fontSize=16;" vertex="1" parent="XuhRDX56pQfsWtt-mXjJ-51">
          <mxGeometry width="80" height="30" as="geometry">
            <mxRectangle width="80" height="30" as="alternateBounds" />
          </mxGeometry>
        </mxCell>
        <mxCell id="XuhRDX56pQfsWtt-mXjJ-53" value="Horas Usadas" style="shape=partialRectangle;html=1;whiteSpace=wrap;connectable=0;fillColor=none;top=0;left=0;bottom=0;right=0;align=left;spacingLeft=6;overflow=hidden;strokeColor=inherit;fontSize=16;" vertex="1" parent="XuhRDX56pQfsWtt-mXjJ-51">
          <mxGeometry x="80" width="320" height="30" as="geometry">
            <mxRectangle width="320" height="30" as="alternateBounds" />
          </mxGeometry>
        </mxCell>
        <mxCell id="XuhRDX56pQfsWtt-mXjJ-102" value="" style="shape=tableRow;horizontal=0;startSize=0;swimlaneHead=0;swimlaneBody=0;top=0;left=0;bottom=0;right=0;collapsible=0;dropTarget=0;fillColor=none;points=[[0,0.5],[1,0.5]];portConstraint=eastwest;strokeColor=inherit;fontSize=16;" vertex="1" parent="XuhRDX56pQfsWtt-mXjJ-22">
          <mxGeometry y="480" width="400" height="30" as="geometry" />
        </mxCell>
        <mxCell id="XuhRDX56pQfsWtt-mXjJ-103" value="∑, date" style="shape=partialRectangle;html=1;whiteSpace=wrap;connectable=0;fillColor=none;top=0;left=0;bottom=0;right=0;overflow=hidden;strokeColor=inherit;fontSize=16;" vertex="1" parent="XuhRDX56pQfsWtt-mXjJ-102">
          <mxGeometry width="80" height="30" as="geometry">
            <mxRectangle width="80" height="30" as="alternateBounds" />
          </mxGeometry>
        </mxCell>
        <mxCell id="XuhRDX56pQfsWtt-mXjJ-104" value="Conclusão Prevista" style="shape=partialRectangle;html=1;whiteSpace=wrap;connectable=0;fillColor=none;top=0;left=0;bottom=0;right=0;align=left;spacingLeft=6;overflow=hidden;strokeColor=inherit;fontSize=16;" vertex="1" parent="XuhRDX56pQfsWtt-mXjJ-102">
          <mxGeometry x="80" width="320" height="30" as="geometry">
            <mxRectangle width="320" height="30" as="alternateBounds" />
          </mxGeometry>
        </mxCell>
        <mxCell id="XuhRDX56pQfsWtt-mXjJ-99" value="" style="shape=tableRow;horizontal=0;startSize=0;swimlaneHead=0;swimlaneBody=0;top=0;left=0;bottom=0;right=0;collapsible=0;dropTarget=0;fillColor=none;points=[[0,0.5],[1,0.5]];portConstraint=eastwest;strokeColor=inherit;fontSize=16;" vertex="1" parent="XuhRDX56pQfsWtt-mXjJ-22">
          <mxGeometry y="510" width="400" height="30" as="geometry" />
        </mxCell>
        <mxCell id="XuhRDX56pQfsWtt-mXjJ-100" value="∑, date" style="shape=partialRectangle;html=1;whiteSpace=wrap;connectable=0;fillColor=none;top=0;left=0;bottom=0;right=0;overflow=hidden;strokeColor=inherit;fontSize=16;" vertex="1" parent="XuhRDX56pQfsWtt-mXjJ-99">
          <mxGeometry width="80" height="30" as="geometry">
            <mxRectangle width="80" height="30" as="alternateBounds" />
          </mxGeometry>
        </mxCell>
        <mxCell id="XuhRDX56pQfsWtt-mXjJ-101" value="Conclusão Real" style="shape=partialRectangle;html=1;whiteSpace=wrap;connectable=0;fillColor=none;top=0;left=0;bottom=0;right=0;align=left;spacingLeft=6;overflow=hidden;strokeColor=inherit;fontSize=16;" vertex="1" parent="XuhRDX56pQfsWtt-mXjJ-99">
          <mxGeometry x="80" width="320" height="30" as="geometry">
            <mxRectangle width="320" height="30" as="alternateBounds" />
          </mxGeometry>
        </mxCell>
        <mxCell id="XuhRDX56pQfsWtt-mXjJ-96" value="" style="shape=tableRow;horizontal=0;startSize=0;swimlaneHead=0;swimlaneBody=0;top=0;left=0;bottom=0;right=0;collapsible=0;dropTarget=0;fillColor=none;points=[[0,0.5],[1,0.5]];portConstraint=eastwest;strokeColor=inherit;fontSize=16;" vertex="1" parent="XuhRDX56pQfsWtt-mXjJ-22">
          <mxGeometry y="540" width="400" height="30" as="geometry" />
        </mxCell>
        <mxCell id="XuhRDX56pQfsWtt-mXjJ-97" value=", string" style="shape=partialRectangle;html=1;whiteSpace=wrap;connectable=0;fillColor=none;top=0;left=0;bottom=0;right=0;overflow=hidden;strokeColor=inherit;fontSize=16;" vertex="1" parent="XuhRDX56pQfsWtt-mXjJ-96">
          <mxGeometry width="80" height="30" as="geometry">
            <mxRectangle width="80" height="30" as="alternateBounds" />
          </mxGeometry>
        </mxCell>
        <mxCell id="XuhRDX56pQfsWtt-mXjJ-98" value="Classificação Geral (Sub Área)" style="shape=partialRectangle;html=1;whiteSpace=wrap;connectable=0;fillColor=none;top=0;left=0;bottom=0;right=0;align=left;spacingLeft=6;overflow=hidden;strokeColor=inherit;fontSize=16;" vertex="1" parent="XuhRDX56pQfsWtt-mXjJ-96">
          <mxGeometry x="80" width="320" height="30" as="geometry">
            <mxRectangle width="320" height="30" as="alternateBounds" />
          </mxGeometry>
        </mxCell>
        <mxCell id="XuhRDX56pQfsWtt-mXjJ-93" value="" style="shape=tableRow;horizontal=0;startSize=0;swimlaneHead=0;swimlaneBody=0;top=0;left=0;bottom=0;right=0;collapsible=0;dropTarget=0;fillColor=none;points=[[0,0.5],[1,0.5]];portConstraint=eastwest;strokeColor=inherit;fontSize=16;" vertex="1" parent="XuhRDX56pQfsWtt-mXjJ-22">
          <mxGeometry y="570" width="400" height="30" as="geometry" />
        </mxCell>
        <mxCell id="XuhRDX56pQfsWtt-mXjJ-94" value=", string" style="shape=partialRectangle;html=1;whiteSpace=wrap;connectable=0;fillColor=none;top=0;left=0;bottom=0;right=0;overflow=hidden;strokeColor=inherit;fontSize=16;" vertex="1" parent="XuhRDX56pQfsWtt-mXjJ-93">
          <mxGeometry width="80" height="30" as="geometry">
            <mxRectangle width="80" height="30" as="alternateBounds" />
          </mxGeometry>
        </mxCell>
        <mxCell id="XuhRDX56pQfsWtt-mXjJ-95" value="Próximo Curso" style="shape=partialRectangle;html=1;whiteSpace=wrap;connectable=0;fillColor=none;top=0;left=0;bottom=0;right=0;align=left;spacingLeft=6;overflow=hidden;strokeColor=inherit;fontSize=16;" vertex="1" parent="XuhRDX56pQfsWtt-mXjJ-93">
          <mxGeometry x="80" width="320" height="30" as="geometry">
            <mxRectangle width="320" height="30" as="alternateBounds" />
          </mxGeometry>
        </mxCell>
        <mxCell id="XuhRDX56pQfsWtt-mXjJ-90" value="" style="shape=tableRow;horizontal=0;startSize=0;swimlaneHead=0;swimlaneBody=0;top=0;left=0;bottom=0;right=0;collapsible=0;dropTarget=0;fillColor=none;points=[[0,0.5],[1,0.5]];portConstraint=eastwest;strokeColor=inherit;fontSize=16;" vertex="1" parent="XuhRDX56pQfsWtt-mXjJ-22">
          <mxGeometry y="600" width="400" height="30" as="geometry" />
        </mxCell>
        <mxCell id="XuhRDX56pQfsWtt-mXjJ-91" value=", string" style="shape=partialRectangle;html=1;whiteSpace=wrap;connectable=0;fillColor=none;top=0;left=0;bottom=0;right=0;overflow=hidden;strokeColor=inherit;fontSize=16;" vertex="1" parent="XuhRDX56pQfsWtt-mXjJ-90">
          <mxGeometry width="80" height="30" as="geometry">
            <mxRectangle width="80" height="30" as="alternateBounds" />
          </mxGeometry>
        </mxCell>
        <mxCell id="XuhRDX56pQfsWtt-mXjJ-92" value="Curso Anterior" style="shape=partialRectangle;html=1;whiteSpace=wrap;connectable=0;fillColor=none;top=0;left=0;bottom=0;right=0;align=left;spacingLeft=6;overflow=hidden;strokeColor=inherit;fontSize=16;" vertex="1" parent="XuhRDX56pQfsWtt-mXjJ-90">
          <mxGeometry x="80" width="320" height="30" as="geometry">
            <mxRectangle width="320" height="30" as="alternateBounds" />
          </mxGeometry>
        </mxCell>
        <mxCell id="XuhRDX56pQfsWtt-mXjJ-87" value="" style="shape=tableRow;horizontal=0;startSize=0;swimlaneHead=0;swimlaneBody=0;top=0;left=0;bottom=0;right=0;collapsible=0;dropTarget=0;fillColor=none;points=[[0,0.5],[1,0.5]];portConstraint=eastwest;strokeColor=inherit;fontSize=16;" vertex="1" parent="XuhRDX56pQfsWtt-mXjJ-22">
          <mxGeometry y="630" width="400" height="30" as="geometry" />
        </mxCell>
        <mxCell id="XuhRDX56pQfsWtt-mXjJ-88" value="FK, string" style="shape=partialRectangle;html=1;whiteSpace=wrap;connectable=0;fillColor=none;top=0;left=0;bottom=0;right=0;overflow=hidden;strokeColor=inherit;fontSize=16;" vertex="1" parent="XuhRDX56pQfsWtt-mXjJ-87">
          <mxGeometry width="80" height="30" as="geometry">
            <mxRectangle width="80" height="30" as="alternateBounds" />
          </mxGeometry>
        </mxCell>
        <mxCell id="XuhRDX56pQfsWtt-mXjJ-89" value="Local (Tabela Própria)" style="shape=partialRectangle;html=1;whiteSpace=wrap;connectable=0;fillColor=none;top=0;left=0;bottom=0;right=0;align=left;spacingLeft=6;overflow=hidden;strokeColor=inherit;fontSize=16;" vertex="1" parent="XuhRDX56pQfsWtt-mXjJ-87">
          <mxGeometry x="80" width="320" height="30" as="geometry">
            <mxRectangle width="320" height="30" as="alternateBounds" />
          </mxGeometry>
        </mxCell>
        <mxCell id="XuhRDX56pQfsWtt-mXjJ-84" value="" style="shape=tableRow;horizontal=0;startSize=0;swimlaneHead=0;swimlaneBody=0;top=0;left=0;bottom=0;right=0;collapsible=0;dropTarget=0;fillColor=none;points=[[0,0.5],[1,0.5]];portConstraint=eastwest;strokeColor=inherit;fontSize=16;" vertex="1" parent="XuhRDX56pQfsWtt-mXjJ-22">
          <mxGeometry y="660" width="400" height="30" as="geometry" />
        </mxCell>
        <mxCell id="XuhRDX56pQfsWtt-mXjJ-85" value="FK, string" style="shape=partialRectangle;html=1;whiteSpace=wrap;connectable=0;fillColor=none;top=0;left=0;bottom=0;right=0;overflow=hidden;strokeColor=inherit;fontSize=16;" vertex="1" parent="XuhRDX56pQfsWtt-mXjJ-84">
          <mxGeometry width="80" height="30" as="geometry">
            <mxRectangle width="80" height="30" as="alternateBounds" />
          </mxGeometry>
        </mxCell>
        <mxCell id="XuhRDX56pQfsWtt-mXjJ-86" value="Tipo (Tabela Prórpria)" style="shape=partialRectangle;html=1;whiteSpace=wrap;connectable=0;fillColor=none;top=0;left=0;bottom=0;right=0;align=left;spacingLeft=6;overflow=hidden;strokeColor=inherit;fontSize=16;" vertex="1" parent="XuhRDX56pQfsWtt-mXjJ-84">
          <mxGeometry x="80" width="320" height="30" as="geometry">
            <mxRectangle width="320" height="30" as="alternateBounds" />
          </mxGeometry>
        </mxCell>
        <mxCell id="XuhRDX56pQfsWtt-mXjJ-81" value="" style="shape=tableRow;horizontal=0;startSize=0;swimlaneHead=0;swimlaneBody=0;top=0;left=0;bottom=0;right=0;collapsible=0;dropTarget=0;fillColor=none;points=[[0,0.5],[1,0.5]];portConstraint=eastwest;strokeColor=inherit;fontSize=16;" vertex="1" parent="XuhRDX56pQfsWtt-mXjJ-22">
          <mxGeometry y="690" width="400" height="30" as="geometry" />
        </mxCell>
        <mxCell id="XuhRDX56pQfsWtt-mXjJ-82" value=", string" style="shape=partialRectangle;html=1;whiteSpace=wrap;connectable=0;fillColor=none;top=0;left=0;bottom=0;right=0;overflow=hidden;strokeColor=inherit;fontSize=16;" vertex="1" parent="XuhRDX56pQfsWtt-mXjJ-81">
          <mxGeometry width="80" height="30" as="geometry">
            <mxRectangle width="80" height="30" as="alternateBounds" />
          </mxGeometry>
        </mxCell>
        <mxCell id="XuhRDX56pQfsWtt-mXjJ-83" value="Endereço" style="shape=partialRectangle;html=1;whiteSpace=wrap;connectable=0;fillColor=none;top=0;left=0;bottom=0;right=0;align=left;spacingLeft=6;overflow=hidden;strokeColor=inherit;fontSize=16;" vertex="1" parent="XuhRDX56pQfsWtt-mXjJ-81">
          <mxGeometry x="80" width="320" height="30" as="geometry">
            <mxRectangle width="320" height="30" as="alternateBounds" />
          </mxGeometry>
        </mxCell>
        <mxCell id="XuhRDX56pQfsWtt-mXjJ-78" value="" style="shape=tableRow;horizontal=0;startSize=0;swimlaneHead=0;swimlaneBody=0;top=0;left=0;bottom=0;right=0;collapsible=0;dropTarget=0;fillColor=none;points=[[0,0.5],[1,0.5]];portConstraint=eastwest;strokeColor=inherit;fontSize=16;" vertex="1" parent="XuhRDX56pQfsWtt-mXjJ-22">
          <mxGeometry y="720" width="400" height="30" as="geometry" />
        </mxCell>
        <mxCell id="XuhRDX56pQfsWtt-mXjJ-79" value="FK, string" style="shape=partialRectangle;html=1;whiteSpace=wrap;connectable=0;fillColor=none;top=0;left=0;bottom=0;right=0;overflow=hidden;strokeColor=inherit;fontSize=16;" vertex="1" parent="XuhRDX56pQfsWtt-mXjJ-78">
          <mxGeometry width="80" height="30" as="geometry">
            <mxRectangle width="80" height="30" as="alternateBounds" />
          </mxGeometry>
        </mxCell>
        <mxCell id="XuhRDX56pQfsWtt-mXjJ-80" value="Aulas" style="shape=partialRectangle;html=1;whiteSpace=wrap;connectable=0;fillColor=none;top=0;left=0;bottom=0;right=0;align=left;spacingLeft=6;overflow=hidden;strokeColor=inherit;fontSize=16;" vertex="1" parent="XuhRDX56pQfsWtt-mXjJ-78">
          <mxGeometry x="80" width="320" height="30" as="geometry">
            <mxRectangle width="320" height="30" as="alternateBounds" />
          </mxGeometry>
        </mxCell>
        <mxCell id="XuhRDX56pQfsWtt-mXjJ-377" style="shape=tableRow;horizontal=0;startSize=0;swimlaneHead=0;swimlaneBody=0;top=0;left=0;bottom=0;right=0;collapsible=0;dropTarget=0;fillColor=none;points=[[0,0.5],[1,0.5]];portConstraint=eastwest;strokeColor=inherit;fontSize=16;" vertex="1" parent="XuhRDX56pQfsWtt-mXjJ-22">
          <mxGeometry y="750" width="400" height="30" as="geometry" />
        </mxCell>
        <mxCell id="XuhRDX56pQfsWtt-mXjJ-378" value="FK, string" style="shape=partialRectangle;html=1;whiteSpace=wrap;connectable=0;fillColor=none;top=0;left=0;bottom=0;right=0;overflow=hidden;strokeColor=inherit;fontSize=16;" vertex="1" parent="XuhRDX56pQfsWtt-mXjJ-377">
          <mxGeometry width="80" height="30" as="geometry">
            <mxRectangle width="80" height="30" as="alternateBounds" />
          </mxGeometry>
        </mxCell>
        <mxCell id="XuhRDX56pQfsWtt-mXjJ-379" value="Prioridade (Prioridade)" style="shape=partialRectangle;html=1;whiteSpace=wrap;connectable=0;fillColor=none;top=0;left=0;bottom=0;right=0;align=left;spacingLeft=6;overflow=hidden;strokeColor=inherit;fontSize=16;" vertex="1" parent="XuhRDX56pQfsWtt-mXjJ-377">
          <mxGeometry x="80" width="320" height="30" as="geometry">
            <mxRectangle width="320" height="30" as="alternateBounds" />
          </mxGeometry>
        </mxCell>
        <mxCell id="XuhRDX56pQfsWtt-mXjJ-175" value="Aulas/Fragmentação do Conhecimento/ Frag Formações" style="shape=table;startSize=30;container=1;collapsible=0;childLayout=tableLayout;fixedRows=1;rowLines=0;fontStyle=0;strokeColor=default;fontSize=16;rounded=0;" vertex="1" parent="1">
          <mxGeometry x="609" y="490" width="400" height="390" as="geometry" />
        </mxCell>
        <mxCell id="XuhRDX56pQfsWtt-mXjJ-176" value="" style="shape=tableRow;horizontal=0;startSize=0;swimlaneHead=0;swimlaneBody=0;top=0;left=0;bottom=0;right=0;collapsible=0;dropTarget=0;fillColor=none;points=[[0,0.5],[1,0.5]];portConstraint=eastwest;strokeColor=inherit;fontSize=16;" vertex="1" parent="XuhRDX56pQfsWtt-mXjJ-175">
          <mxGeometry y="30" width="400" height="30" as="geometry" />
        </mxCell>
        <mxCell id="XuhRDX56pQfsWtt-mXjJ-177" value="PK, string" style="shape=partialRectangle;html=1;whiteSpace=wrap;connectable=0;fillColor=none;top=0;left=0;bottom=0;right=0;overflow=hidden;pointerEvents=1;strokeColor=inherit;fontSize=16;" vertex="1" parent="XuhRDX56pQfsWtt-mXjJ-176">
          <mxGeometry width="80" height="30" as="geometry">
            <mxRectangle width="80" height="30" as="alternateBounds" />
          </mxGeometry>
        </mxCell>
        <mxCell id="XuhRDX56pQfsWtt-mXjJ-178" value="Nome" style="shape=partialRectangle;html=1;whiteSpace=wrap;connectable=0;fillColor=none;top=0;left=0;bottom=0;right=0;align=left;spacingLeft=6;overflow=hidden;strokeColor=inherit;fontSize=16;" vertex="1" parent="XuhRDX56pQfsWtt-mXjJ-176">
          <mxGeometry x="80" width="320" height="30" as="geometry">
            <mxRectangle width="320" height="30" as="alternateBounds" />
          </mxGeometry>
        </mxCell>
        <mxCell id="XuhRDX56pQfsWtt-mXjJ-179" value="" style="shape=tableRow;horizontal=0;startSize=0;swimlaneHead=0;swimlaneBody=0;top=0;left=0;bottom=0;right=0;collapsible=0;dropTarget=0;fillColor=none;points=[[0,0.5],[1,0.5]];portConstraint=eastwest;strokeColor=inherit;fontSize=16;" vertex="1" parent="XuhRDX56pQfsWtt-mXjJ-175">
          <mxGeometry y="60" width="400" height="30" as="geometry" />
        </mxCell>
        <mxCell id="XuhRDX56pQfsWtt-mXjJ-180" value="FK , string" style="shape=partialRectangle;html=1;whiteSpace=wrap;connectable=0;fillColor=none;top=0;left=0;bottom=0;right=0;overflow=hidden;strokeColor=inherit;fontSize=16;" vertex="1" parent="XuhRDX56pQfsWtt-mXjJ-179">
          <mxGeometry width="80" height="30" as="geometry">
            <mxRectangle width="80" height="30" as="alternateBounds" />
          </mxGeometry>
        </mxCell>
        <mxCell id="XuhRDX56pQfsWtt-mXjJ-181" value="Status" style="shape=partialRectangle;html=1;whiteSpace=wrap;connectable=0;fillColor=none;top=0;left=0;bottom=0;right=0;align=left;spacingLeft=6;overflow=hidden;strokeColor=inherit;fontSize=16;" vertex="1" parent="XuhRDX56pQfsWtt-mXjJ-179">
          <mxGeometry x="80" width="320" height="30" as="geometry">
            <mxRectangle width="320" height="30" as="alternateBounds" />
          </mxGeometry>
        </mxCell>
        <mxCell id="XuhRDX56pQfsWtt-mXjJ-182" value="" style="shape=tableRow;horizontal=0;startSize=0;swimlaneHead=0;swimlaneBody=0;top=0;left=0;bottom=0;right=0;collapsible=0;dropTarget=0;fillColor=none;points=[[0,0.5],[1,0.5]];portConstraint=eastwest;strokeColor=inherit;fontSize=16;" vertex="1" parent="XuhRDX56pQfsWtt-mXjJ-175">
          <mxGeometry y="90" width="400" height="30" as="geometry" />
        </mxCell>
        <mxCell id="XuhRDX56pQfsWtt-mXjJ-183" value=", string" style="shape=partialRectangle;html=1;whiteSpace=wrap;connectable=0;fillColor=none;top=0;left=0;bottom=0;right=0;overflow=hidden;strokeColor=inherit;fontSize=16;" vertex="1" parent="XuhRDX56pQfsWtt-mXjJ-182">
          <mxGeometry width="80" height="30" as="geometry">
            <mxRectangle width="80" height="30" as="alternateBounds" />
          </mxGeometry>
        </mxCell>
        <mxCell id="XuhRDX56pQfsWtt-mXjJ-184" value="Dificuldade" style="shape=partialRectangle;html=1;whiteSpace=wrap;connectable=0;fillColor=none;top=0;left=0;bottom=0;right=0;align=left;spacingLeft=6;overflow=hidden;strokeColor=inherit;fontSize=16;" vertex="1" parent="XuhRDX56pQfsWtt-mXjJ-182">
          <mxGeometry x="80" width="320" height="30" as="geometry">
            <mxRectangle width="320" height="30" as="alternateBounds" />
          </mxGeometry>
        </mxCell>
        <mxCell id="XuhRDX56pQfsWtt-mXjJ-191" value="" style="shape=tableRow;horizontal=0;startSize=0;swimlaneHead=0;swimlaneBody=0;top=0;left=0;bottom=0;right=0;collapsible=0;dropTarget=0;fillColor=none;points=[[0,0.5],[1,0.5]];portConstraint=eastwest;strokeColor=inherit;fontSize=16;" vertex="1" parent="XuhRDX56pQfsWtt-mXjJ-175">
          <mxGeometry y="120" width="400" height="30" as="geometry" />
        </mxCell>
        <mxCell id="XuhRDX56pQfsWtt-mXjJ-192" value=", string" style="shape=partialRectangle;html=1;whiteSpace=wrap;connectable=0;fillColor=none;top=0;left=0;bottom=0;right=0;overflow=hidden;strokeColor=inherit;fontSize=16;" vertex="1" parent="XuhRDX56pQfsWtt-mXjJ-191">
          <mxGeometry width="80" height="30" as="geometry">
            <mxRectangle width="80" height="30" as="alternateBounds" />
          </mxGeometry>
        </mxCell>
        <mxCell id="XuhRDX56pQfsWtt-mXjJ-193" value="Início" style="shape=partialRectangle;html=1;whiteSpace=wrap;connectable=0;fillColor=none;top=0;left=0;bottom=0;right=0;align=left;spacingLeft=6;overflow=hidden;strokeColor=inherit;fontSize=16;" vertex="1" parent="XuhRDX56pQfsWtt-mXjJ-191">
          <mxGeometry x="80" width="320" height="30" as="geometry">
            <mxRectangle width="320" height="30" as="alternateBounds" />
          </mxGeometry>
        </mxCell>
        <mxCell id="XuhRDX56pQfsWtt-mXjJ-195" style="shape=tableRow;horizontal=0;startSize=0;swimlaneHead=0;swimlaneBody=0;top=0;left=0;bottom=0;right=0;collapsible=0;dropTarget=0;fillColor=none;points=[[0,0.5],[1,0.5]];portConstraint=eastwest;strokeColor=inherit;fontSize=16;" vertex="1" parent="XuhRDX56pQfsWtt-mXjJ-175">
          <mxGeometry y="150" width="400" height="30" as="geometry" />
        </mxCell>
        <mxCell id="XuhRDX56pQfsWtt-mXjJ-196" value=", int" style="shape=partialRectangle;html=1;whiteSpace=wrap;connectable=0;fillColor=none;top=0;left=0;bottom=0;right=0;overflow=hidden;strokeColor=inherit;fontSize=16;" vertex="1" parent="XuhRDX56pQfsWtt-mXjJ-195">
          <mxGeometry width="80" height="30" as="geometry">
            <mxRectangle width="80" height="30" as="alternateBounds" />
          </mxGeometry>
        </mxCell>
        <mxCell id="XuhRDX56pQfsWtt-mXjJ-197" value="Minuto Aula" style="shape=partialRectangle;html=1;whiteSpace=wrap;connectable=0;fillColor=none;top=0;left=0;bottom=0;right=0;align=left;spacingLeft=6;overflow=hidden;strokeColor=inherit;fontSize=16;" vertex="1" parent="XuhRDX56pQfsWtt-mXjJ-195">
          <mxGeometry x="80" width="320" height="30" as="geometry">
            <mxRectangle width="320" height="30" as="alternateBounds" />
          </mxGeometry>
        </mxCell>
        <mxCell id="XuhRDX56pQfsWtt-mXjJ-198" style="shape=tableRow;horizontal=0;startSize=0;swimlaneHead=0;swimlaneBody=0;top=0;left=0;bottom=0;right=0;collapsible=0;dropTarget=0;fillColor=none;points=[[0,0.5],[1,0.5]];portConstraint=eastwest;strokeColor=inherit;fontSize=16;" vertex="1" parent="XuhRDX56pQfsWtt-mXjJ-175">
          <mxGeometry y="180" width="400" height="30" as="geometry" />
        </mxCell>
        <mxCell id="XuhRDX56pQfsWtt-mXjJ-199" value="∑, int" style="shape=partialRectangle;html=1;whiteSpace=wrap;connectable=0;fillColor=none;top=0;left=0;bottom=0;right=0;overflow=hidden;strokeColor=inherit;fontSize=16;" vertex="1" parent="XuhRDX56pQfsWtt-mXjJ-198">
          <mxGeometry width="80" height="30" as="geometry">
            <mxRectangle width="80" height="30" as="alternateBounds" />
          </mxGeometry>
        </mxCell>
        <mxCell id="XuhRDX56pQfsWtt-mXjJ-200" value="Hora aula" style="shape=partialRectangle;html=1;whiteSpace=wrap;connectable=0;fillColor=none;top=0;left=0;bottom=0;right=0;align=left;spacingLeft=6;overflow=hidden;strokeColor=inherit;fontSize=16;" vertex="1" parent="XuhRDX56pQfsWtt-mXjJ-198">
          <mxGeometry x="80" width="320" height="30" as="geometry">
            <mxRectangle width="320" height="30" as="alternateBounds" />
          </mxGeometry>
        </mxCell>
        <mxCell id="XuhRDX56pQfsWtt-mXjJ-201" style="shape=tableRow;horizontal=0;startSize=0;swimlaneHead=0;swimlaneBody=0;top=0;left=0;bottom=0;right=0;collapsible=0;dropTarget=0;fillColor=none;points=[[0,0.5],[1,0.5]];portConstraint=eastwest;strokeColor=inherit;fontSize=16;" vertex="1" parent="XuhRDX56pQfsWtt-mXjJ-175">
          <mxGeometry y="210" width="400" height="30" as="geometry" />
        </mxCell>
        <mxCell id="XuhRDX56pQfsWtt-mXjJ-202" value=", string" style="shape=partialRectangle;html=1;whiteSpace=wrap;connectable=0;fillColor=none;top=0;left=0;bottom=0;right=0;overflow=hidden;strokeColor=inherit;fontSize=16;" vertex="1" parent="XuhRDX56pQfsWtt-mXjJ-201">
          <mxGeometry width="80" height="30" as="geometry">
            <mxRectangle width="80" height="30" as="alternateBounds" />
          </mxGeometry>
        </mxCell>
        <mxCell id="XuhRDX56pQfsWtt-mXjJ-203" value="Próxima Aula" style="shape=partialRectangle;html=1;whiteSpace=wrap;connectable=0;fillColor=none;top=0;left=0;bottom=0;right=0;align=left;spacingLeft=6;overflow=hidden;strokeColor=inherit;fontSize=16;" vertex="1" parent="XuhRDX56pQfsWtt-mXjJ-201">
          <mxGeometry x="80" width="320" height="30" as="geometry">
            <mxRectangle width="320" height="30" as="alternateBounds" />
          </mxGeometry>
        </mxCell>
        <mxCell id="XuhRDX56pQfsWtt-mXjJ-204" style="shape=tableRow;horizontal=0;startSize=0;swimlaneHead=0;swimlaneBody=0;top=0;left=0;bottom=0;right=0;collapsible=0;dropTarget=0;fillColor=none;points=[[0,0.5],[1,0.5]];portConstraint=eastwest;strokeColor=inherit;fontSize=16;" vertex="1" parent="XuhRDX56pQfsWtt-mXjJ-175">
          <mxGeometry y="240" width="400" height="30" as="geometry" />
        </mxCell>
        <mxCell id="XuhRDX56pQfsWtt-mXjJ-205" value=", string" style="shape=partialRectangle;html=1;whiteSpace=wrap;connectable=0;fillColor=none;top=0;left=0;bottom=0;right=0;overflow=hidden;strokeColor=inherit;fontSize=16;" vertex="1" parent="XuhRDX56pQfsWtt-mXjJ-204">
          <mxGeometry width="80" height="30" as="geometry">
            <mxRectangle width="80" height="30" as="alternateBounds" />
          </mxGeometry>
        </mxCell>
        <mxCell id="XuhRDX56pQfsWtt-mXjJ-206" value="Aula Anterior" style="shape=partialRectangle;html=1;whiteSpace=wrap;connectable=0;fillColor=none;top=0;left=0;bottom=0;right=0;align=left;spacingLeft=6;overflow=hidden;strokeColor=inherit;fontSize=16;" vertex="1" parent="XuhRDX56pQfsWtt-mXjJ-204">
          <mxGeometry x="80" width="320" height="30" as="geometry">
            <mxRectangle width="320" height="30" as="alternateBounds" />
          </mxGeometry>
        </mxCell>
        <mxCell id="XuhRDX56pQfsWtt-mXjJ-207" style="shape=tableRow;horizontal=0;startSize=0;swimlaneHead=0;swimlaneBody=0;top=0;left=0;bottom=0;right=0;collapsible=0;dropTarget=0;fillColor=none;points=[[0,0.5],[1,0.5]];portConstraint=eastwest;strokeColor=inherit;fontSize=16;" vertex="1" parent="XuhRDX56pQfsWtt-mXjJ-175">
          <mxGeometry y="270" width="400" height="30" as="geometry" />
        </mxCell>
        <mxCell id="XuhRDX56pQfsWtt-mXjJ-208" value=", string" style="shape=partialRectangle;html=1;whiteSpace=wrap;connectable=0;fillColor=none;top=0;left=0;bottom=0;right=0;overflow=hidden;strokeColor=inherit;fontSize=16;" vertex="1" parent="XuhRDX56pQfsWtt-mXjJ-207">
          <mxGeometry width="80" height="30" as="geometry">
            <mxRectangle width="80" height="30" as="alternateBounds" />
          </mxGeometry>
        </mxCell>
        <mxCell id="XuhRDX56pQfsWtt-mXjJ-209" value="Classificação Geral (Sub Área)" style="shape=partialRectangle;html=1;whiteSpace=wrap;connectable=0;fillColor=none;top=0;left=0;bottom=0;right=0;align=left;spacingLeft=6;overflow=hidden;strokeColor=inherit;fontSize=16;" vertex="1" parent="XuhRDX56pQfsWtt-mXjJ-207">
          <mxGeometry x="80" width="320" height="30" as="geometry">
            <mxRectangle width="320" height="30" as="alternateBounds" />
          </mxGeometry>
        </mxCell>
        <mxCell id="XuhRDX56pQfsWtt-mXjJ-210" style="shape=tableRow;horizontal=0;startSize=0;swimlaneHead=0;swimlaneBody=0;top=0;left=0;bottom=0;right=0;collapsible=0;dropTarget=0;fillColor=none;points=[[0,0.5],[1,0.5]];portConstraint=eastwest;strokeColor=inherit;fontSize=16;" vertex="1" parent="XuhRDX56pQfsWtt-mXjJ-175">
          <mxGeometry y="300" width="400" height="30" as="geometry" />
        </mxCell>
        <mxCell id="XuhRDX56pQfsWtt-mXjJ-211" value="FK, string" style="shape=partialRectangle;html=1;whiteSpace=wrap;connectable=0;fillColor=none;top=0;left=0;bottom=0;right=0;overflow=hidden;strokeColor=inherit;fontSize=16;" vertex="1" parent="XuhRDX56pQfsWtt-mXjJ-210">
          <mxGeometry width="80" height="30" as="geometry">
            <mxRectangle width="80" height="30" as="alternateBounds" />
          </mxGeometry>
        </mxCell>
        <mxCell id="XuhRDX56pQfsWtt-mXjJ-212" value="Página de Estudo" style="shape=partialRectangle;html=1;whiteSpace=wrap;connectable=0;fillColor=none;top=0;left=0;bottom=0;right=0;align=left;spacingLeft=6;overflow=hidden;strokeColor=inherit;fontSize=16;" vertex="1" parent="XuhRDX56pQfsWtt-mXjJ-210">
          <mxGeometry x="80" width="320" height="30" as="geometry">
            <mxRectangle width="320" height="30" as="alternateBounds" />
          </mxGeometry>
        </mxCell>
        <mxCell id="XuhRDX56pQfsWtt-mXjJ-213" style="shape=tableRow;horizontal=0;startSize=0;swimlaneHead=0;swimlaneBody=0;top=0;left=0;bottom=0;right=0;collapsible=0;dropTarget=0;fillColor=none;points=[[0,0.5],[1,0.5]];portConstraint=eastwest;strokeColor=inherit;fontSize=16;" vertex="1" parent="XuhRDX56pQfsWtt-mXjJ-175">
          <mxGeometry y="330" width="400" height="30" as="geometry" />
        </mxCell>
        <mxCell id="XuhRDX56pQfsWtt-mXjJ-214" value="FK, string" style="shape=partialRectangle;html=1;whiteSpace=wrap;connectable=0;fillColor=none;top=0;left=0;bottom=0;right=0;overflow=hidden;strokeColor=inherit;fontSize=16;" vertex="1" parent="XuhRDX56pQfsWtt-mXjJ-213">
          <mxGeometry width="80" height="30" as="geometry">
            <mxRectangle width="80" height="30" as="alternateBounds" />
          </mxGeometry>
        </mxCell>
        <mxCell id="XuhRDX56pQfsWtt-mXjJ-215" value="Status do Curso (Curso/Conhecimento)" style="shape=partialRectangle;html=1;whiteSpace=wrap;connectable=0;fillColor=none;top=0;left=0;bottom=0;right=0;align=left;spacingLeft=6;overflow=hidden;strokeColor=inherit;fontSize=16;" vertex="1" parent="XuhRDX56pQfsWtt-mXjJ-213">
          <mxGeometry x="80" width="320" height="30" as="geometry">
            <mxRectangle width="320" height="30" as="alternateBounds" />
          </mxGeometry>
        </mxCell>
        <mxCell id="XuhRDX56pQfsWtt-mXjJ-216" style="shape=tableRow;horizontal=0;startSize=0;swimlaneHead=0;swimlaneBody=0;top=0;left=0;bottom=0;right=0;collapsible=0;dropTarget=0;fillColor=none;points=[[0,0.5],[1,0.5]];portConstraint=eastwest;strokeColor=inherit;fontSize=16;" vertex="1" parent="XuhRDX56pQfsWtt-mXjJ-175">
          <mxGeometry y="360" width="400" height="30" as="geometry" />
        </mxCell>
        <mxCell id="XuhRDX56pQfsWtt-mXjJ-217" value="FK, string" style="shape=partialRectangle;html=1;whiteSpace=wrap;connectable=0;fillColor=none;top=0;left=0;bottom=0;right=0;overflow=hidden;strokeColor=inherit;fontSize=16;" vertex="1" parent="XuhRDX56pQfsWtt-mXjJ-216">
          <mxGeometry width="80" height="30" as="geometry">
            <mxRectangle width="80" height="30" as="alternateBounds" />
          </mxGeometry>
        </mxCell>
        <mxCell id="XuhRDX56pQfsWtt-mXjJ-218" value="Nome (Curso/Conhecimento)" style="shape=partialRectangle;html=1;whiteSpace=wrap;connectable=0;fillColor=none;top=0;left=0;bottom=0;right=0;align=left;spacingLeft=6;overflow=hidden;strokeColor=inherit;fontSize=16;" vertex="1" parent="XuhRDX56pQfsWtt-mXjJ-216">
          <mxGeometry x="80" width="320" height="30" as="geometry">
            <mxRectangle width="320" height="30" as="alternateBounds" />
          </mxGeometry>
        </mxCell>
        <mxCell id="XuhRDX56pQfsWtt-mXjJ-188" value="" style="edgeStyle=entityRelationEdgeStyle;fontSize=12;html=1;endArrow=ERoneToMany;rounded=0;exitX=1;exitY=0;exitDx=0;exitDy=0;entryX=0;entryY=0;entryDx=0;entryDy=0;" edge="1" parent="1" source="XuhRDX56pQfsWtt-mXjJ-22" target="XuhRDX56pQfsWtt-mXjJ-175">
          <mxGeometry width="100" height="100" relative="1" as="geometry">
            <mxPoint x="399" y="558" as="sourcePoint" />
            <mxPoint x="499" y="458" as="targetPoint" />
          </mxGeometry>
        </mxCell>
        <mxCell id="XuhRDX56pQfsWtt-mXjJ-219" value="Status" style="shape=table;startSize=30;container=1;collapsible=0;childLayout=tableLayout;fixedRows=1;rowLines=0;fontStyle=0;strokeColor=default;fontSize=16;" vertex="1" parent="1">
          <mxGeometry x="1409" y="130" width="400" height="300" as="geometry" />
        </mxCell>
        <mxCell id="XuhRDX56pQfsWtt-mXjJ-220" value="" style="shape=tableRow;horizontal=0;startSize=0;swimlaneHead=0;swimlaneBody=0;top=0;left=0;bottom=0;right=0;collapsible=0;dropTarget=0;fillColor=none;points=[[0,0.5],[1,0.5]];portConstraint=eastwest;strokeColor=inherit;fontSize=16;" vertex="1" parent="XuhRDX56pQfsWtt-mXjJ-219">
          <mxGeometry y="30" width="400" height="30" as="geometry" />
        </mxCell>
        <mxCell id="XuhRDX56pQfsWtt-mXjJ-221" value="PK, string" style="shape=partialRectangle;html=1;whiteSpace=wrap;connectable=0;fillColor=none;top=0;left=0;bottom=0;right=0;overflow=hidden;pointerEvents=1;strokeColor=inherit;fontSize=16;" vertex="1" parent="XuhRDX56pQfsWtt-mXjJ-220">
          <mxGeometry width="111" height="30" as="geometry">
            <mxRectangle width="111" height="30" as="alternateBounds" />
          </mxGeometry>
        </mxCell>
        <mxCell id="XuhRDX56pQfsWtt-mXjJ-222" value="Nome" style="shape=partialRectangle;html=1;whiteSpace=wrap;connectable=0;fillColor=none;top=0;left=0;bottom=0;right=0;align=left;spacingLeft=6;overflow=hidden;strokeColor=inherit;fontSize=16;" vertex="1" parent="XuhRDX56pQfsWtt-mXjJ-220">
          <mxGeometry x="111" width="289" height="30" as="geometry">
            <mxRectangle width="289" height="30" as="alternateBounds" />
          </mxGeometry>
        </mxCell>
        <mxCell id="XuhRDX56pQfsWtt-mXjJ-223" value="" style="shape=tableRow;horizontal=0;startSize=0;swimlaneHead=0;swimlaneBody=0;top=0;left=0;bottom=0;right=0;collapsible=0;dropTarget=0;fillColor=none;points=[[0,0.5],[1,0.5]];portConstraint=eastwest;strokeColor=inherit;fontSize=16;" vertex="1" parent="XuhRDX56pQfsWtt-mXjJ-219">
          <mxGeometry y="60" width="400" height="30" as="geometry" />
        </mxCell>
        <mxCell id="XuhRDX56pQfsWtt-mXjJ-224" value=", string" style="shape=partialRectangle;html=1;whiteSpace=wrap;connectable=0;fillColor=none;top=0;left=0;bottom=0;right=0;overflow=hidden;strokeColor=inherit;fontSize=16;" vertex="1" parent="XuhRDX56pQfsWtt-mXjJ-223">
          <mxGeometry width="111" height="30" as="geometry">
            <mxRectangle width="111" height="30" as="alternateBounds" />
          </mxGeometry>
        </mxCell>
        <mxCell id="XuhRDX56pQfsWtt-mXjJ-225" value="Kambam" style="shape=partialRectangle;html=1;whiteSpace=wrap;connectable=0;fillColor=none;top=0;left=0;bottom=0;right=0;align=left;spacingLeft=6;overflow=hidden;strokeColor=inherit;fontSize=16;" vertex="1" parent="XuhRDX56pQfsWtt-mXjJ-223">
          <mxGeometry x="111" width="289" height="30" as="geometry">
            <mxRectangle width="289" height="30" as="alternateBounds" />
          </mxGeometry>
        </mxCell>
        <mxCell id="XuhRDX56pQfsWtt-mXjJ-595" style="shape=tableRow;horizontal=0;startSize=0;swimlaneHead=0;swimlaneBody=0;top=0;left=0;bottom=0;right=0;collapsible=0;dropTarget=0;fillColor=none;points=[[0,0.5],[1,0.5]];portConstraint=eastwest;strokeColor=inherit;fontSize=16;" vertex="1" parent="XuhRDX56pQfsWtt-mXjJ-219">
          <mxGeometry y="90" width="400" height="30" as="geometry" />
        </mxCell>
        <mxCell id="XuhRDX56pQfsWtt-mXjJ-596" value="FK, string" style="shape=partialRectangle;html=1;whiteSpace=wrap;connectable=0;fillColor=none;top=0;left=0;bottom=0;right=0;overflow=hidden;strokeColor=inherit;fontSize=16;" vertex="1" parent="XuhRDX56pQfsWtt-mXjJ-595">
          <mxGeometry width="111" height="30" as="geometry">
            <mxRectangle width="111" height="30" as="alternateBounds" />
          </mxGeometry>
        </mxCell>
        <mxCell id="XuhRDX56pQfsWtt-mXjJ-597" value="Curso/Conhecimento/Formações" style="shape=partialRectangle;html=1;whiteSpace=wrap;connectable=0;fillColor=none;top=0;left=0;bottom=0;right=0;align=left;spacingLeft=6;overflow=hidden;strokeColor=inherit;fontSize=16;" vertex="1" parent="XuhRDX56pQfsWtt-mXjJ-595">
          <mxGeometry x="111" width="289" height="30" as="geometry">
            <mxRectangle width="289" height="30" as="alternateBounds" />
          </mxGeometry>
        </mxCell>
        <mxCell id="XuhRDX56pQfsWtt-mXjJ-598" style="shape=tableRow;horizontal=0;startSize=0;swimlaneHead=0;swimlaneBody=0;top=0;left=0;bottom=0;right=0;collapsible=0;dropTarget=0;fillColor=none;points=[[0,0.5],[1,0.5]];portConstraint=eastwest;strokeColor=inherit;fontSize=16;" vertex="1" parent="XuhRDX56pQfsWtt-mXjJ-219">
          <mxGeometry y="120" width="400" height="30" as="geometry" />
        </mxCell>
        <mxCell id="XuhRDX56pQfsWtt-mXjJ-599" value="FK, string" style="shape=partialRectangle;html=1;whiteSpace=wrap;connectable=0;fillColor=none;top=0;left=0;bottom=0;right=0;overflow=hidden;strokeColor=inherit;fontSize=16;" vertex="1" parent="XuhRDX56pQfsWtt-mXjJ-598">
          <mxGeometry width="111" height="30" as="geometry">
            <mxRectangle width="111" height="30" as="alternateBounds" />
          </mxGeometry>
        </mxCell>
        <mxCell id="XuhRDX56pQfsWtt-mXjJ-600" value="Aulas/Frag do Conhec/ Frag Form" style="shape=partialRectangle;html=1;whiteSpace=wrap;connectable=0;fillColor=none;top=0;left=0;bottom=0;right=0;align=left;spacingLeft=6;overflow=hidden;strokeColor=inherit;fontSize=16;" vertex="1" parent="XuhRDX56pQfsWtt-mXjJ-598">
          <mxGeometry x="111" width="289" height="30" as="geometry">
            <mxRectangle width="289" height="30" as="alternateBounds" />
          </mxGeometry>
        </mxCell>
        <mxCell id="XuhRDX56pQfsWtt-mXjJ-601" style="shape=tableRow;horizontal=0;startSize=0;swimlaneHead=0;swimlaneBody=0;top=0;left=0;bottom=0;right=0;collapsible=0;dropTarget=0;fillColor=none;points=[[0,0.5],[1,0.5]];portConstraint=eastwest;strokeColor=inherit;fontSize=16;" vertex="1" parent="XuhRDX56pQfsWtt-mXjJ-219">
          <mxGeometry y="150" width="400" height="30" as="geometry" />
        </mxCell>
        <mxCell id="XuhRDX56pQfsWtt-mXjJ-602" value="FK, string" style="shape=partialRectangle;html=1;whiteSpace=wrap;connectable=0;fillColor=none;top=0;left=0;bottom=0;right=0;overflow=hidden;strokeColor=inherit;fontSize=16;" vertex="1" parent="XuhRDX56pQfsWtt-mXjJ-601">
          <mxGeometry width="111" height="30" as="geometry">
            <mxRectangle width="111" height="30" as="alternateBounds" />
          </mxGeometry>
        </mxCell>
        <mxCell id="XuhRDX56pQfsWtt-mXjJ-603" value="Projetos" style="shape=partialRectangle;html=1;whiteSpace=wrap;connectable=0;fillColor=none;top=0;left=0;bottom=0;right=0;align=left;spacingLeft=6;overflow=hidden;strokeColor=inherit;fontSize=16;" vertex="1" parent="XuhRDX56pQfsWtt-mXjJ-601">
          <mxGeometry x="111" width="289" height="30" as="geometry">
            <mxRectangle width="289" height="30" as="alternateBounds" />
          </mxGeometry>
        </mxCell>
        <mxCell id="XuhRDX56pQfsWtt-mXjJ-604" style="shape=tableRow;horizontal=0;startSize=0;swimlaneHead=0;swimlaneBody=0;top=0;left=0;bottom=0;right=0;collapsible=0;dropTarget=0;fillColor=none;points=[[0,0.5],[1,0.5]];portConstraint=eastwest;strokeColor=inherit;fontSize=16;" vertex="1" parent="XuhRDX56pQfsWtt-mXjJ-219">
          <mxGeometry y="180" width="400" height="30" as="geometry" />
        </mxCell>
        <mxCell id="XuhRDX56pQfsWtt-mXjJ-605" value="FK, string" style="shape=partialRectangle;html=1;whiteSpace=wrap;connectable=0;fillColor=none;top=0;left=0;bottom=0;right=0;overflow=hidden;strokeColor=inherit;fontSize=16;" vertex="1" parent="XuhRDX56pQfsWtt-mXjJ-604">
          <mxGeometry width="111" height="30" as="geometry">
            <mxRectangle width="111" height="30" as="alternateBounds" />
          </mxGeometry>
        </mxCell>
        <mxCell id="XuhRDX56pQfsWtt-mXjJ-606" value="Tarefas dos Projetos" style="shape=partialRectangle;html=1;whiteSpace=wrap;connectable=0;fillColor=none;top=0;left=0;bottom=0;right=0;align=left;spacingLeft=6;overflow=hidden;strokeColor=inherit;fontSize=16;" vertex="1" parent="XuhRDX56pQfsWtt-mXjJ-604">
          <mxGeometry x="111" width="289" height="30" as="geometry">
            <mxRectangle width="289" height="30" as="alternateBounds" />
          </mxGeometry>
        </mxCell>
        <mxCell id="XuhRDX56pQfsWtt-mXjJ-607" style="shape=tableRow;horizontal=0;startSize=0;swimlaneHead=0;swimlaneBody=0;top=0;left=0;bottom=0;right=0;collapsible=0;dropTarget=0;fillColor=none;points=[[0,0.5],[1,0.5]];portConstraint=eastwest;strokeColor=inherit;fontSize=16;" vertex="1" parent="XuhRDX56pQfsWtt-mXjJ-219">
          <mxGeometry y="210" width="400" height="30" as="geometry" />
        </mxCell>
        <mxCell id="XuhRDX56pQfsWtt-mXjJ-608" value="FK, string" style="shape=partialRectangle;html=1;whiteSpace=wrap;connectable=0;fillColor=none;top=0;left=0;bottom=0;right=0;overflow=hidden;strokeColor=inherit;fontSize=16;" vertex="1" parent="XuhRDX56pQfsWtt-mXjJ-607">
          <mxGeometry width="111" height="30" as="geometry">
            <mxRectangle width="111" height="30" as="alternateBounds" />
          </mxGeometry>
        </mxCell>
        <mxCell id="XuhRDX56pQfsWtt-mXjJ-609" value="Publicações" style="shape=partialRectangle;html=1;whiteSpace=wrap;connectable=0;fillColor=none;top=0;left=0;bottom=0;right=0;align=left;spacingLeft=6;overflow=hidden;strokeColor=inherit;fontSize=16;" vertex="1" parent="XuhRDX56pQfsWtt-mXjJ-607">
          <mxGeometry x="111" width="289" height="30" as="geometry">
            <mxRectangle width="289" height="30" as="alternateBounds" />
          </mxGeometry>
        </mxCell>
        <mxCell id="XuhRDX56pQfsWtt-mXjJ-610" style="shape=tableRow;horizontal=0;startSize=0;swimlaneHead=0;swimlaneBody=0;top=0;left=0;bottom=0;right=0;collapsible=0;dropTarget=0;fillColor=none;points=[[0,0.5],[1,0.5]];portConstraint=eastwest;strokeColor=inherit;fontSize=16;" vertex="1" parent="XuhRDX56pQfsWtt-mXjJ-219">
          <mxGeometry y="240" width="400" height="30" as="geometry" />
        </mxCell>
        <mxCell id="XuhRDX56pQfsWtt-mXjJ-611" value="FK, string" style="shape=partialRectangle;html=1;whiteSpace=wrap;connectable=0;fillColor=none;top=0;left=0;bottom=0;right=0;overflow=hidden;strokeColor=inherit;fontSize=16;" vertex="1" parent="XuhRDX56pQfsWtt-mXjJ-610">
          <mxGeometry width="111" height="30" as="geometry">
            <mxRectangle width="111" height="30" as="alternateBounds" />
          </mxGeometry>
        </mxCell>
        <mxCell id="XuhRDX56pQfsWtt-mXjJ-612" value="Cíclo de Estudo" style="shape=partialRectangle;html=1;whiteSpace=wrap;connectable=0;fillColor=none;top=0;left=0;bottom=0;right=0;align=left;spacingLeft=6;overflow=hidden;strokeColor=inherit;fontSize=16;" vertex="1" parent="XuhRDX56pQfsWtt-mXjJ-610">
          <mxGeometry x="111" width="289" height="30" as="geometry">
            <mxRectangle width="289" height="30" as="alternateBounds" />
          </mxGeometry>
        </mxCell>
        <mxCell id="XuhRDX56pQfsWtt-mXjJ-613" style="shape=tableRow;horizontal=0;startSize=0;swimlaneHead=0;swimlaneBody=0;top=0;left=0;bottom=0;right=0;collapsible=0;dropTarget=0;fillColor=none;points=[[0,0.5],[1,0.5]];portConstraint=eastwest;strokeColor=inherit;fontSize=16;" vertex="1" parent="XuhRDX56pQfsWtt-mXjJ-219">
          <mxGeometry y="270" width="400" height="30" as="geometry" />
        </mxCell>
        <mxCell id="XuhRDX56pQfsWtt-mXjJ-614" value="FK, string" style="shape=partialRectangle;html=1;whiteSpace=wrap;connectable=0;fillColor=none;top=0;left=0;bottom=0;right=0;overflow=hidden;strokeColor=inherit;fontSize=16;" vertex="1" parent="XuhRDX56pQfsWtt-mXjJ-613">
          <mxGeometry width="111" height="30" as="geometry">
            <mxRectangle width="111" height="30" as="alternateBounds" />
          </mxGeometry>
        </mxCell>
        <mxCell id="XuhRDX56pQfsWtt-mXjJ-615" value="Tarefas do Cíclo de Estudo" style="shape=partialRectangle;html=1;whiteSpace=wrap;connectable=0;fillColor=none;top=0;left=0;bottom=0;right=0;align=left;spacingLeft=6;overflow=hidden;strokeColor=inherit;fontSize=16;" vertex="1" parent="XuhRDX56pQfsWtt-mXjJ-613">
          <mxGeometry x="111" width="289" height="30" as="geometry">
            <mxRectangle width="289" height="30" as="alternateBounds" />
          </mxGeometry>
        </mxCell>
        <mxCell id="XuhRDX56pQfsWtt-mXjJ-245" value="Classificação Geral (Sub Área) / Área de Estudo" style="shape=table;startSize=30;container=1;collapsible=0;childLayout=tableLayout;fixedRows=1;rowLines=0;fontStyle=0;strokeColor=default;fontSize=16;" vertex="1" parent="1">
          <mxGeometry x="1409" y="940" width="400" height="280" as="geometry" />
        </mxCell>
        <mxCell id="XuhRDX56pQfsWtt-mXjJ-246" value="" style="shape=tableRow;horizontal=0;startSize=0;swimlaneHead=0;swimlaneBody=0;top=0;left=0;bottom=0;right=0;collapsible=0;dropTarget=0;fillColor=none;points=[[0,0.5],[1,0.5]];portConstraint=eastwest;strokeColor=inherit;fontSize=16;" vertex="1" parent="XuhRDX56pQfsWtt-mXjJ-245">
          <mxGeometry y="30" width="400" height="30" as="geometry" />
        </mxCell>
        <mxCell id="XuhRDX56pQfsWtt-mXjJ-247" value="PK, string" style="shape=partialRectangle;html=1;whiteSpace=wrap;connectable=0;fillColor=none;top=0;left=0;bottom=0;right=0;overflow=hidden;pointerEvents=1;strokeColor=inherit;fontSize=16;" vertex="1" parent="XuhRDX56pQfsWtt-mXjJ-246">
          <mxGeometry width="80" height="30" as="geometry">
            <mxRectangle width="80" height="30" as="alternateBounds" />
          </mxGeometry>
        </mxCell>
        <mxCell id="XuhRDX56pQfsWtt-mXjJ-248" value="Nome" style="shape=partialRectangle;html=1;whiteSpace=wrap;connectable=0;fillColor=none;top=0;left=0;bottom=0;right=0;align=left;spacingLeft=6;overflow=hidden;strokeColor=inherit;fontSize=16;" vertex="1" parent="XuhRDX56pQfsWtt-mXjJ-246">
          <mxGeometry x="80" width="320" height="30" as="geometry">
            <mxRectangle width="320" height="30" as="alternateBounds" />
          </mxGeometry>
        </mxCell>
        <mxCell id="XuhRDX56pQfsWtt-mXjJ-249" value="" style="shape=tableRow;horizontal=0;startSize=0;swimlaneHead=0;swimlaneBody=0;top=0;left=0;bottom=0;right=0;collapsible=0;dropTarget=0;fillColor=none;points=[[0,0.5],[1,0.5]];portConstraint=eastwest;strokeColor=inherit;fontSize=16;" vertex="1" parent="XuhRDX56pQfsWtt-mXjJ-245">
          <mxGeometry y="60" width="400" height="30" as="geometry" />
        </mxCell>
        <mxCell id="XuhRDX56pQfsWtt-mXjJ-250" value="FK, string" style="shape=partialRectangle;html=1;whiteSpace=wrap;connectable=0;fillColor=none;top=0;left=0;bottom=0;right=0;overflow=hidden;strokeColor=inherit;fontSize=16;" vertex="1" parent="XuhRDX56pQfsWtt-mXjJ-249">
          <mxGeometry width="80" height="30" as="geometry">
            <mxRectangle width="80" height="30" as="alternateBounds" />
          </mxGeometry>
        </mxCell>
        <mxCell id="XuhRDX56pQfsWtt-mXjJ-251" value="Curso/Conhecimento (Nome)" style="shape=partialRectangle;html=1;whiteSpace=wrap;connectable=0;fillColor=none;top=0;left=0;bottom=0;right=0;align=left;spacingLeft=6;overflow=hidden;strokeColor=inherit;fontSize=16;" vertex="1" parent="XuhRDX56pQfsWtt-mXjJ-249">
          <mxGeometry x="80" width="320" height="30" as="geometry">
            <mxRectangle width="320" height="30" as="alternateBounds" />
          </mxGeometry>
        </mxCell>
        <mxCell id="XuhRDX56pQfsWtt-mXjJ-252" value="" style="shape=tableRow;horizontal=0;startSize=0;swimlaneHead=0;swimlaneBody=0;top=0;left=0;bottom=0;right=0;collapsible=0;dropTarget=0;fillColor=none;points=[[0,0.5],[1,0.5]];portConstraint=eastwest;strokeColor=inherit;fontSize=16;" vertex="1" parent="XuhRDX56pQfsWtt-mXjJ-245">
          <mxGeometry y="90" width="400" height="40" as="geometry" />
        </mxCell>
        <mxCell id="XuhRDX56pQfsWtt-mXjJ-253" value="FK, string" style="shape=partialRectangle;html=1;whiteSpace=wrap;connectable=0;fillColor=none;top=0;left=0;bottom=0;right=0;overflow=hidden;strokeColor=inherit;fontSize=16;" vertex="1" parent="XuhRDX56pQfsWtt-mXjJ-252">
          <mxGeometry width="80" height="40" as="geometry">
            <mxRectangle width="80" height="40" as="alternateBounds" />
          </mxGeometry>
        </mxCell>
        <mxCell id="XuhRDX56pQfsWtt-mXjJ-254" value="Aulas/Fragmentação do Conhecimento (Nome)" style="shape=partialRectangle;html=1;whiteSpace=wrap;connectable=0;fillColor=none;top=0;left=0;bottom=0;right=0;align=left;spacingLeft=6;overflow=hidden;strokeColor=inherit;fontSize=16;" vertex="1" parent="XuhRDX56pQfsWtt-mXjJ-252">
          <mxGeometry x="80" width="320" height="40" as="geometry">
            <mxRectangle width="320" height="40" as="alternateBounds" />
          </mxGeometry>
        </mxCell>
        <mxCell id="XuhRDX56pQfsWtt-mXjJ-309" style="shape=tableRow;horizontal=0;startSize=0;swimlaneHead=0;swimlaneBody=0;top=0;left=0;bottom=0;right=0;collapsible=0;dropTarget=0;fillColor=none;points=[[0,0.5],[1,0.5]];portConstraint=eastwest;strokeColor=inherit;fontSize=16;" vertex="1" parent="XuhRDX56pQfsWtt-mXjJ-245">
          <mxGeometry y="130" width="400" height="30" as="geometry" />
        </mxCell>
        <mxCell id="XuhRDX56pQfsWtt-mXjJ-310" value="FK, string" style="shape=partialRectangle;html=1;whiteSpace=wrap;connectable=0;fillColor=none;top=0;left=0;bottom=0;right=0;overflow=hidden;strokeColor=inherit;fontSize=16;" vertex="1" parent="XuhRDX56pQfsWtt-mXjJ-309">
          <mxGeometry width="80" height="30" as="geometry">
            <mxRectangle width="80" height="30" as="alternateBounds" />
          </mxGeometry>
        </mxCell>
        <mxCell id="XuhRDX56pQfsWtt-mXjJ-311" value="Publicações" style="shape=partialRectangle;html=1;whiteSpace=wrap;connectable=0;fillColor=none;top=0;left=0;bottom=0;right=0;align=left;spacingLeft=6;overflow=hidden;strokeColor=inherit;fontSize=16;" vertex="1" parent="XuhRDX56pQfsWtt-mXjJ-309">
          <mxGeometry x="80" width="320" height="30" as="geometry">
            <mxRectangle width="320" height="30" as="alternateBounds" />
          </mxGeometry>
        </mxCell>
        <mxCell id="XuhRDX56pQfsWtt-mXjJ-312" style="shape=tableRow;horizontal=0;startSize=0;swimlaneHead=0;swimlaneBody=0;top=0;left=0;bottom=0;right=0;collapsible=0;dropTarget=0;fillColor=none;points=[[0,0.5],[1,0.5]];portConstraint=eastwest;strokeColor=inherit;fontSize=16;" vertex="1" parent="XuhRDX56pQfsWtt-mXjJ-245">
          <mxGeometry y="160" width="400" height="30" as="geometry" />
        </mxCell>
        <mxCell id="XuhRDX56pQfsWtt-mXjJ-313" value="FK, string" style="shape=partialRectangle;html=1;whiteSpace=wrap;connectable=0;fillColor=none;top=0;left=0;bottom=0;right=0;overflow=hidden;strokeColor=inherit;fontSize=16;" vertex="1" parent="XuhRDX56pQfsWtt-mXjJ-312">
          <mxGeometry width="80" height="30" as="geometry">
            <mxRectangle width="80" height="30" as="alternateBounds" />
          </mxGeometry>
        </mxCell>
        <mxCell id="XuhRDX56pQfsWtt-mXjJ-314" value="Dicionário de Termos" style="shape=partialRectangle;html=1;whiteSpace=wrap;connectable=0;fillColor=none;top=0;left=0;bottom=0;right=0;align=left;spacingLeft=6;overflow=hidden;strokeColor=inherit;fontSize=16;" vertex="1" parent="XuhRDX56pQfsWtt-mXjJ-312">
          <mxGeometry x="80" width="320" height="30" as="geometry">
            <mxRectangle width="320" height="30" as="alternateBounds" />
          </mxGeometry>
        </mxCell>
        <mxCell id="XuhRDX56pQfsWtt-mXjJ-335" style="shape=tableRow;horizontal=0;startSize=0;swimlaneHead=0;swimlaneBody=0;top=0;left=0;bottom=0;right=0;collapsible=0;dropTarget=0;fillColor=none;points=[[0,0.5],[1,0.5]];portConstraint=eastwest;strokeColor=inherit;fontSize=16;" vertex="1" parent="XuhRDX56pQfsWtt-mXjJ-245">
          <mxGeometry y="190" width="400" height="30" as="geometry" />
        </mxCell>
        <mxCell id="XuhRDX56pQfsWtt-mXjJ-336" value="FK, string" style="shape=partialRectangle;html=1;whiteSpace=wrap;connectable=0;fillColor=none;top=0;left=0;bottom=0;right=0;overflow=hidden;strokeColor=inherit;fontSize=16;" vertex="1" parent="XuhRDX56pQfsWtt-mXjJ-335">
          <mxGeometry width="80" height="30" as="geometry">
            <mxRectangle width="80" height="30" as="alternateBounds" />
          </mxGeometry>
        </mxCell>
        <mxCell id="XuhRDX56pQfsWtt-mXjJ-337" value="Projetos" style="shape=partialRectangle;html=1;whiteSpace=wrap;connectable=0;fillColor=none;top=0;left=0;bottom=0;right=0;align=left;spacingLeft=6;overflow=hidden;strokeColor=inherit;fontSize=16;" vertex="1" parent="XuhRDX56pQfsWtt-mXjJ-335">
          <mxGeometry x="80" width="320" height="30" as="geometry">
            <mxRectangle width="320" height="30" as="alternateBounds" />
          </mxGeometry>
        </mxCell>
        <mxCell id="XuhRDX56pQfsWtt-mXjJ-465" style="shape=tableRow;horizontal=0;startSize=0;swimlaneHead=0;swimlaneBody=0;top=0;left=0;bottom=0;right=0;collapsible=0;dropTarget=0;fillColor=none;points=[[0,0.5],[1,0.5]];portConstraint=eastwest;strokeColor=inherit;fontSize=16;" vertex="1" parent="XuhRDX56pQfsWtt-mXjJ-245">
          <mxGeometry y="220" width="400" height="30" as="geometry" />
        </mxCell>
        <mxCell id="XuhRDX56pQfsWtt-mXjJ-466" value="FK, string" style="shape=partialRectangle;html=1;whiteSpace=wrap;connectable=0;fillColor=none;top=0;left=0;bottom=0;right=0;overflow=hidden;strokeColor=inherit;fontSize=16;" vertex="1" parent="XuhRDX56pQfsWtt-mXjJ-465">
          <mxGeometry width="80" height="30" as="geometry">
            <mxRectangle width="80" height="30" as="alternateBounds" />
          </mxGeometry>
        </mxCell>
        <mxCell id="XuhRDX56pQfsWtt-mXjJ-467" value="Tarefas dos Projetos" style="shape=partialRectangle;html=1;whiteSpace=wrap;connectable=0;fillColor=none;top=0;left=0;bottom=0;right=0;align=left;spacingLeft=6;overflow=hidden;strokeColor=inherit;fontSize=16;" vertex="1" parent="XuhRDX56pQfsWtt-mXjJ-465">
          <mxGeometry x="80" width="320" height="30" as="geometry">
            <mxRectangle width="320" height="30" as="alternateBounds" />
          </mxGeometry>
        </mxCell>
        <mxCell id="XuhRDX56pQfsWtt-mXjJ-675" style="shape=tableRow;horizontal=0;startSize=0;swimlaneHead=0;swimlaneBody=0;top=0;left=0;bottom=0;right=0;collapsible=0;dropTarget=0;fillColor=none;points=[[0,0.5],[1,0.5]];portConstraint=eastwest;strokeColor=inherit;fontSize=16;" vertex="1" parent="XuhRDX56pQfsWtt-mXjJ-245">
          <mxGeometry y="250" width="400" height="30" as="geometry" />
        </mxCell>
        <mxCell id="XuhRDX56pQfsWtt-mXjJ-676" value="FK, string" style="shape=partialRectangle;html=1;whiteSpace=wrap;connectable=0;fillColor=none;top=0;left=0;bottom=0;right=0;overflow=hidden;strokeColor=inherit;fontSize=16;" vertex="1" parent="XuhRDX56pQfsWtt-mXjJ-675">
          <mxGeometry width="80" height="30" as="geometry">
            <mxRectangle width="80" height="30" as="alternateBounds" />
          </mxGeometry>
        </mxCell>
        <mxCell id="XuhRDX56pQfsWtt-mXjJ-677" value="Notas Diversasa" style="shape=partialRectangle;html=1;whiteSpace=wrap;connectable=0;fillColor=none;top=0;left=0;bottom=0;right=0;align=left;spacingLeft=6;overflow=hidden;strokeColor=inherit;fontSize=16;" vertex="1" parent="XuhRDX56pQfsWtt-mXjJ-675">
          <mxGeometry x="80" width="320" height="30" as="geometry">
            <mxRectangle width="320" height="30" as="alternateBounds" />
          </mxGeometry>
        </mxCell>
        <mxCell id="XuhRDX56pQfsWtt-mXjJ-256" value="" style="edgeStyle=orthogonalEdgeStyle;fontSize=12;html=1;endArrow=ERmany;startArrow=ERmany;rounded=0;entryX=1;entryY=0.5;entryDx=0;entryDy=0;exitX=0;exitY=0.5;exitDx=0;exitDy=0;" edge="1" parent="1" source="XuhRDX56pQfsWtt-mXjJ-252" target="XuhRDX56pQfsWtt-mXjJ-207">
          <mxGeometry width="100" height="100" relative="1" as="geometry">
            <mxPoint x="499" y="990" as="sourcePoint" />
            <mxPoint x="539" y="780" as="targetPoint" />
            <Array as="points">
              <mxPoint x="1359" y="1050" />
              <mxPoint x="1359" y="775" />
            </Array>
          </mxGeometry>
        </mxCell>
        <mxCell id="XuhRDX56pQfsWtt-mXjJ-257" value="" style="edgeStyle=orthogonalEdgeStyle;fontSize=12;html=1;endArrow=ERmany;startArrow=ERmany;rounded=0;exitX=1;exitY=0.5;exitDx=0;exitDy=0;entryX=0;entryY=0.5;entryDx=0;entryDy=0;" edge="1" parent="1" source="XuhRDX56pQfsWtt-mXjJ-96" target="XuhRDX56pQfsWtt-mXjJ-249">
          <mxGeometry width="100" height="100" relative="1" as="geometry">
            <mxPoint x="409" y="1070" as="sourcePoint" />
            <mxPoint x="509" y="970" as="targetPoint" />
          </mxGeometry>
        </mxCell>
        <mxCell id="XuhRDX56pQfsWtt-mXjJ-259" value="" style="edgeStyle=orthogonalEdgeStyle;fontSize=12;html=1;endArrow=ERoneToMany;rounded=0;entryX=0;entryY=0.5;entryDx=0;entryDy=0;exitX=1;exitY=0.5;exitDx=0;exitDy=0;" edge="1" parent="1" source="XuhRDX56pQfsWtt-mXjJ-29" target="XuhRDX56pQfsWtt-mXjJ-213">
          <mxGeometry width="100" height="100" relative="1" as="geometry">
            <mxPoint x="449" y="720" as="sourcePoint" />
            <mxPoint x="559" y="820" as="targetPoint" />
            <Array as="points">
              <mxPoint x="439" y="595" />
              <mxPoint x="439" y="835" />
            </Array>
          </mxGeometry>
        </mxCell>
        <mxCell id="XuhRDX56pQfsWtt-mXjJ-260" value="" style="edgeStyle=orthogonalEdgeStyle;fontSize=12;html=1;endArrow=ERoneToMany;rounded=0;entryX=1;entryY=0.5;entryDx=0;entryDy=0;exitX=0;exitY=0.5;exitDx=0;exitDy=0;" edge="1" parent="1" source="XuhRDX56pQfsWtt-mXjJ-216" target="XuhRDX56pQfsWtt-mXjJ-23">
          <mxGeometry width="100" height="100" relative="1" as="geometry">
            <mxPoint x="419" y="820" as="sourcePoint" />
            <mxPoint x="519" y="720" as="targetPoint" />
            <Array as="points">
              <mxPoint x="459" y="865" />
              <mxPoint x="459" y="535" />
            </Array>
          </mxGeometry>
        </mxCell>
        <mxCell id="XuhRDX56pQfsWtt-mXjJ-272" value="Publicações" style="shape=table;startSize=30;container=1;collapsible=0;childLayout=tableLayout;fixedRows=1;rowLines=0;fontStyle=0;strokeColor=default;fontSize=16;" vertex="1" parent="1">
          <mxGeometry x="10" y="1330" width="400" height="390" as="geometry" />
        </mxCell>
        <mxCell id="XuhRDX56pQfsWtt-mXjJ-273" value="" style="shape=tableRow;horizontal=0;startSize=0;swimlaneHead=0;swimlaneBody=0;top=0;left=0;bottom=0;right=0;collapsible=0;dropTarget=0;fillColor=none;points=[[0,0.5],[1,0.5]];portConstraint=eastwest;strokeColor=inherit;fontSize=16;" vertex="1" parent="XuhRDX56pQfsWtt-mXjJ-272">
          <mxGeometry y="30" width="400" height="30" as="geometry" />
        </mxCell>
        <mxCell id="XuhRDX56pQfsWtt-mXjJ-274" value="PK, string" style="shape=partialRectangle;html=1;whiteSpace=wrap;connectable=0;fillColor=none;top=0;left=0;bottom=0;right=0;overflow=hidden;pointerEvents=1;strokeColor=inherit;fontSize=16;" vertex="1" parent="XuhRDX56pQfsWtt-mXjJ-273">
          <mxGeometry width="89" height="30" as="geometry">
            <mxRectangle width="89" height="30" as="alternateBounds" />
          </mxGeometry>
        </mxCell>
        <mxCell id="XuhRDX56pQfsWtt-mXjJ-275" value="Nome" style="shape=partialRectangle;html=1;whiteSpace=wrap;connectable=0;fillColor=none;top=0;left=0;bottom=0;right=0;align=left;spacingLeft=6;overflow=hidden;strokeColor=inherit;fontSize=16;" vertex="1" parent="XuhRDX56pQfsWtt-mXjJ-273">
          <mxGeometry x="89" width="311" height="30" as="geometry">
            <mxRectangle width="311" height="30" as="alternateBounds" />
          </mxGeometry>
        </mxCell>
        <mxCell id="XuhRDX56pQfsWtt-mXjJ-276" value="" style="shape=tableRow;horizontal=0;startSize=0;swimlaneHead=0;swimlaneBody=0;top=0;left=0;bottom=0;right=0;collapsible=0;dropTarget=0;fillColor=none;points=[[0,0.5],[1,0.5]];portConstraint=eastwest;strokeColor=inherit;fontSize=16;" vertex="1" parent="XuhRDX56pQfsWtt-mXjJ-272">
          <mxGeometry y="60" width="400" height="30" as="geometry" />
        </mxCell>
        <mxCell id="XuhRDX56pQfsWtt-mXjJ-277" value="FK, string" style="shape=partialRectangle;html=1;whiteSpace=wrap;connectable=0;fillColor=none;top=0;left=0;bottom=0;right=0;overflow=hidden;strokeColor=inherit;fontSize=16;" vertex="1" parent="XuhRDX56pQfsWtt-mXjJ-276">
          <mxGeometry width="89" height="30" as="geometry">
            <mxRectangle width="89" height="30" as="alternateBounds" />
          </mxGeometry>
        </mxCell>
        <mxCell id="XuhRDX56pQfsWtt-mXjJ-278" value="Status" style="shape=partialRectangle;html=1;whiteSpace=wrap;connectable=0;fillColor=none;top=0;left=0;bottom=0;right=0;align=left;spacingLeft=6;overflow=hidden;strokeColor=inherit;fontSize=16;" vertex="1" parent="XuhRDX56pQfsWtt-mXjJ-276">
          <mxGeometry x="89" width="311" height="30" as="geometry">
            <mxRectangle width="311" height="30" as="alternateBounds" />
          </mxGeometry>
        </mxCell>
        <mxCell id="XuhRDX56pQfsWtt-mXjJ-279" value="" style="shape=tableRow;horizontal=0;startSize=0;swimlaneHead=0;swimlaneBody=0;top=0;left=0;bottom=0;right=0;collapsible=0;dropTarget=0;fillColor=none;points=[[0,0.5],[1,0.5]];portConstraint=eastwest;strokeColor=inherit;fontSize=16;" vertex="1" parent="XuhRDX56pQfsWtt-mXjJ-272">
          <mxGeometry y="90" width="400" height="30" as="geometry" />
        </mxCell>
        <mxCell id="XuhRDX56pQfsWtt-mXjJ-280" value=", date" style="shape=partialRectangle;html=1;whiteSpace=wrap;connectable=0;fillColor=none;top=0;left=0;bottom=0;right=0;overflow=hidden;strokeColor=inherit;fontSize=16;" vertex="1" parent="XuhRDX56pQfsWtt-mXjJ-279">
          <mxGeometry width="89" height="30" as="geometry">
            <mxRectangle width="89" height="30" as="alternateBounds" />
          </mxGeometry>
        </mxCell>
        <mxCell id="XuhRDX56pQfsWtt-mXjJ-281" value="Início Escrita" style="shape=partialRectangle;html=1;whiteSpace=wrap;connectable=0;fillColor=none;top=0;left=0;bottom=0;right=0;align=left;spacingLeft=6;overflow=hidden;strokeColor=inherit;fontSize=16;" vertex="1" parent="XuhRDX56pQfsWtt-mXjJ-279">
          <mxGeometry x="89" width="311" height="30" as="geometry">
            <mxRectangle width="311" height="30" as="alternateBounds" />
          </mxGeometry>
        </mxCell>
        <mxCell id="XuhRDX56pQfsWtt-mXjJ-283" value="" style="shape=tableRow;horizontal=0;startSize=0;swimlaneHead=0;swimlaneBody=0;top=0;left=0;bottom=0;right=0;collapsible=0;dropTarget=0;fillColor=none;points=[[0,0.5],[1,0.5]];portConstraint=eastwest;strokeColor=inherit;fontSize=16;" vertex="1" parent="XuhRDX56pQfsWtt-mXjJ-272">
          <mxGeometry y="120" width="400" height="30" as="geometry" />
        </mxCell>
        <mxCell id="XuhRDX56pQfsWtt-mXjJ-284" value=", date" style="shape=partialRectangle;html=1;whiteSpace=wrap;connectable=0;fillColor=none;top=0;left=0;bottom=0;right=0;overflow=hidden;strokeColor=inherit;fontSize=16;" vertex="1" parent="XuhRDX56pQfsWtt-mXjJ-283">
          <mxGeometry width="89" height="30" as="geometry">
            <mxRectangle width="89" height="30" as="alternateBounds" />
          </mxGeometry>
        </mxCell>
        <mxCell id="XuhRDX56pQfsWtt-mXjJ-285" value="Escrita Final" style="shape=partialRectangle;html=1;whiteSpace=wrap;connectable=0;fillColor=none;top=0;left=0;bottom=0;right=0;align=left;spacingLeft=6;overflow=hidden;strokeColor=inherit;fontSize=16;" vertex="1" parent="XuhRDX56pQfsWtt-mXjJ-283">
          <mxGeometry x="89" width="311" height="30" as="geometry">
            <mxRectangle width="311" height="30" as="alternateBounds" />
          </mxGeometry>
        </mxCell>
        <mxCell id="XuhRDX56pQfsWtt-mXjJ-286" style="shape=tableRow;horizontal=0;startSize=0;swimlaneHead=0;swimlaneBody=0;top=0;left=0;bottom=0;right=0;collapsible=0;dropTarget=0;fillColor=none;points=[[0,0.5],[1,0.5]];portConstraint=eastwest;strokeColor=inherit;fontSize=16;" vertex="1" parent="XuhRDX56pQfsWtt-mXjJ-272">
          <mxGeometry y="150" width="400" height="30" as="geometry" />
        </mxCell>
        <mxCell id="XuhRDX56pQfsWtt-mXjJ-287" value=", date" style="shape=partialRectangle;html=1;whiteSpace=wrap;connectable=0;fillColor=none;top=0;left=0;bottom=0;right=0;overflow=hidden;strokeColor=inherit;fontSize=16;" vertex="1" parent="XuhRDX56pQfsWtt-mXjJ-286">
          <mxGeometry width="89" height="30" as="geometry">
            <mxRectangle width="89" height="30" as="alternateBounds" />
          </mxGeometry>
        </mxCell>
        <mxCell id="XuhRDX56pQfsWtt-mXjJ-288" value="Início Revisão" style="shape=partialRectangle;html=1;whiteSpace=wrap;connectable=0;fillColor=none;top=0;left=0;bottom=0;right=0;align=left;spacingLeft=6;overflow=hidden;strokeColor=inherit;fontSize=16;" vertex="1" parent="XuhRDX56pQfsWtt-mXjJ-286">
          <mxGeometry x="89" width="311" height="30" as="geometry">
            <mxRectangle width="311" height="30" as="alternateBounds" />
          </mxGeometry>
        </mxCell>
        <mxCell id="XuhRDX56pQfsWtt-mXjJ-289" style="shape=tableRow;horizontal=0;startSize=0;swimlaneHead=0;swimlaneBody=0;top=0;left=0;bottom=0;right=0;collapsible=0;dropTarget=0;fillColor=none;points=[[0,0.5],[1,0.5]];portConstraint=eastwest;strokeColor=inherit;fontSize=16;" vertex="1" parent="XuhRDX56pQfsWtt-mXjJ-272">
          <mxGeometry y="180" width="400" height="30" as="geometry" />
        </mxCell>
        <mxCell id="XuhRDX56pQfsWtt-mXjJ-290" value=", date" style="shape=partialRectangle;html=1;whiteSpace=wrap;connectable=0;fillColor=none;top=0;left=0;bottom=0;right=0;overflow=hidden;strokeColor=inherit;fontSize=16;" vertex="1" parent="XuhRDX56pQfsWtt-mXjJ-289">
          <mxGeometry width="89" height="30" as="geometry">
            <mxRectangle width="89" height="30" as="alternateBounds" />
          </mxGeometry>
        </mxCell>
        <mxCell id="XuhRDX56pQfsWtt-mXjJ-291" value="Revisão Final" style="shape=partialRectangle;html=1;whiteSpace=wrap;connectable=0;fillColor=none;top=0;left=0;bottom=0;right=0;align=left;spacingLeft=6;overflow=hidden;strokeColor=inherit;fontSize=16;" vertex="1" parent="XuhRDX56pQfsWtt-mXjJ-289">
          <mxGeometry x="89" width="311" height="30" as="geometry">
            <mxRectangle width="311" height="30" as="alternateBounds" />
          </mxGeometry>
        </mxCell>
        <mxCell id="XuhRDX56pQfsWtt-mXjJ-292" style="shape=tableRow;horizontal=0;startSize=0;swimlaneHead=0;swimlaneBody=0;top=0;left=0;bottom=0;right=0;collapsible=0;dropTarget=0;fillColor=none;points=[[0,0.5],[1,0.5]];portConstraint=eastwest;strokeColor=inherit;fontSize=16;" vertex="1" parent="XuhRDX56pQfsWtt-mXjJ-272">
          <mxGeometry y="210" width="400" height="30" as="geometry" />
        </mxCell>
        <mxCell id="XuhRDX56pQfsWtt-mXjJ-293" value=", date" style="shape=partialRectangle;html=1;whiteSpace=wrap;connectable=0;fillColor=none;top=0;left=0;bottom=0;right=0;overflow=hidden;strokeColor=inherit;fontSize=16;" vertex="1" parent="XuhRDX56pQfsWtt-mXjJ-292">
          <mxGeometry width="89" height="30" as="geometry">
            <mxRectangle width="89" height="30" as="alternateBounds" />
          </mxGeometry>
        </mxCell>
        <mxCell id="XuhRDX56pQfsWtt-mXjJ-294" value="Previsão de Publicação" style="shape=partialRectangle;html=1;whiteSpace=wrap;connectable=0;fillColor=none;top=0;left=0;bottom=0;right=0;align=left;spacingLeft=6;overflow=hidden;strokeColor=inherit;fontSize=16;" vertex="1" parent="XuhRDX56pQfsWtt-mXjJ-292">
          <mxGeometry x="89" width="311" height="30" as="geometry">
            <mxRectangle width="311" height="30" as="alternateBounds" />
          </mxGeometry>
        </mxCell>
        <mxCell id="XuhRDX56pQfsWtt-mXjJ-295" style="shape=tableRow;horizontal=0;startSize=0;swimlaneHead=0;swimlaneBody=0;top=0;left=0;bottom=0;right=0;collapsible=0;dropTarget=0;fillColor=none;points=[[0,0.5],[1,0.5]];portConstraint=eastwest;strokeColor=inherit;fontSize=16;" vertex="1" parent="XuhRDX56pQfsWtt-mXjJ-272">
          <mxGeometry y="240" width="400" height="30" as="geometry" />
        </mxCell>
        <mxCell id="XuhRDX56pQfsWtt-mXjJ-296" value=", date" style="shape=partialRectangle;html=1;whiteSpace=wrap;connectable=0;fillColor=none;top=0;left=0;bottom=0;right=0;overflow=hidden;strokeColor=inherit;fontSize=16;" vertex="1" parent="XuhRDX56pQfsWtt-mXjJ-295">
          <mxGeometry width="89" height="30" as="geometry">
            <mxRectangle width="89" height="30" as="alternateBounds" />
          </mxGeometry>
        </mxCell>
        <mxCell id="XuhRDX56pQfsWtt-mXjJ-297" value="Publicado em" style="shape=partialRectangle;html=1;whiteSpace=wrap;connectable=0;fillColor=none;top=0;left=0;bottom=0;right=0;align=left;spacingLeft=6;overflow=hidden;strokeColor=inherit;fontSize=16;" vertex="1" parent="XuhRDX56pQfsWtt-mXjJ-295">
          <mxGeometry x="89" width="311" height="30" as="geometry">
            <mxRectangle width="311" height="30" as="alternateBounds" />
          </mxGeometry>
        </mxCell>
        <mxCell id="XuhRDX56pQfsWtt-mXjJ-298" style="shape=tableRow;horizontal=0;startSize=0;swimlaneHead=0;swimlaneBody=0;top=0;left=0;bottom=0;right=0;collapsible=0;dropTarget=0;fillColor=none;points=[[0,0.5],[1,0.5]];portConstraint=eastwest;strokeColor=inherit;fontSize=16;" vertex="1" parent="XuhRDX56pQfsWtt-mXjJ-272">
          <mxGeometry y="270" width="400" height="30" as="geometry" />
        </mxCell>
        <mxCell id="XuhRDX56pQfsWtt-mXjJ-299" value=", string" style="shape=partialRectangle;html=1;whiteSpace=wrap;connectable=0;fillColor=none;top=0;left=0;bottom=0;right=0;overflow=hidden;strokeColor=inherit;fontSize=16;" vertex="1" parent="XuhRDX56pQfsWtt-mXjJ-298">
          <mxGeometry width="89" height="30" as="geometry">
            <mxRectangle width="89" height="30" as="alternateBounds" />
          </mxGeometry>
        </mxCell>
        <mxCell id="XuhRDX56pQfsWtt-mXjJ-300" value="Rede" style="shape=partialRectangle;html=1;whiteSpace=wrap;connectable=0;fillColor=none;top=0;left=0;bottom=0;right=0;align=left;spacingLeft=6;overflow=hidden;strokeColor=inherit;fontSize=16;" vertex="1" parent="XuhRDX56pQfsWtt-mXjJ-298">
          <mxGeometry x="89" width="311" height="30" as="geometry">
            <mxRectangle width="311" height="30" as="alternateBounds" />
          </mxGeometry>
        </mxCell>
        <mxCell id="XuhRDX56pQfsWtt-mXjJ-301" style="shape=tableRow;horizontal=0;startSize=0;swimlaneHead=0;swimlaneBody=0;top=0;left=0;bottom=0;right=0;collapsible=0;dropTarget=0;fillColor=none;points=[[0,0.5],[1,0.5]];portConstraint=eastwest;strokeColor=inherit;fontSize=16;" vertex="1" parent="XuhRDX56pQfsWtt-mXjJ-272">
          <mxGeometry y="300" width="400" height="30" as="geometry" />
        </mxCell>
        <mxCell id="XuhRDX56pQfsWtt-mXjJ-302" value=", string" style="shape=partialRectangle;html=1;whiteSpace=wrap;connectable=0;fillColor=none;top=0;left=0;bottom=0;right=0;overflow=hidden;strokeColor=inherit;fontSize=16;" vertex="1" parent="XuhRDX56pQfsWtt-mXjJ-301">
          <mxGeometry width="89" height="30" as="geometry">
            <mxRectangle width="89" height="30" as="alternateBounds" />
          </mxGeometry>
        </mxCell>
        <mxCell id="XuhRDX56pQfsWtt-mXjJ-303" value="Links" style="shape=partialRectangle;html=1;whiteSpace=wrap;connectable=0;fillColor=none;top=0;left=0;bottom=0;right=0;align=left;spacingLeft=6;overflow=hidden;strokeColor=inherit;fontSize=16;" vertex="1" parent="XuhRDX56pQfsWtt-mXjJ-301">
          <mxGeometry x="89" width="311" height="30" as="geometry">
            <mxRectangle width="311" height="30" as="alternateBounds" />
          </mxGeometry>
        </mxCell>
        <mxCell id="XuhRDX56pQfsWtt-mXjJ-304" style="shape=tableRow;horizontal=0;startSize=0;swimlaneHead=0;swimlaneBody=0;top=0;left=0;bottom=0;right=0;collapsible=0;dropTarget=0;fillColor=none;points=[[0,0.5],[1,0.5]];portConstraint=eastwest;strokeColor=inherit;fontSize=16;" vertex="1" parent="XuhRDX56pQfsWtt-mXjJ-272">
          <mxGeometry y="330" width="400" height="30" as="geometry" />
        </mxCell>
        <mxCell id="XuhRDX56pQfsWtt-mXjJ-305" value="FK, string" style="shape=partialRectangle;html=1;whiteSpace=wrap;connectable=0;fillColor=none;top=0;left=0;bottom=0;right=0;overflow=hidden;strokeColor=inherit;fontSize=16;" vertex="1" parent="XuhRDX56pQfsWtt-mXjJ-304">
          <mxGeometry width="89" height="30" as="geometry">
            <mxRectangle width="89" height="30" as="alternateBounds" />
          </mxGeometry>
        </mxCell>
        <mxCell id="XuhRDX56pQfsWtt-mXjJ-306" value="Classificação Geral (Sub Área)" style="shape=partialRectangle;html=1;whiteSpace=wrap;connectable=0;fillColor=none;top=0;left=0;bottom=0;right=0;align=left;spacingLeft=6;overflow=hidden;strokeColor=inherit;fontSize=16;" vertex="1" parent="XuhRDX56pQfsWtt-mXjJ-304">
          <mxGeometry x="89" width="311" height="30" as="geometry">
            <mxRectangle width="311" height="30" as="alternateBounds" />
          </mxGeometry>
        </mxCell>
        <mxCell id="XuhRDX56pQfsWtt-mXjJ-363" style="shape=tableRow;horizontal=0;startSize=0;swimlaneHead=0;swimlaneBody=0;top=0;left=0;bottom=0;right=0;collapsible=0;dropTarget=0;fillColor=none;points=[[0,0.5],[1,0.5]];portConstraint=eastwest;strokeColor=inherit;fontSize=16;" vertex="1" parent="XuhRDX56pQfsWtt-mXjJ-272">
          <mxGeometry y="360" width="400" height="30" as="geometry" />
        </mxCell>
        <mxCell id="XuhRDX56pQfsWtt-mXjJ-364" value="FK, string" style="shape=partialRectangle;html=1;whiteSpace=wrap;connectable=0;fillColor=none;top=0;left=0;bottom=0;right=0;overflow=hidden;strokeColor=inherit;fontSize=16;" vertex="1" parent="XuhRDX56pQfsWtt-mXjJ-363">
          <mxGeometry width="89" height="30" as="geometry">
            <mxRectangle width="89" height="30" as="alternateBounds" />
          </mxGeometry>
        </mxCell>
        <mxCell id="XuhRDX56pQfsWtt-mXjJ-365" value="Prioridade (Prioridade)" style="shape=partialRectangle;html=1;whiteSpace=wrap;connectable=0;fillColor=none;top=0;left=0;bottom=0;right=0;align=left;spacingLeft=6;overflow=hidden;strokeColor=inherit;fontSize=16;" vertex="1" parent="XuhRDX56pQfsWtt-mXjJ-363">
          <mxGeometry x="89" width="311" height="30" as="geometry">
            <mxRectangle width="311" height="30" as="alternateBounds" />
          </mxGeometry>
        </mxCell>
        <mxCell id="XuhRDX56pQfsWtt-mXjJ-308" value="" style="edgeStyle=orthogonalEdgeStyle;fontSize=12;html=1;endArrow=ERmany;startArrow=ERmany;rounded=0;entryX=1;entryY=0.5;entryDx=0;entryDy=0;exitX=0;exitY=0.5;exitDx=0;exitDy=0;" edge="1" parent="1" source="XuhRDX56pQfsWtt-mXjJ-309" target="XuhRDX56pQfsWtt-mXjJ-304">
          <mxGeometry width="100" height="100" relative="1" as="geometry">
            <mxPoint x="1339" y="1085" as="sourcePoint" />
            <mxPoint x="1189" y="560" as="targetPoint" />
            <Array as="points">
              <mxPoint x="1359" y="1085" />
              <mxPoint x="1359" y="1675" />
            </Array>
          </mxGeometry>
        </mxCell>
        <mxCell id="XuhRDX56pQfsWtt-mXjJ-324" value="Dicionário de Termos" style="shape=table;startSize=30;container=1;collapsible=0;childLayout=tableLayout;fixedRows=1;rowLines=0;fontStyle=0;strokeColor=default;fontSize=16;" vertex="1" parent="1">
          <mxGeometry x="2089" y="1010" width="400" height="120" as="geometry" />
        </mxCell>
        <mxCell id="XuhRDX56pQfsWtt-mXjJ-325" value="" style="shape=tableRow;horizontal=0;startSize=0;swimlaneHead=0;swimlaneBody=0;top=0;left=0;bottom=0;right=0;collapsible=0;dropTarget=0;fillColor=none;points=[[0,0.5],[1,0.5]];portConstraint=eastwest;strokeColor=inherit;fontSize=16;" vertex="1" parent="XuhRDX56pQfsWtt-mXjJ-324">
          <mxGeometry y="30" width="400" height="30" as="geometry" />
        </mxCell>
        <mxCell id="XuhRDX56pQfsWtt-mXjJ-326" value="PK, string" style="shape=partialRectangle;html=1;whiteSpace=wrap;connectable=0;fillColor=none;top=0;left=0;bottom=0;right=0;overflow=hidden;pointerEvents=1;strokeColor=inherit;fontSize=16;" vertex="1" parent="XuhRDX56pQfsWtt-mXjJ-325">
          <mxGeometry width="89" height="30" as="geometry">
            <mxRectangle width="89" height="30" as="alternateBounds" />
          </mxGeometry>
        </mxCell>
        <mxCell id="XuhRDX56pQfsWtt-mXjJ-327" value="Nome Termos" style="shape=partialRectangle;html=1;whiteSpace=wrap;connectable=0;fillColor=none;top=0;left=0;bottom=0;right=0;align=left;spacingLeft=6;overflow=hidden;strokeColor=inherit;fontSize=16;" vertex="1" parent="XuhRDX56pQfsWtt-mXjJ-325">
          <mxGeometry x="89" width="311" height="30" as="geometry">
            <mxRectangle width="311" height="30" as="alternateBounds" />
          </mxGeometry>
        </mxCell>
        <mxCell id="XuhRDX56pQfsWtt-mXjJ-328" value="" style="shape=tableRow;horizontal=0;startSize=0;swimlaneHead=0;swimlaneBody=0;top=0;left=0;bottom=0;right=0;collapsible=0;dropTarget=0;fillColor=none;points=[[0,0.5],[1,0.5]];portConstraint=eastwest;strokeColor=inherit;fontSize=16;" vertex="1" parent="XuhRDX56pQfsWtt-mXjJ-324">
          <mxGeometry y="60" width="400" height="30" as="geometry" />
        </mxCell>
        <mxCell id="XuhRDX56pQfsWtt-mXjJ-329" value=", string" style="shape=partialRectangle;html=1;whiteSpace=wrap;connectable=0;fillColor=none;top=0;left=0;bottom=0;right=0;overflow=hidden;strokeColor=inherit;fontSize=16;" vertex="1" parent="XuhRDX56pQfsWtt-mXjJ-328">
          <mxGeometry width="89" height="30" as="geometry">
            <mxRectangle width="89" height="30" as="alternateBounds" />
          </mxGeometry>
        </mxCell>
        <mxCell id="XuhRDX56pQfsWtt-mXjJ-330" value="Breve Descrição" style="shape=partialRectangle;html=1;whiteSpace=wrap;connectable=0;fillColor=none;top=0;left=0;bottom=0;right=0;align=left;spacingLeft=6;overflow=hidden;strokeColor=inherit;fontSize=16;" vertex="1" parent="XuhRDX56pQfsWtt-mXjJ-328">
          <mxGeometry x="89" width="311" height="30" as="geometry">
            <mxRectangle width="311" height="30" as="alternateBounds" />
          </mxGeometry>
        </mxCell>
        <mxCell id="XuhRDX56pQfsWtt-mXjJ-331" value="" style="shape=tableRow;horizontal=0;startSize=0;swimlaneHead=0;swimlaneBody=0;top=0;left=0;bottom=0;right=0;collapsible=0;dropTarget=0;fillColor=none;points=[[0,0.5],[1,0.5]];portConstraint=eastwest;strokeColor=inherit;fontSize=16;" vertex="1" parent="XuhRDX56pQfsWtt-mXjJ-324">
          <mxGeometry y="90" width="400" height="30" as="geometry" />
        </mxCell>
        <mxCell id="XuhRDX56pQfsWtt-mXjJ-332" value="FK, string" style="shape=partialRectangle;html=1;whiteSpace=wrap;connectable=0;fillColor=none;top=0;left=0;bottom=0;right=0;overflow=hidden;strokeColor=inherit;fontSize=16;" vertex="1" parent="XuhRDX56pQfsWtt-mXjJ-331">
          <mxGeometry width="89" height="30" as="geometry">
            <mxRectangle width="89" height="30" as="alternateBounds" />
          </mxGeometry>
        </mxCell>
        <mxCell id="XuhRDX56pQfsWtt-mXjJ-333" value="Classificação Geral (Sub Área)" style="shape=partialRectangle;html=1;whiteSpace=wrap;connectable=0;fillColor=none;top=0;left=0;bottom=0;right=0;align=left;spacingLeft=6;overflow=hidden;strokeColor=inherit;fontSize=16;" vertex="1" parent="XuhRDX56pQfsWtt-mXjJ-331">
          <mxGeometry x="89" width="311" height="30" as="geometry">
            <mxRectangle width="311" height="30" as="alternateBounds" />
          </mxGeometry>
        </mxCell>
        <mxCell id="XuhRDX56pQfsWtt-mXjJ-334" value="" style="edgeStyle=orthogonalEdgeStyle;fontSize=12;html=1;endArrow=ERmany;startArrow=ERmany;rounded=0;entryX=0;entryY=0.5;entryDx=0;entryDy=0;exitX=1;exitY=0.5;exitDx=0;exitDy=0;" edge="1" parent="1" source="XuhRDX56pQfsWtt-mXjJ-312" target="XuhRDX56pQfsWtt-mXjJ-331">
          <mxGeometry width="100" height="100" relative="1" as="geometry">
            <mxPoint x="1349" y="1120" as="sourcePoint" />
            <mxPoint x="1169" y="1040" as="targetPoint" />
            <Array as="points">
              <mxPoint x="1869" y="1115" />
              <mxPoint x="1869" y="1115" />
            </Array>
          </mxGeometry>
        </mxCell>
        <mxCell id="XuhRDX56pQfsWtt-mXjJ-338" value="Projetos" style="shape=table;startSize=30;container=1;collapsible=0;childLayout=tableLayout;fixedRows=1;rowLines=0;fontStyle=0;strokeColor=default;fontSize=16;" vertex="1" parent="1">
          <mxGeometry x="10" y="10" width="400" height="420" as="geometry" />
        </mxCell>
        <mxCell id="XuhRDX56pQfsWtt-mXjJ-339" value="" style="shape=tableRow;horizontal=0;startSize=0;swimlaneHead=0;swimlaneBody=0;top=0;left=0;bottom=0;right=0;collapsible=0;dropTarget=0;fillColor=none;points=[[0,0.5],[1,0.5]];portConstraint=eastwest;strokeColor=inherit;fontSize=16;" vertex="1" parent="XuhRDX56pQfsWtt-mXjJ-338">
          <mxGeometry y="30" width="400" height="30" as="geometry" />
        </mxCell>
        <mxCell id="XuhRDX56pQfsWtt-mXjJ-340" value="PK, string" style="shape=partialRectangle;html=1;whiteSpace=wrap;connectable=0;fillColor=none;top=0;left=0;bottom=0;right=0;overflow=hidden;pointerEvents=1;strokeColor=inherit;fontSize=16;" vertex="1" parent="XuhRDX56pQfsWtt-mXjJ-339">
          <mxGeometry width="89" height="30" as="geometry">
            <mxRectangle width="89" height="30" as="alternateBounds" />
          </mxGeometry>
        </mxCell>
        <mxCell id="XuhRDX56pQfsWtt-mXjJ-341" value="Nome" style="shape=partialRectangle;html=1;whiteSpace=wrap;connectable=0;fillColor=none;top=0;left=0;bottom=0;right=0;align=left;spacingLeft=6;overflow=hidden;strokeColor=inherit;fontSize=16;" vertex="1" parent="XuhRDX56pQfsWtt-mXjJ-339">
          <mxGeometry x="89" width="311" height="30" as="geometry">
            <mxRectangle width="311" height="30" as="alternateBounds" />
          </mxGeometry>
        </mxCell>
        <mxCell id="XuhRDX56pQfsWtt-mXjJ-342" value="" style="shape=tableRow;horizontal=0;startSize=0;swimlaneHead=0;swimlaneBody=0;top=0;left=0;bottom=0;right=0;collapsible=0;dropTarget=0;fillColor=none;points=[[0,0.5],[1,0.5]];portConstraint=eastwest;strokeColor=inherit;fontSize=16;" vertex="1" parent="XuhRDX56pQfsWtt-mXjJ-338">
          <mxGeometry y="60" width="400" height="30" as="geometry" />
        </mxCell>
        <mxCell id="XuhRDX56pQfsWtt-mXjJ-343" value="FK, string" style="shape=partialRectangle;html=1;whiteSpace=wrap;connectable=0;fillColor=none;top=0;left=0;bottom=0;right=0;overflow=hidden;strokeColor=inherit;fontSize=16;" vertex="1" parent="XuhRDX56pQfsWtt-mXjJ-342">
          <mxGeometry width="89" height="30" as="geometry">
            <mxRectangle width="89" height="30" as="alternateBounds" />
          </mxGeometry>
        </mxCell>
        <mxCell id="XuhRDX56pQfsWtt-mXjJ-344" value="Status" style="shape=partialRectangle;html=1;whiteSpace=wrap;connectable=0;fillColor=none;top=0;left=0;bottom=0;right=0;align=left;spacingLeft=6;overflow=hidden;strokeColor=inherit;fontSize=16;" vertex="1" parent="XuhRDX56pQfsWtt-mXjJ-342">
          <mxGeometry x="89" width="311" height="30" as="geometry">
            <mxRectangle width="311" height="30" as="alternateBounds" />
          </mxGeometry>
        </mxCell>
        <mxCell id="XuhRDX56pQfsWtt-mXjJ-345" value="" style="shape=tableRow;horizontal=0;startSize=0;swimlaneHead=0;swimlaneBody=0;top=0;left=0;bottom=0;right=0;collapsible=0;dropTarget=0;fillColor=none;points=[[0,0.5],[1,0.5]];portConstraint=eastwest;strokeColor=inherit;fontSize=16;" vertex="1" parent="XuhRDX56pQfsWtt-mXjJ-338">
          <mxGeometry y="90" width="400" height="30" as="geometry" />
        </mxCell>
        <mxCell id="XuhRDX56pQfsWtt-mXjJ-346" value=", date" style="shape=partialRectangle;html=1;whiteSpace=wrap;connectable=0;fillColor=none;top=0;left=0;bottom=0;right=0;overflow=hidden;strokeColor=inherit;fontSize=16;" vertex="1" parent="XuhRDX56pQfsWtt-mXjJ-345">
          <mxGeometry width="89" height="30" as="geometry">
            <mxRectangle width="89" height="30" as="alternateBounds" />
          </mxGeometry>
        </mxCell>
        <mxCell id="XuhRDX56pQfsWtt-mXjJ-347" value="Início" style="shape=partialRectangle;html=1;whiteSpace=wrap;connectable=0;fillColor=none;top=0;left=0;bottom=0;right=0;align=left;spacingLeft=6;overflow=hidden;strokeColor=inherit;fontSize=16;" vertex="1" parent="XuhRDX56pQfsWtt-mXjJ-345">
          <mxGeometry x="89" width="311" height="30" as="geometry">
            <mxRectangle width="311" height="30" as="alternateBounds" />
          </mxGeometry>
        </mxCell>
        <mxCell id="XuhRDX56pQfsWtt-mXjJ-348" style="shape=tableRow;horizontal=0;startSize=0;swimlaneHead=0;swimlaneBody=0;top=0;left=0;bottom=0;right=0;collapsible=0;dropTarget=0;fillColor=none;points=[[0,0.5],[1,0.5]];portConstraint=eastwest;strokeColor=inherit;fontSize=16;" vertex="1" parent="XuhRDX56pQfsWtt-mXjJ-338">
          <mxGeometry y="120" width="400" height="30" as="geometry" />
        </mxCell>
        <mxCell id="XuhRDX56pQfsWtt-mXjJ-349" value="FK, string" style="shape=partialRectangle;html=1;whiteSpace=wrap;connectable=0;fillColor=none;top=0;left=0;bottom=0;right=0;overflow=hidden;strokeColor=inherit;fontSize=16;" vertex="1" parent="XuhRDX56pQfsWtt-mXjJ-348">
          <mxGeometry width="89" height="30" as="geometry">
            <mxRectangle width="89" height="30" as="alternateBounds" />
          </mxGeometry>
        </mxCell>
        <mxCell id="XuhRDX56pQfsWtt-mXjJ-350" value="Prioridade" style="shape=partialRectangle;html=1;whiteSpace=wrap;connectable=0;fillColor=none;top=0;left=0;bottom=0;right=0;align=left;spacingLeft=6;overflow=hidden;strokeColor=inherit;fontSize=16;" vertex="1" parent="XuhRDX56pQfsWtt-mXjJ-348">
          <mxGeometry x="89" width="311" height="30" as="geometry">
            <mxRectangle width="311" height="30" as="alternateBounds" />
          </mxGeometry>
        </mxCell>
        <mxCell id="XuhRDX56pQfsWtt-mXjJ-351" style="shape=tableRow;horizontal=0;startSize=0;swimlaneHead=0;swimlaneBody=0;top=0;left=0;bottom=0;right=0;collapsible=0;dropTarget=0;fillColor=none;points=[[0,0.5],[1,0.5]];portConstraint=eastwest;strokeColor=inherit;fontSize=16;" vertex="1" parent="XuhRDX56pQfsWtt-mXjJ-338">
          <mxGeometry y="150" width="400" height="30" as="geometry" />
        </mxCell>
        <mxCell id="XuhRDX56pQfsWtt-mXjJ-352" value="FK, string" style="shape=partialRectangle;html=1;whiteSpace=wrap;connectable=0;fillColor=none;top=0;left=0;bottom=0;right=0;overflow=hidden;strokeColor=inherit;fontSize=16;" vertex="1" parent="XuhRDX56pQfsWtt-mXjJ-351">
          <mxGeometry width="89" height="30" as="geometry">
            <mxRectangle width="89" height="30" as="alternateBounds" />
          </mxGeometry>
        </mxCell>
        <mxCell id="XuhRDX56pQfsWtt-mXjJ-353" value="Conclusão (Status / Tarefas)" style="shape=partialRectangle;html=1;whiteSpace=wrap;connectable=0;fillColor=none;top=0;left=0;bottom=0;right=0;align=left;spacingLeft=6;overflow=hidden;strokeColor=inherit;fontSize=16;" vertex="1" parent="XuhRDX56pQfsWtt-mXjJ-351">
          <mxGeometry x="89" width="311" height="30" as="geometry">
            <mxRectangle width="311" height="30" as="alternateBounds" />
          </mxGeometry>
        </mxCell>
        <mxCell id="XuhRDX56pQfsWtt-mXjJ-354" style="shape=tableRow;horizontal=0;startSize=0;swimlaneHead=0;swimlaneBody=0;top=0;left=0;bottom=0;right=0;collapsible=0;dropTarget=0;fillColor=none;points=[[0,0.5],[1,0.5]];portConstraint=eastwest;strokeColor=inherit;fontSize=16;" vertex="1" parent="XuhRDX56pQfsWtt-mXjJ-338">
          <mxGeometry y="180" width="400" height="30" as="geometry" />
        </mxCell>
        <mxCell id="XuhRDX56pQfsWtt-mXjJ-355" value=", date" style="shape=partialRectangle;html=1;whiteSpace=wrap;connectable=0;fillColor=none;top=0;left=0;bottom=0;right=0;overflow=hidden;strokeColor=inherit;fontSize=16;" vertex="1" parent="XuhRDX56pQfsWtt-mXjJ-354">
          <mxGeometry width="89" height="30" as="geometry">
            <mxRectangle width="89" height="30" as="alternateBounds" />
          </mxGeometry>
        </mxCell>
        <mxCell id="XuhRDX56pQfsWtt-mXjJ-356" value="Previsão de Entrega" style="shape=partialRectangle;html=1;whiteSpace=wrap;connectable=0;fillColor=none;top=0;left=0;bottom=0;right=0;align=left;spacingLeft=6;overflow=hidden;strokeColor=inherit;fontSize=16;" vertex="1" parent="XuhRDX56pQfsWtt-mXjJ-354">
          <mxGeometry x="89" width="311" height="30" as="geometry">
            <mxRectangle width="311" height="30" as="alternateBounds" />
          </mxGeometry>
        </mxCell>
        <mxCell id="XuhRDX56pQfsWtt-mXjJ-357" style="shape=tableRow;horizontal=0;startSize=0;swimlaneHead=0;swimlaneBody=0;top=0;left=0;bottom=0;right=0;collapsible=0;dropTarget=0;fillColor=none;points=[[0,0.5],[1,0.5]];portConstraint=eastwest;strokeColor=inherit;fontSize=16;" vertex="1" parent="XuhRDX56pQfsWtt-mXjJ-338">
          <mxGeometry y="210" width="400" height="30" as="geometry" />
        </mxCell>
        <mxCell id="XuhRDX56pQfsWtt-mXjJ-358" value=", string" style="shape=partialRectangle;html=1;whiteSpace=wrap;connectable=0;fillColor=none;top=0;left=0;bottom=0;right=0;overflow=hidden;strokeColor=inherit;fontSize=16;" vertex="1" parent="XuhRDX56pQfsWtt-mXjJ-357">
          <mxGeometry width="89" height="30" as="geometry">
            <mxRectangle width="89" height="30" as="alternateBounds" />
          </mxGeometry>
        </mxCell>
        <mxCell id="XuhRDX56pQfsWtt-mXjJ-359" value="Próximo Projeto" style="shape=partialRectangle;html=1;whiteSpace=wrap;connectable=0;fillColor=none;top=0;left=0;bottom=0;right=0;align=left;spacingLeft=6;overflow=hidden;strokeColor=inherit;fontSize=16;" vertex="1" parent="XuhRDX56pQfsWtt-mXjJ-357">
          <mxGeometry x="89" width="311" height="30" as="geometry">
            <mxRectangle width="311" height="30" as="alternateBounds" />
          </mxGeometry>
        </mxCell>
        <mxCell id="XuhRDX56pQfsWtt-mXjJ-360" style="shape=tableRow;horizontal=0;startSize=0;swimlaneHead=0;swimlaneBody=0;top=0;left=0;bottom=0;right=0;collapsible=0;dropTarget=0;fillColor=none;points=[[0,0.5],[1,0.5]];portConstraint=eastwest;strokeColor=inherit;fontSize=16;" vertex="1" parent="XuhRDX56pQfsWtt-mXjJ-338">
          <mxGeometry y="240" width="400" height="30" as="geometry" />
        </mxCell>
        <mxCell id="XuhRDX56pQfsWtt-mXjJ-361" value=", string" style="shape=partialRectangle;html=1;whiteSpace=wrap;connectable=0;fillColor=none;top=0;left=0;bottom=0;right=0;overflow=hidden;strokeColor=inherit;fontSize=16;" vertex="1" parent="XuhRDX56pQfsWtt-mXjJ-360">
          <mxGeometry width="89" height="30" as="geometry">
            <mxRectangle width="89" height="30" as="alternateBounds" />
          </mxGeometry>
        </mxCell>
        <mxCell id="XuhRDX56pQfsWtt-mXjJ-362" value="Projeto Anterior" style="shape=partialRectangle;html=1;whiteSpace=wrap;connectable=0;fillColor=none;top=0;left=0;bottom=0;right=0;align=left;spacingLeft=6;overflow=hidden;strokeColor=inherit;fontSize=16;" vertex="1" parent="XuhRDX56pQfsWtt-mXjJ-360">
          <mxGeometry x="89" width="311" height="30" as="geometry">
            <mxRectangle width="311" height="30" as="alternateBounds" />
          </mxGeometry>
        </mxCell>
        <mxCell id="XuhRDX56pQfsWtt-mXjJ-382" style="shape=tableRow;horizontal=0;startSize=0;swimlaneHead=0;swimlaneBody=0;top=0;left=0;bottom=0;right=0;collapsible=0;dropTarget=0;fillColor=none;points=[[0,0.5],[1,0.5]];portConstraint=eastwest;strokeColor=inherit;fontSize=16;" vertex="1" parent="XuhRDX56pQfsWtt-mXjJ-338">
          <mxGeometry y="270" width="400" height="30" as="geometry" />
        </mxCell>
        <mxCell id="XuhRDX56pQfsWtt-mXjJ-383" value="FK, string" style="shape=partialRectangle;html=1;whiteSpace=wrap;connectable=0;fillColor=none;top=0;left=0;bottom=0;right=0;overflow=hidden;strokeColor=inherit;fontSize=16;" vertex="1" parent="XuhRDX56pQfsWtt-mXjJ-382">
          <mxGeometry width="89" height="30" as="geometry">
            <mxRectangle width="89" height="30" as="alternateBounds" />
          </mxGeometry>
        </mxCell>
        <mxCell id="XuhRDX56pQfsWtt-mXjJ-384" value="Tarefa (Tarefas)" style="shape=partialRectangle;html=1;whiteSpace=wrap;connectable=0;fillColor=none;top=0;left=0;bottom=0;right=0;align=left;spacingLeft=6;overflow=hidden;strokeColor=inherit;fontSize=16;" vertex="1" parent="XuhRDX56pQfsWtt-mXjJ-382">
          <mxGeometry x="89" width="311" height="30" as="geometry">
            <mxRectangle width="311" height="30" as="alternateBounds" />
          </mxGeometry>
        </mxCell>
        <mxCell id="XuhRDX56pQfsWtt-mXjJ-385" style="shape=tableRow;horizontal=0;startSize=0;swimlaneHead=0;swimlaneBody=0;top=0;left=0;bottom=0;right=0;collapsible=0;dropTarget=0;fillColor=none;points=[[0,0.5],[1,0.5]];portConstraint=eastwest;strokeColor=inherit;fontSize=16;" vertex="1" parent="XuhRDX56pQfsWtt-mXjJ-338">
          <mxGeometry y="300" width="400" height="30" as="geometry" />
        </mxCell>
        <mxCell id="XuhRDX56pQfsWtt-mXjJ-386" value=", string" style="shape=partialRectangle;html=1;whiteSpace=wrap;connectable=0;fillColor=none;top=0;left=0;bottom=0;right=0;overflow=hidden;strokeColor=inherit;fontSize=16;" vertex="1" parent="XuhRDX56pQfsWtt-mXjJ-385">
          <mxGeometry width="89" height="30" as="geometry">
            <mxRectangle width="89" height="30" as="alternateBounds" />
          </mxGeometry>
        </mxCell>
        <mxCell id="XuhRDX56pQfsWtt-mXjJ-387" value="Problema a ser resolvido" style="shape=partialRectangle;html=1;whiteSpace=wrap;connectable=0;fillColor=none;top=0;left=0;bottom=0;right=0;align=left;spacingLeft=6;overflow=hidden;strokeColor=inherit;fontSize=16;" vertex="1" parent="XuhRDX56pQfsWtt-mXjJ-385">
          <mxGeometry x="89" width="311" height="30" as="geometry">
            <mxRectangle width="311" height="30" as="alternateBounds" />
          </mxGeometry>
        </mxCell>
        <mxCell id="XuhRDX56pQfsWtt-mXjJ-388" style="shape=tableRow;horizontal=0;startSize=0;swimlaneHead=0;swimlaneBody=0;top=0;left=0;bottom=0;right=0;collapsible=0;dropTarget=0;fillColor=none;points=[[0,0.5],[1,0.5]];portConstraint=eastwest;strokeColor=inherit;fontSize=16;" vertex="1" parent="XuhRDX56pQfsWtt-mXjJ-338">
          <mxGeometry y="330" width="400" height="30" as="geometry" />
        </mxCell>
        <mxCell id="XuhRDX56pQfsWtt-mXjJ-389" value=", date" style="shape=partialRectangle;html=1;whiteSpace=wrap;connectable=0;fillColor=none;top=0;left=0;bottom=0;right=0;overflow=hidden;strokeColor=inherit;fontSize=16;" vertex="1" parent="XuhRDX56pQfsWtt-mXjJ-388">
          <mxGeometry width="89" height="30" as="geometry">
            <mxRectangle width="89" height="30" as="alternateBounds" />
          </mxGeometry>
        </mxCell>
        <mxCell id="XuhRDX56pQfsWtt-mXjJ-390" value="Entrega do Projeto" style="shape=partialRectangle;html=1;whiteSpace=wrap;connectable=0;fillColor=none;top=0;left=0;bottom=0;right=0;align=left;spacingLeft=6;overflow=hidden;strokeColor=inherit;fontSize=16;" vertex="1" parent="XuhRDX56pQfsWtt-mXjJ-388">
          <mxGeometry x="89" width="311" height="30" as="geometry">
            <mxRectangle width="311" height="30" as="alternateBounds" />
          </mxGeometry>
        </mxCell>
        <mxCell id="XuhRDX56pQfsWtt-mXjJ-391" style="shape=tableRow;horizontal=0;startSize=0;swimlaneHead=0;swimlaneBody=0;top=0;left=0;bottom=0;right=0;collapsible=0;dropTarget=0;fillColor=none;points=[[0,0.5],[1,0.5]];portConstraint=eastwest;strokeColor=inherit;fontSize=16;" vertex="1" parent="XuhRDX56pQfsWtt-mXjJ-338">
          <mxGeometry y="360" width="400" height="30" as="geometry" />
        </mxCell>
        <mxCell id="XuhRDX56pQfsWtt-mXjJ-392" value="∑, string" style="shape=partialRectangle;html=1;whiteSpace=wrap;connectable=0;fillColor=none;top=0;left=0;bottom=0;right=0;overflow=hidden;strokeColor=inherit;fontSize=16;" vertex="1" parent="XuhRDX56pQfsWtt-mXjJ-391">
          <mxGeometry width="89" height="30" as="geometry">
            <mxRectangle width="89" height="30" as="alternateBounds" />
          </mxGeometry>
        </mxCell>
        <mxCell id="XuhRDX56pQfsWtt-mXjJ-393" value="Status Final" style="shape=partialRectangle;html=1;whiteSpace=wrap;connectable=0;fillColor=none;top=0;left=0;bottom=0;right=0;align=left;spacingLeft=6;overflow=hidden;strokeColor=inherit;fontSize=16;" vertex="1" parent="XuhRDX56pQfsWtt-mXjJ-391">
          <mxGeometry x="89" width="311" height="30" as="geometry">
            <mxRectangle width="311" height="30" as="alternateBounds" />
          </mxGeometry>
        </mxCell>
        <mxCell id="XuhRDX56pQfsWtt-mXjJ-429" style="shape=tableRow;horizontal=0;startSize=0;swimlaneHead=0;swimlaneBody=0;top=0;left=0;bottom=0;right=0;collapsible=0;dropTarget=0;fillColor=none;points=[[0,0.5],[1,0.5]];portConstraint=eastwest;strokeColor=inherit;fontSize=16;" vertex="1" parent="XuhRDX56pQfsWtt-mXjJ-338">
          <mxGeometry y="390" width="400" height="30" as="geometry" />
        </mxCell>
        <mxCell id="XuhRDX56pQfsWtt-mXjJ-430" value="FK, string" style="shape=partialRectangle;html=1;whiteSpace=wrap;connectable=0;fillColor=none;top=0;left=0;bottom=0;right=0;overflow=hidden;strokeColor=inherit;fontSize=16;" vertex="1" parent="XuhRDX56pQfsWtt-mXjJ-429">
          <mxGeometry width="89" height="30" as="geometry">
            <mxRectangle width="89" height="30" as="alternateBounds" />
          </mxGeometry>
        </mxCell>
        <mxCell id="XuhRDX56pQfsWtt-mXjJ-431" value="Classificação Geral (Sub Área)" style="shape=partialRectangle;html=1;whiteSpace=wrap;connectable=0;fillColor=none;top=0;left=0;bottom=0;right=0;align=left;spacingLeft=6;overflow=hidden;strokeColor=inherit;fontSize=16;" vertex="1" parent="XuhRDX56pQfsWtt-mXjJ-429">
          <mxGeometry x="89" width="311" height="30" as="geometry">
            <mxRectangle width="311" height="30" as="alternateBounds" />
          </mxGeometry>
        </mxCell>
        <mxCell id="XuhRDX56pQfsWtt-mXjJ-380" value="" style="edgeStyle=orthogonalEdgeStyle;fontSize=12;html=1;endArrow=ERoneToMany;rounded=0;entryX=1;entryY=0.5;entryDx=0;entryDy=0;exitX=0;exitY=0.5;exitDx=0;exitDy=0;" edge="1" parent="1" source="XuhRDX56pQfsWtt-mXjJ-589" target="XuhRDX56pQfsWtt-mXjJ-363">
          <mxGeometry width="100" height="100" relative="1" as="geometry">
            <mxPoint x="1400" y="625" as="sourcePoint" />
            <mxPoint x="479" y="1740" as="targetPoint" />
            <Array as="points">
              <mxPoint x="1339" y="765" />
              <mxPoint x="1339" y="1705" />
            </Array>
          </mxGeometry>
        </mxCell>
        <mxCell id="XuhRDX56pQfsWtt-mXjJ-381" value="" style="edgeStyle=orthogonalEdgeStyle;fontSize=12;html=1;endArrow=ERmany;rounded=0;entryX=1;entryY=0.5;entryDx=0;entryDy=0;exitX=0;exitY=0.5;exitDx=0;exitDy=0;" edge="1" parent="1" source="XuhRDX56pQfsWtt-mXjJ-586" target="XuhRDX56pQfsWtt-mXjJ-377">
          <mxGeometry width="100" height="100" relative="1" as="geometry">
            <mxPoint x="1390" y="610" as="sourcePoint" />
            <mxPoint x="469" y="1050" as="targetPoint" />
            <Array as="points">
              <mxPoint x="1319" y="735" />
              <mxPoint x="1319" y="1255" />
            </Array>
          </mxGeometry>
        </mxCell>
        <mxCell id="XuhRDX56pQfsWtt-mXjJ-398" value="" style="edgeStyle=orthogonalEdgeStyle;fontSize=12;html=1;endArrow=ERoneToMany;rounded=0;exitX=0;exitY=0.5;exitDx=0;exitDy=0;entryX=1;entryY=0.5;entryDx=0;entryDy=0;" edge="1" parent="1" source="XuhRDX56pQfsWtt-mXjJ-598" target="XuhRDX56pQfsWtt-mXjJ-179">
          <mxGeometry width="100" height="100" relative="1" as="geometry">
            <mxPoint x="489" y="470" as="sourcePoint" />
            <mxPoint x="489" y="410" as="targetPoint" />
            <Array as="points">
              <mxPoint x="1359" y="265" />
              <mxPoint x="1359" y="565" />
            </Array>
          </mxGeometry>
        </mxCell>
        <mxCell id="XuhRDX56pQfsWtt-mXjJ-399" value="" style="edgeStyle=orthogonalEdgeStyle;fontSize=12;html=1;endArrow=ERoneToMany;rounded=0;entryX=1;entryY=0.5;entryDx=0;entryDy=0;exitX=0;exitY=0.5;exitDx=0;exitDy=0;" edge="1" parent="1" source="XuhRDX56pQfsWtt-mXjJ-595" target="XuhRDX56pQfsWtt-mXjJ-26">
          <mxGeometry width="100" height="100" relative="1" as="geometry">
            <mxPoint x="1399" y="220" as="sourcePoint" />
            <mxPoint x="429" y="560" as="targetPoint" />
            <Array as="points">
              <mxPoint x="1349" y="235" />
              <mxPoint x="1349" y="480" />
              <mxPoint x="449" y="480" />
              <mxPoint x="449" y="565" />
            </Array>
          </mxGeometry>
        </mxCell>
        <mxCell id="XuhRDX56pQfsWtt-mXjJ-400" value="" style="edgeStyle=orthogonalEdgeStyle;fontSize=12;html=1;endArrow=ERmany;rounded=0;exitX=0;exitY=0.5;exitDx=0;exitDy=0;entryX=1;entryY=0.5;entryDx=0;entryDy=0;" edge="1" parent="1" source="XuhRDX56pQfsWtt-mXjJ-580" target="XuhRDX56pQfsWtt-mXjJ-348">
          <mxGeometry width="100" height="100" relative="1" as="geometry">
            <mxPoint x="1099" y="350" as="sourcePoint" />
            <mxPoint x="1199" y="250" as="targetPoint" />
            <Array as="points">
              <mxPoint x="1339" y="675" />
              <mxPoint x="1339" y="450" />
              <mxPoint x="449" y="450" />
              <mxPoint x="449" y="145" />
            </Array>
          </mxGeometry>
        </mxCell>
        <mxCell id="XuhRDX56pQfsWtt-mXjJ-366" value="Prioridade" style="shape=table;startSize=30;container=1;collapsible=0;childLayout=tableLayout;fixedRows=1;rowLines=0;fontStyle=0;strokeColor=default;fontSize=16;" vertex="1" parent="1">
          <mxGeometry x="1409" y="600" width="400" height="210" as="geometry" />
        </mxCell>
        <mxCell id="XuhRDX56pQfsWtt-mXjJ-367" value="" style="shape=tableRow;horizontal=0;startSize=0;swimlaneHead=0;swimlaneBody=0;top=0;left=0;bottom=0;right=0;collapsible=0;dropTarget=0;fillColor=none;points=[[0,0.5],[1,0.5]];portConstraint=eastwest;strokeColor=inherit;fontSize=16;" vertex="1" parent="XuhRDX56pQfsWtt-mXjJ-366">
          <mxGeometry y="30" width="400" height="30" as="geometry" />
        </mxCell>
        <mxCell id="XuhRDX56pQfsWtt-mXjJ-368" value="PK, string" style="shape=partialRectangle;html=1;whiteSpace=wrap;connectable=0;fillColor=none;top=0;left=0;bottom=0;right=0;overflow=hidden;pointerEvents=1;strokeColor=inherit;fontSize=16;" vertex="1" parent="XuhRDX56pQfsWtt-mXjJ-367">
          <mxGeometry width="89" height="30" as="geometry">
            <mxRectangle width="89" height="30" as="alternateBounds" />
          </mxGeometry>
        </mxCell>
        <mxCell id="XuhRDX56pQfsWtt-mXjJ-369" value="Nome" style="shape=partialRectangle;html=1;whiteSpace=wrap;connectable=0;fillColor=none;top=0;left=0;bottom=0;right=0;align=left;spacingLeft=6;overflow=hidden;strokeColor=inherit;fontSize=16;" vertex="1" parent="XuhRDX56pQfsWtt-mXjJ-367">
          <mxGeometry x="89" width="311" height="30" as="geometry">
            <mxRectangle width="311" height="30" as="alternateBounds" />
          </mxGeometry>
        </mxCell>
        <mxCell id="XuhRDX56pQfsWtt-mXjJ-580" style="shape=tableRow;horizontal=0;startSize=0;swimlaneHead=0;swimlaneBody=0;top=0;left=0;bottom=0;right=0;collapsible=0;dropTarget=0;fillColor=none;points=[[0,0.5],[1,0.5]];portConstraint=eastwest;strokeColor=inherit;fontSize=16;" vertex="1" parent="XuhRDX56pQfsWtt-mXjJ-366">
          <mxGeometry y="60" width="400" height="30" as="geometry" />
        </mxCell>
        <mxCell id="XuhRDX56pQfsWtt-mXjJ-581" value="FK, string" style="shape=partialRectangle;html=1;whiteSpace=wrap;connectable=0;fillColor=none;top=0;left=0;bottom=0;right=0;overflow=hidden;pointerEvents=1;strokeColor=inherit;fontSize=16;" vertex="1" parent="XuhRDX56pQfsWtt-mXjJ-580">
          <mxGeometry width="89" height="30" as="geometry">
            <mxRectangle width="89" height="30" as="alternateBounds" />
          </mxGeometry>
        </mxCell>
        <mxCell id="XuhRDX56pQfsWtt-mXjJ-582" value="Projetos" style="shape=partialRectangle;html=1;whiteSpace=wrap;connectable=0;fillColor=none;top=0;left=0;bottom=0;right=0;align=left;spacingLeft=6;overflow=hidden;strokeColor=inherit;fontSize=16;" vertex="1" parent="XuhRDX56pQfsWtt-mXjJ-580">
          <mxGeometry x="89" width="311" height="30" as="geometry">
            <mxRectangle width="311" height="30" as="alternateBounds" />
          </mxGeometry>
        </mxCell>
        <mxCell id="XuhRDX56pQfsWtt-mXjJ-583" style="shape=tableRow;horizontal=0;startSize=0;swimlaneHead=0;swimlaneBody=0;top=0;left=0;bottom=0;right=0;collapsible=0;dropTarget=0;fillColor=none;points=[[0,0.5],[1,0.5]];portConstraint=eastwest;strokeColor=inherit;fontSize=16;" vertex="1" parent="XuhRDX56pQfsWtt-mXjJ-366">
          <mxGeometry y="90" width="400" height="30" as="geometry" />
        </mxCell>
        <mxCell id="XuhRDX56pQfsWtt-mXjJ-584" value="FK, string" style="shape=partialRectangle;html=1;whiteSpace=wrap;connectable=0;fillColor=none;top=0;left=0;bottom=0;right=0;overflow=hidden;pointerEvents=1;strokeColor=inherit;fontSize=16;" vertex="1" parent="XuhRDX56pQfsWtt-mXjJ-583">
          <mxGeometry width="89" height="30" as="geometry">
            <mxRectangle width="89" height="30" as="alternateBounds" />
          </mxGeometry>
        </mxCell>
        <mxCell id="XuhRDX56pQfsWtt-mXjJ-585" value="Tarefa dos Projetos" style="shape=partialRectangle;html=1;whiteSpace=wrap;connectable=0;fillColor=none;top=0;left=0;bottom=0;right=0;align=left;spacingLeft=6;overflow=hidden;strokeColor=inherit;fontSize=16;" vertex="1" parent="XuhRDX56pQfsWtt-mXjJ-583">
          <mxGeometry x="89" width="311" height="30" as="geometry">
            <mxRectangle width="311" height="30" as="alternateBounds" />
          </mxGeometry>
        </mxCell>
        <mxCell id="XuhRDX56pQfsWtt-mXjJ-586" style="shape=tableRow;horizontal=0;startSize=0;swimlaneHead=0;swimlaneBody=0;top=0;left=0;bottom=0;right=0;collapsible=0;dropTarget=0;fillColor=none;points=[[0,0.5],[1,0.5]];portConstraint=eastwest;strokeColor=inherit;fontSize=16;" vertex="1" parent="XuhRDX56pQfsWtt-mXjJ-366">
          <mxGeometry y="120" width="400" height="30" as="geometry" />
        </mxCell>
        <mxCell id="XuhRDX56pQfsWtt-mXjJ-587" value="FK, string" style="shape=partialRectangle;html=1;whiteSpace=wrap;connectable=0;fillColor=none;top=0;left=0;bottom=0;right=0;overflow=hidden;pointerEvents=1;strokeColor=inherit;fontSize=16;" vertex="1" parent="XuhRDX56pQfsWtt-mXjJ-586">
          <mxGeometry width="89" height="30" as="geometry">
            <mxRectangle width="89" height="30" as="alternateBounds" />
          </mxGeometry>
        </mxCell>
        <mxCell id="XuhRDX56pQfsWtt-mXjJ-588" value="Curso/Conhecimento/Formações" style="shape=partialRectangle;html=1;whiteSpace=wrap;connectable=0;fillColor=none;top=0;left=0;bottom=0;right=0;align=left;spacingLeft=6;overflow=hidden;strokeColor=inherit;fontSize=16;" vertex="1" parent="XuhRDX56pQfsWtt-mXjJ-586">
          <mxGeometry x="89" width="311" height="30" as="geometry">
            <mxRectangle width="311" height="30" as="alternateBounds" />
          </mxGeometry>
        </mxCell>
        <mxCell id="XuhRDX56pQfsWtt-mXjJ-589" style="shape=tableRow;horizontal=0;startSize=0;swimlaneHead=0;swimlaneBody=0;top=0;left=0;bottom=0;right=0;collapsible=0;dropTarget=0;fillColor=none;points=[[0,0.5],[1,0.5]];portConstraint=eastwest;strokeColor=inherit;fontSize=16;" vertex="1" parent="XuhRDX56pQfsWtt-mXjJ-366">
          <mxGeometry y="150" width="400" height="30" as="geometry" />
        </mxCell>
        <mxCell id="XuhRDX56pQfsWtt-mXjJ-590" value="FK, string" style="shape=partialRectangle;html=1;whiteSpace=wrap;connectable=0;fillColor=none;top=0;left=0;bottom=0;right=0;overflow=hidden;pointerEvents=1;strokeColor=inherit;fontSize=16;" vertex="1" parent="XuhRDX56pQfsWtt-mXjJ-589">
          <mxGeometry width="89" height="30" as="geometry">
            <mxRectangle width="89" height="30" as="alternateBounds" />
          </mxGeometry>
        </mxCell>
        <mxCell id="XuhRDX56pQfsWtt-mXjJ-591" value="Publicações" style="shape=partialRectangle;html=1;whiteSpace=wrap;connectable=0;fillColor=none;top=0;left=0;bottom=0;right=0;align=left;spacingLeft=6;overflow=hidden;strokeColor=inherit;fontSize=16;" vertex="1" parent="XuhRDX56pQfsWtt-mXjJ-589">
          <mxGeometry x="89" width="311" height="30" as="geometry">
            <mxRectangle width="311" height="30" as="alternateBounds" />
          </mxGeometry>
        </mxCell>
        <mxCell id="XuhRDX56pQfsWtt-mXjJ-592" style="shape=tableRow;horizontal=0;startSize=0;swimlaneHead=0;swimlaneBody=0;top=0;left=0;bottom=0;right=0;collapsible=0;dropTarget=0;fillColor=none;points=[[0,0.5],[1,0.5]];portConstraint=eastwest;strokeColor=inherit;fontSize=16;" vertex="1" parent="XuhRDX56pQfsWtt-mXjJ-366">
          <mxGeometry y="180" width="400" height="30" as="geometry" />
        </mxCell>
        <mxCell id="XuhRDX56pQfsWtt-mXjJ-593" style="shape=partialRectangle;html=1;whiteSpace=wrap;connectable=0;fillColor=none;top=0;left=0;bottom=0;right=0;overflow=hidden;pointerEvents=1;strokeColor=inherit;fontSize=16;" vertex="1" parent="XuhRDX56pQfsWtt-mXjJ-592">
          <mxGeometry width="89" height="30" as="geometry">
            <mxRectangle width="89" height="30" as="alternateBounds" />
          </mxGeometry>
        </mxCell>
        <mxCell id="XuhRDX56pQfsWtt-mXjJ-594" style="shape=partialRectangle;html=1;whiteSpace=wrap;connectable=0;fillColor=none;top=0;left=0;bottom=0;right=0;align=left;spacingLeft=6;overflow=hidden;strokeColor=inherit;fontSize=16;" vertex="1" parent="XuhRDX56pQfsWtt-mXjJ-592">
          <mxGeometry x="89" width="311" height="30" as="geometry">
            <mxRectangle width="311" height="30" as="alternateBounds" />
          </mxGeometry>
        </mxCell>
        <mxCell id="XuhRDX56pQfsWtt-mXjJ-404" value="Meio" style="shape=table;startSize=30;container=1;collapsible=0;childLayout=tableLayout;fixedRows=1;rowLines=0;fontStyle=0;strokeColor=default;fontSize=16;" vertex="1" parent="1">
          <mxGeometry x="1409" y="470" width="400" height="60" as="geometry" />
        </mxCell>
        <mxCell id="XuhRDX56pQfsWtt-mXjJ-405" value="" style="shape=tableRow;horizontal=0;startSize=0;swimlaneHead=0;swimlaneBody=0;top=0;left=0;bottom=0;right=0;collapsible=0;dropTarget=0;fillColor=none;points=[[0,0.5],[1,0.5]];portConstraint=eastwest;strokeColor=inherit;fontSize=16;" vertex="1" parent="XuhRDX56pQfsWtt-mXjJ-404">
          <mxGeometry y="30" width="400" height="30" as="geometry" />
        </mxCell>
        <mxCell id="XuhRDX56pQfsWtt-mXjJ-406" value="PK, string" style="shape=partialRectangle;html=1;whiteSpace=wrap;connectable=0;fillColor=none;top=0;left=0;bottom=0;right=0;overflow=hidden;pointerEvents=1;strokeColor=inherit;fontSize=16;" vertex="1" parent="XuhRDX56pQfsWtt-mXjJ-405">
          <mxGeometry width="89" height="30" as="geometry">
            <mxRectangle width="89" height="30" as="alternateBounds" />
          </mxGeometry>
        </mxCell>
        <mxCell id="XuhRDX56pQfsWtt-mXjJ-407" value="Nome" style="shape=partialRectangle;html=1;whiteSpace=wrap;connectable=0;fillColor=none;top=0;left=0;bottom=0;right=0;align=left;spacingLeft=6;overflow=hidden;strokeColor=inherit;fontSize=16;" vertex="1" parent="XuhRDX56pQfsWtt-mXjJ-405">
          <mxGeometry x="89" width="311" height="30" as="geometry">
            <mxRectangle width="311" height="30" as="alternateBounds" />
          </mxGeometry>
        </mxCell>
        <mxCell id="XuhRDX56pQfsWtt-mXjJ-414" value="Tipo de Formação" style="shape=table;startSize=30;container=1;collapsible=0;childLayout=tableLayout;fixedRows=1;rowLines=0;fontStyle=0;strokeColor=default;fontSize=16;" vertex="1" parent="1">
          <mxGeometry x="1409" y="850" width="400" height="60" as="geometry" />
        </mxCell>
        <mxCell id="XuhRDX56pQfsWtt-mXjJ-415" value="" style="shape=tableRow;horizontal=0;startSize=0;swimlaneHead=0;swimlaneBody=0;top=0;left=0;bottom=0;right=0;collapsible=0;dropTarget=0;fillColor=none;points=[[0,0.5],[1,0.5]];portConstraint=eastwest;strokeColor=inherit;fontSize=16;" vertex="1" parent="XuhRDX56pQfsWtt-mXjJ-414">
          <mxGeometry y="30" width="400" height="30" as="geometry" />
        </mxCell>
        <mxCell id="XuhRDX56pQfsWtt-mXjJ-416" value="PK, string" style="shape=partialRectangle;html=1;whiteSpace=wrap;connectable=0;fillColor=none;top=0;left=0;bottom=0;right=0;overflow=hidden;pointerEvents=1;strokeColor=inherit;fontSize=16;" vertex="1" parent="XuhRDX56pQfsWtt-mXjJ-415">
          <mxGeometry width="89" height="30" as="geometry">
            <mxRectangle width="89" height="30" as="alternateBounds" />
          </mxGeometry>
        </mxCell>
        <mxCell id="XuhRDX56pQfsWtt-mXjJ-417" value="Nome" style="shape=partialRectangle;html=1;whiteSpace=wrap;connectable=0;fillColor=none;top=0;left=0;bottom=0;right=0;align=left;spacingLeft=6;overflow=hidden;strokeColor=inherit;fontSize=16;" vertex="1" parent="XuhRDX56pQfsWtt-mXjJ-415">
          <mxGeometry x="89" width="311" height="30" as="geometry">
            <mxRectangle width="311" height="30" as="alternateBounds" />
          </mxGeometry>
        </mxCell>
        <mxCell id="XuhRDX56pQfsWtt-mXjJ-419" value="Tarefas dos Projetos" style="shape=table;startSize=30;container=1;collapsible=0;childLayout=tableLayout;fixedRows=1;rowLines=0;fontStyle=0;strokeColor=default;fontSize=16;" vertex="1" parent="1">
          <mxGeometry x="609" y="10" width="400" height="330" as="geometry" />
        </mxCell>
        <mxCell id="XuhRDX56pQfsWtt-mXjJ-420" value="" style="shape=tableRow;horizontal=0;startSize=0;swimlaneHead=0;swimlaneBody=0;top=0;left=0;bottom=0;right=0;collapsible=0;dropTarget=0;fillColor=none;points=[[0,0.5],[1,0.5]];portConstraint=eastwest;strokeColor=inherit;fontSize=16;" vertex="1" parent="XuhRDX56pQfsWtt-mXjJ-419">
          <mxGeometry y="30" width="400" height="30" as="geometry" />
        </mxCell>
        <mxCell id="XuhRDX56pQfsWtt-mXjJ-421" value="PK, string" style="shape=partialRectangle;html=1;whiteSpace=wrap;connectable=0;fillColor=none;top=0;left=0;bottom=0;right=0;overflow=hidden;pointerEvents=1;strokeColor=inherit;fontSize=16;" vertex="1" parent="XuhRDX56pQfsWtt-mXjJ-420">
          <mxGeometry width="89" height="30" as="geometry">
            <mxRectangle width="89" height="30" as="alternateBounds" />
          </mxGeometry>
        </mxCell>
        <mxCell id="XuhRDX56pQfsWtt-mXjJ-422" value="Nome" style="shape=partialRectangle;html=1;whiteSpace=wrap;connectable=0;fillColor=none;top=0;left=0;bottom=0;right=0;align=left;spacingLeft=6;overflow=hidden;strokeColor=inherit;fontSize=16;" vertex="1" parent="XuhRDX56pQfsWtt-mXjJ-420">
          <mxGeometry x="89" width="311" height="30" as="geometry">
            <mxRectangle width="311" height="30" as="alternateBounds" />
          </mxGeometry>
        </mxCell>
        <mxCell id="XuhRDX56pQfsWtt-mXjJ-423" value="" style="shape=tableRow;horizontal=0;startSize=0;swimlaneHead=0;swimlaneBody=0;top=0;left=0;bottom=0;right=0;collapsible=0;dropTarget=0;fillColor=none;points=[[0,0.5],[1,0.5]];portConstraint=eastwest;strokeColor=inherit;fontSize=16;" vertex="1" parent="XuhRDX56pQfsWtt-mXjJ-419">
          <mxGeometry y="60" width="400" height="30" as="geometry" />
        </mxCell>
        <mxCell id="XuhRDX56pQfsWtt-mXjJ-424" value="FK, string" style="shape=partialRectangle;html=1;whiteSpace=wrap;connectable=0;fillColor=none;top=0;left=0;bottom=0;right=0;overflow=hidden;strokeColor=inherit;fontSize=16;" vertex="1" parent="XuhRDX56pQfsWtt-mXjJ-423">
          <mxGeometry width="89" height="30" as="geometry">
            <mxRectangle width="89" height="30" as="alternateBounds" />
          </mxGeometry>
        </mxCell>
        <mxCell id="XuhRDX56pQfsWtt-mXjJ-425" value="Status" style="shape=partialRectangle;html=1;whiteSpace=wrap;connectable=0;fillColor=none;top=0;left=0;bottom=0;right=0;align=left;spacingLeft=6;overflow=hidden;strokeColor=inherit;fontSize=16;" vertex="1" parent="XuhRDX56pQfsWtt-mXjJ-423">
          <mxGeometry x="89" width="311" height="30" as="geometry">
            <mxRectangle width="311" height="30" as="alternateBounds" />
          </mxGeometry>
        </mxCell>
        <mxCell id="XuhRDX56pQfsWtt-mXjJ-426" value="" style="shape=tableRow;horizontal=0;startSize=0;swimlaneHead=0;swimlaneBody=0;top=0;left=0;bottom=0;right=0;collapsible=0;dropTarget=0;fillColor=none;points=[[0,0.5],[1,0.5]];portConstraint=eastwest;strokeColor=inherit;fontSize=16;" vertex="1" parent="XuhRDX56pQfsWtt-mXjJ-419">
          <mxGeometry y="90" width="400" height="30" as="geometry" />
        </mxCell>
        <mxCell id="XuhRDX56pQfsWtt-mXjJ-427" value=", string" style="shape=partialRectangle;html=1;whiteSpace=wrap;connectable=0;fillColor=none;top=0;left=0;bottom=0;right=0;overflow=hidden;strokeColor=inherit;fontSize=16;" vertex="1" parent="XuhRDX56pQfsWtt-mXjJ-426">
          <mxGeometry width="89" height="30" as="geometry">
            <mxRectangle width="89" height="30" as="alternateBounds" />
          </mxGeometry>
        </mxCell>
        <mxCell id="XuhRDX56pQfsWtt-mXjJ-428" value="Descrição" style="shape=partialRectangle;html=1;whiteSpace=wrap;connectable=0;fillColor=none;top=0;left=0;bottom=0;right=0;align=left;spacingLeft=6;overflow=hidden;strokeColor=inherit;fontSize=16;" vertex="1" parent="XuhRDX56pQfsWtt-mXjJ-426">
          <mxGeometry x="89" width="311" height="30" as="geometry">
            <mxRectangle width="311" height="30" as="alternateBounds" />
          </mxGeometry>
        </mxCell>
        <mxCell id="XuhRDX56pQfsWtt-mXjJ-434" style="shape=tableRow;horizontal=0;startSize=0;swimlaneHead=0;swimlaneBody=0;top=0;left=0;bottom=0;right=0;collapsible=0;dropTarget=0;fillColor=none;points=[[0,0.5],[1,0.5]];portConstraint=eastwest;strokeColor=inherit;fontSize=16;" vertex="1" parent="XuhRDX56pQfsWtt-mXjJ-419">
          <mxGeometry y="120" width="400" height="30" as="geometry" />
        </mxCell>
        <mxCell id="XuhRDX56pQfsWtt-mXjJ-435" value=", date" style="shape=partialRectangle;html=1;whiteSpace=wrap;connectable=0;fillColor=none;top=0;left=0;bottom=0;right=0;overflow=hidden;strokeColor=inherit;fontSize=16;" vertex="1" parent="XuhRDX56pQfsWtt-mXjJ-434">
          <mxGeometry width="89" height="30" as="geometry">
            <mxRectangle width="89" height="30" as="alternateBounds" />
          </mxGeometry>
        </mxCell>
        <mxCell id="XuhRDX56pQfsWtt-mXjJ-436" value="Data Previsão" style="shape=partialRectangle;html=1;whiteSpace=wrap;connectable=0;fillColor=none;top=0;left=0;bottom=0;right=0;align=left;spacingLeft=6;overflow=hidden;strokeColor=inherit;fontSize=16;" vertex="1" parent="XuhRDX56pQfsWtt-mXjJ-434">
          <mxGeometry x="89" width="311" height="30" as="geometry">
            <mxRectangle width="311" height="30" as="alternateBounds" />
          </mxGeometry>
        </mxCell>
        <mxCell id="XuhRDX56pQfsWtt-mXjJ-437" style="shape=tableRow;horizontal=0;startSize=0;swimlaneHead=0;swimlaneBody=0;top=0;left=0;bottom=0;right=0;collapsible=0;dropTarget=0;fillColor=none;points=[[0,0.5],[1,0.5]];portConstraint=eastwest;strokeColor=inherit;fontSize=16;" vertex="1" parent="XuhRDX56pQfsWtt-mXjJ-419">
          <mxGeometry y="150" width="400" height="30" as="geometry" />
        </mxCell>
        <mxCell id="XuhRDX56pQfsWtt-mXjJ-438" value="FK, string" style="shape=partialRectangle;html=1;whiteSpace=wrap;connectable=0;fillColor=none;top=0;left=0;bottom=0;right=0;overflow=hidden;strokeColor=inherit;fontSize=16;" vertex="1" parent="XuhRDX56pQfsWtt-mXjJ-437">
          <mxGeometry width="89" height="30" as="geometry">
            <mxRectangle width="89" height="30" as="alternateBounds" />
          </mxGeometry>
        </mxCell>
        <mxCell id="XuhRDX56pQfsWtt-mXjJ-439" value="Prioridade" style="shape=partialRectangle;html=1;whiteSpace=wrap;connectable=0;fillColor=none;top=0;left=0;bottom=0;right=0;align=left;spacingLeft=6;overflow=hidden;strokeColor=inherit;fontSize=16;" vertex="1" parent="XuhRDX56pQfsWtt-mXjJ-437">
          <mxGeometry x="89" width="311" height="30" as="geometry">
            <mxRectangle width="311" height="30" as="alternateBounds" />
          </mxGeometry>
        </mxCell>
        <mxCell id="XuhRDX56pQfsWtt-mXjJ-440" style="shape=tableRow;horizontal=0;startSize=0;swimlaneHead=0;swimlaneBody=0;top=0;left=0;bottom=0;right=0;collapsible=0;dropTarget=0;fillColor=none;points=[[0,0.5],[1,0.5]];portConstraint=eastwest;strokeColor=inherit;fontSize=16;" vertex="1" parent="XuhRDX56pQfsWtt-mXjJ-419">
          <mxGeometry y="180" width="400" height="30" as="geometry" />
        </mxCell>
        <mxCell id="XuhRDX56pQfsWtt-mXjJ-441" value=", date" style="shape=partialRectangle;html=1;whiteSpace=wrap;connectable=0;fillColor=none;top=0;left=0;bottom=0;right=0;overflow=hidden;strokeColor=inherit;fontSize=16;" vertex="1" parent="XuhRDX56pQfsWtt-mXjJ-440">
          <mxGeometry width="89" height="30" as="geometry">
            <mxRectangle width="89" height="30" as="alternateBounds" />
          </mxGeometry>
        </mxCell>
        <mxCell id="XuhRDX56pQfsWtt-mXjJ-442" value="Data de Entrega" style="shape=partialRectangle;html=1;whiteSpace=wrap;connectable=0;fillColor=none;top=0;left=0;bottom=0;right=0;align=left;spacingLeft=6;overflow=hidden;strokeColor=inherit;fontSize=16;" vertex="1" parent="XuhRDX56pQfsWtt-mXjJ-440">
          <mxGeometry x="89" width="311" height="30" as="geometry">
            <mxRectangle width="311" height="30" as="alternateBounds" />
          </mxGeometry>
        </mxCell>
        <mxCell id="XuhRDX56pQfsWtt-mXjJ-443" style="shape=tableRow;horizontal=0;startSize=0;swimlaneHead=0;swimlaneBody=0;top=0;left=0;bottom=0;right=0;collapsible=0;dropTarget=0;fillColor=none;points=[[0,0.5],[1,0.5]];portConstraint=eastwest;strokeColor=inherit;fontSize=16;" vertex="1" parent="XuhRDX56pQfsWtt-mXjJ-419">
          <mxGeometry y="210" width="400" height="30" as="geometry" />
        </mxCell>
        <mxCell id="XuhRDX56pQfsWtt-mXjJ-444" value="FK, string" style="shape=partialRectangle;html=1;whiteSpace=wrap;connectable=0;fillColor=none;top=0;left=0;bottom=0;right=0;overflow=hidden;strokeColor=inherit;fontSize=16;" vertex="1" parent="XuhRDX56pQfsWtt-mXjJ-443">
          <mxGeometry width="89" height="30" as="geometry">
            <mxRectangle width="89" height="30" as="alternateBounds" />
          </mxGeometry>
        </mxCell>
        <mxCell id="XuhRDX56pQfsWtt-mXjJ-445" value="Projetos" style="shape=partialRectangle;html=1;whiteSpace=wrap;connectable=0;fillColor=none;top=0;left=0;bottom=0;right=0;align=left;spacingLeft=6;overflow=hidden;strokeColor=inherit;fontSize=16;" vertex="1" parent="XuhRDX56pQfsWtt-mXjJ-443">
          <mxGeometry x="89" width="311" height="30" as="geometry">
            <mxRectangle width="311" height="30" as="alternateBounds" />
          </mxGeometry>
        </mxCell>
        <mxCell id="XuhRDX56pQfsWtt-mXjJ-446" style="shape=tableRow;horizontal=0;startSize=0;swimlaneHead=0;swimlaneBody=0;top=0;left=0;bottom=0;right=0;collapsible=0;dropTarget=0;fillColor=none;points=[[0,0.5],[1,0.5]];portConstraint=eastwest;strokeColor=inherit;fontSize=16;" vertex="1" parent="XuhRDX56pQfsWtt-mXjJ-419">
          <mxGeometry y="240" width="400" height="30" as="geometry" />
        </mxCell>
        <mxCell id="XuhRDX56pQfsWtt-mXjJ-447" value=", string" style="shape=partialRectangle;html=1;whiteSpace=wrap;connectable=0;fillColor=none;top=0;left=0;bottom=0;right=0;overflow=hidden;strokeColor=inherit;fontSize=16;" vertex="1" parent="XuhRDX56pQfsWtt-mXjJ-446">
          <mxGeometry width="89" height="30" as="geometry">
            <mxRectangle width="89" height="30" as="alternateBounds" />
          </mxGeometry>
        </mxCell>
        <mxCell id="XuhRDX56pQfsWtt-mXjJ-448" value="Próxima Tarefa" style="shape=partialRectangle;html=1;whiteSpace=wrap;connectable=0;fillColor=none;top=0;left=0;bottom=0;right=0;align=left;spacingLeft=6;overflow=hidden;strokeColor=inherit;fontSize=16;" vertex="1" parent="XuhRDX56pQfsWtt-mXjJ-446">
          <mxGeometry x="89" width="311" height="30" as="geometry">
            <mxRectangle width="311" height="30" as="alternateBounds" />
          </mxGeometry>
        </mxCell>
        <mxCell id="XuhRDX56pQfsWtt-mXjJ-449" style="shape=tableRow;horizontal=0;startSize=0;swimlaneHead=0;swimlaneBody=0;top=0;left=0;bottom=0;right=0;collapsible=0;dropTarget=0;fillColor=none;points=[[0,0.5],[1,0.5]];portConstraint=eastwest;strokeColor=inherit;fontSize=16;" vertex="1" parent="XuhRDX56pQfsWtt-mXjJ-419">
          <mxGeometry y="270" width="400" height="30" as="geometry" />
        </mxCell>
        <mxCell id="XuhRDX56pQfsWtt-mXjJ-450" value=", string" style="shape=partialRectangle;html=1;whiteSpace=wrap;connectable=0;fillColor=none;top=0;left=0;bottom=0;right=0;overflow=hidden;strokeColor=inherit;fontSize=16;" vertex="1" parent="XuhRDX56pQfsWtt-mXjJ-449">
          <mxGeometry width="89" height="30" as="geometry">
            <mxRectangle width="89" height="30" as="alternateBounds" />
          </mxGeometry>
        </mxCell>
        <mxCell id="XuhRDX56pQfsWtt-mXjJ-451" value="Tarefa Anterior" style="shape=partialRectangle;html=1;whiteSpace=wrap;connectable=0;fillColor=none;top=0;left=0;bottom=0;right=0;align=left;spacingLeft=6;overflow=hidden;strokeColor=inherit;fontSize=16;" vertex="1" parent="XuhRDX56pQfsWtt-mXjJ-449">
          <mxGeometry x="89" width="311" height="30" as="geometry">
            <mxRectangle width="311" height="30" as="alternateBounds" />
          </mxGeometry>
        </mxCell>
        <mxCell id="XuhRDX56pQfsWtt-mXjJ-452" style="shape=tableRow;horizontal=0;startSize=0;swimlaneHead=0;swimlaneBody=0;top=0;left=0;bottom=0;right=0;collapsible=0;dropTarget=0;fillColor=none;points=[[0,0.5],[1,0.5]];portConstraint=eastwest;strokeColor=inherit;fontSize=16;" vertex="1" parent="XuhRDX56pQfsWtt-mXjJ-419">
          <mxGeometry y="300" width="400" height="30" as="geometry" />
        </mxCell>
        <mxCell id="XuhRDX56pQfsWtt-mXjJ-453" value="FK, string" style="shape=partialRectangle;html=1;whiteSpace=wrap;connectable=0;fillColor=none;top=0;left=0;bottom=0;right=0;overflow=hidden;strokeColor=inherit;fontSize=16;" vertex="1" parent="XuhRDX56pQfsWtt-mXjJ-452">
          <mxGeometry width="89" height="30" as="geometry">
            <mxRectangle width="89" height="30" as="alternateBounds" />
          </mxGeometry>
        </mxCell>
        <mxCell id="XuhRDX56pQfsWtt-mXjJ-454" value="Classificação Geral (Sub Área)" style="shape=partialRectangle;html=1;whiteSpace=wrap;connectable=0;fillColor=none;top=0;left=0;bottom=0;right=0;align=left;spacingLeft=6;overflow=hidden;strokeColor=inherit;fontSize=16;" vertex="1" parent="XuhRDX56pQfsWtt-mXjJ-452">
          <mxGeometry x="89" width="311" height="30" as="geometry">
            <mxRectangle width="311" height="30" as="alternateBounds" />
          </mxGeometry>
        </mxCell>
        <mxCell id="XuhRDX56pQfsWtt-mXjJ-432" value="" style="edgeStyle=orthogonalEdgeStyle;fontSize=12;html=1;endArrow=ERmany;startArrow=ERmany;rounded=0;entryX=0;entryY=0.5;entryDx=0;entryDy=0;exitX=1;exitY=0.5;exitDx=0;exitDy=0;" edge="1" parent="1" source="XuhRDX56pQfsWtt-mXjJ-429" target="XuhRDX56pQfsWtt-mXjJ-335">
          <mxGeometry width="100" height="100" relative="1" as="geometry">
            <mxPoint x="439" y="420" as="sourcePoint" />
            <mxPoint x="1239" y="1140" as="targetPoint" />
            <Array as="points">
              <mxPoint x="540" y="415" />
              <mxPoint x="540" y="1145" />
            </Array>
          </mxGeometry>
        </mxCell>
        <mxCell id="XuhRDX56pQfsWtt-mXjJ-464" value="" style="edgeStyle=orthogonalEdgeStyle;fontSize=12;html=1;endArrow=ERone;endFill=1;rounded=0;entryX=1;entryY=0.5;entryDx=0;entryDy=0;exitX=0;exitY=0.5;exitDx=0;exitDy=0;" edge="1" parent="1" source="XuhRDX56pQfsWtt-mXjJ-583" target="XuhRDX56pQfsWtt-mXjJ-437">
          <mxGeometry width="100" height="100" relative="1" as="geometry">
            <mxPoint x="1370" y="670" as="sourcePoint" />
            <mxPoint x="1089" y="190" as="targetPoint" />
            <Array as="points">
              <mxPoint x="1370" y="705" />
              <mxPoint x="1370" y="175" />
            </Array>
          </mxGeometry>
        </mxCell>
        <mxCell id="XuhRDX56pQfsWtt-mXjJ-468" value="" style="edgeStyle=orthogonalEdgeStyle;fontSize=12;html=1;endArrow=ERmany;startArrow=ERmany;rounded=0;exitX=1;exitY=0.5;exitDx=0;exitDy=0;entryX=0;entryY=0.5;entryDx=0;entryDy=0;" edge="1" parent="1" source="XuhRDX56pQfsWtt-mXjJ-452" target="XuhRDX56pQfsWtt-mXjJ-465">
          <mxGeometry width="100" height="100" relative="1" as="geometry">
            <mxPoint x="1109" y="390" as="sourcePoint" />
            <mxPoint x="1209" y="290" as="targetPoint" />
            <Array as="points">
              <mxPoint x="1060" y="325" />
              <mxPoint x="1060" y="1175" />
            </Array>
          </mxGeometry>
        </mxCell>
        <mxCell id="XuhRDX56pQfsWtt-mXjJ-472" value="" style="edgeStyle=orthogonalEdgeStyle;fontSize=12;html=1;endArrow=ERoneToMany;rounded=0;exitX=1;exitY=0.5;exitDx=0;exitDy=0;entryX=0;entryY=0.5;entryDx=0;entryDy=0;" edge="1" parent="1" source="XuhRDX56pQfsWtt-mXjJ-339" target="XuhRDX56pQfsWtt-mXjJ-443">
          <mxGeometry width="100" height="100" relative="1" as="geometry">
            <mxPoint x="479" y="170" as="sourcePoint" />
            <mxPoint x="579" y="70" as="targetPoint" />
            <Array as="points">
              <mxPoint x="520" y="55" />
              <mxPoint x="520" y="235" />
            </Array>
          </mxGeometry>
        </mxCell>
        <mxCell id="XuhRDX56pQfsWtt-mXjJ-475" value="" style="edgeStyle=orthogonalEdgeStyle;fontSize=12;html=1;endArrow=ERoneToMany;rounded=0;exitX=1;exitY=0.5;exitDx=0;exitDy=0;entryX=0;entryY=0.5;entryDx=0;entryDy=0;" edge="1" parent="1" source="XuhRDX56pQfsWtt-mXjJ-44" target="XuhRDX56pQfsWtt-mXjJ-195">
          <mxGeometry width="100" height="100" relative="1" as="geometry">
            <mxPoint x="399" y="730" as="sourcePoint" />
            <mxPoint x="598" y="700" as="targetPoint" />
            <Array as="points">
              <mxPoint x="490" y="685" />
              <mxPoint x="490" y="655" />
            </Array>
          </mxGeometry>
        </mxCell>
        <mxCell id="XuhRDX56pQfsWtt-mXjJ-476" value="Cíclo de Gestão do Tempo" style="shape=table;startSize=30;container=1;collapsible=0;childLayout=tableLayout;fixedRows=1;rowLines=0;fontStyle=0;strokeColor=default;fontSize=16;" vertex="1" parent="1">
          <mxGeometry x="10" y="1800" width="400" height="300" as="geometry" />
        </mxCell>
        <mxCell id="XuhRDX56pQfsWtt-mXjJ-477" value="" style="shape=tableRow;horizontal=0;startSize=0;swimlaneHead=0;swimlaneBody=0;top=0;left=0;bottom=0;right=0;collapsible=0;dropTarget=0;fillColor=none;points=[[0,0.5],[1,0.5]];portConstraint=eastwest;strokeColor=inherit;fontSize=16;" vertex="1" parent="XuhRDX56pQfsWtt-mXjJ-476">
          <mxGeometry y="30" width="400" height="30" as="geometry" />
        </mxCell>
        <mxCell id="XuhRDX56pQfsWtt-mXjJ-478" value="PK, string" style="shape=partialRectangle;html=1;whiteSpace=wrap;connectable=0;fillColor=none;top=0;left=0;bottom=0;right=0;overflow=hidden;pointerEvents=1;strokeColor=inherit;fontSize=16;" vertex="1" parent="XuhRDX56pQfsWtt-mXjJ-477">
          <mxGeometry width="89" height="30" as="geometry">
            <mxRectangle width="89" height="30" as="alternateBounds" />
          </mxGeometry>
        </mxCell>
        <mxCell id="XuhRDX56pQfsWtt-mXjJ-479" value="Nome" style="shape=partialRectangle;html=1;whiteSpace=wrap;connectable=0;fillColor=none;top=0;left=0;bottom=0;right=0;align=left;spacingLeft=6;overflow=hidden;strokeColor=inherit;fontSize=16;" vertex="1" parent="XuhRDX56pQfsWtt-mXjJ-477">
          <mxGeometry x="89" width="311" height="30" as="geometry">
            <mxRectangle width="311" height="30" as="alternateBounds" />
          </mxGeometry>
        </mxCell>
        <mxCell id="XuhRDX56pQfsWtt-mXjJ-480" value="" style="shape=tableRow;horizontal=0;startSize=0;swimlaneHead=0;swimlaneBody=0;top=0;left=0;bottom=0;right=0;collapsible=0;dropTarget=0;fillColor=none;points=[[0,0.5],[1,0.5]];portConstraint=eastwest;strokeColor=inherit;fontSize=16;" vertex="1" parent="XuhRDX56pQfsWtt-mXjJ-476">
          <mxGeometry y="60" width="400" height="30" as="geometry" />
        </mxCell>
        <mxCell id="XuhRDX56pQfsWtt-mXjJ-481" value="FK, string" style="shape=partialRectangle;html=1;whiteSpace=wrap;connectable=0;fillColor=none;top=0;left=0;bottom=0;right=0;overflow=hidden;strokeColor=inherit;fontSize=16;" vertex="1" parent="XuhRDX56pQfsWtt-mXjJ-480">
          <mxGeometry width="89" height="30" as="geometry">
            <mxRectangle width="89" height="30" as="alternateBounds" />
          </mxGeometry>
        </mxCell>
        <mxCell id="XuhRDX56pQfsWtt-mXjJ-482" value="Status" style="shape=partialRectangle;html=1;whiteSpace=wrap;connectable=0;fillColor=none;top=0;left=0;bottom=0;right=0;align=left;spacingLeft=6;overflow=hidden;strokeColor=inherit;fontSize=16;" vertex="1" parent="XuhRDX56pQfsWtt-mXjJ-480">
          <mxGeometry x="89" width="311" height="30" as="geometry">
            <mxRectangle width="311" height="30" as="alternateBounds" />
          </mxGeometry>
        </mxCell>
        <mxCell id="XuhRDX56pQfsWtt-mXjJ-483" value="" style="shape=tableRow;horizontal=0;startSize=0;swimlaneHead=0;swimlaneBody=0;top=0;left=0;bottom=0;right=0;collapsible=0;dropTarget=0;fillColor=none;points=[[0,0.5],[1,0.5]];portConstraint=eastwest;strokeColor=inherit;fontSize=16;" vertex="1" parent="XuhRDX56pQfsWtt-mXjJ-476">
          <mxGeometry y="90" width="400" height="30" as="geometry" />
        </mxCell>
        <mxCell id="XuhRDX56pQfsWtt-mXjJ-484" value="FK, date" style="shape=partialRectangle;html=1;whiteSpace=wrap;connectable=0;fillColor=none;top=0;left=0;bottom=0;right=0;overflow=hidden;strokeColor=inherit;fontSize=16;" vertex="1" parent="XuhRDX56pQfsWtt-mXjJ-483">
          <mxGeometry width="89" height="30" as="geometry">
            <mxRectangle width="89" height="30" as="alternateBounds" />
          </mxGeometry>
        </mxCell>
        <mxCell id="XuhRDX56pQfsWtt-mXjJ-485" value="Hora Total Alocada" style="shape=partialRectangle;html=1;whiteSpace=wrap;connectable=0;fillColor=none;top=0;left=0;bottom=0;right=0;align=left;spacingLeft=6;overflow=hidden;strokeColor=inherit;fontSize=16;" vertex="1" parent="XuhRDX56pQfsWtt-mXjJ-483">
          <mxGeometry x="89" width="311" height="30" as="geometry">
            <mxRectangle width="311" height="30" as="alternateBounds" />
          </mxGeometry>
        </mxCell>
        <mxCell id="XuhRDX56pQfsWtt-mXjJ-496" style="shape=tableRow;horizontal=0;startSize=0;swimlaneHead=0;swimlaneBody=0;top=0;left=0;bottom=0;right=0;collapsible=0;dropTarget=0;fillColor=none;points=[[0,0.5],[1,0.5]];portConstraint=eastwest;strokeColor=inherit;fontSize=16;" vertex="1" parent="XuhRDX56pQfsWtt-mXjJ-476">
          <mxGeometry y="120" width="400" height="30" as="geometry" />
        </mxCell>
        <mxCell id="XuhRDX56pQfsWtt-mXjJ-497" value=", date" style="shape=partialRectangle;html=1;whiteSpace=wrap;connectable=0;fillColor=none;top=0;left=0;bottom=0;right=0;overflow=hidden;strokeColor=inherit;fontSize=16;" vertex="1" parent="XuhRDX56pQfsWtt-mXjJ-496">
          <mxGeometry width="89" height="30" as="geometry">
            <mxRectangle width="89" height="30" as="alternateBounds" />
          </mxGeometry>
        </mxCell>
        <mxCell id="XuhRDX56pQfsWtt-mXjJ-498" value="Iniciada em" style="shape=partialRectangle;html=1;whiteSpace=wrap;connectable=0;fillColor=none;top=0;left=0;bottom=0;right=0;align=left;spacingLeft=6;overflow=hidden;strokeColor=inherit;fontSize=16;" vertex="1" parent="XuhRDX56pQfsWtt-mXjJ-496">
          <mxGeometry x="89" width="311" height="30" as="geometry">
            <mxRectangle width="311" height="30" as="alternateBounds" />
          </mxGeometry>
        </mxCell>
        <mxCell id="XuhRDX56pQfsWtt-mXjJ-499" style="shape=tableRow;horizontal=0;startSize=0;swimlaneHead=0;swimlaneBody=0;top=0;left=0;bottom=0;right=0;collapsible=0;dropTarget=0;fillColor=none;points=[[0,0.5],[1,0.5]];portConstraint=eastwest;strokeColor=inherit;fontSize=16;" vertex="1" parent="XuhRDX56pQfsWtt-mXjJ-476">
          <mxGeometry y="150" width="400" height="30" as="geometry" />
        </mxCell>
        <mxCell id="XuhRDX56pQfsWtt-mXjJ-500" value="∑, int" style="shape=partialRectangle;html=1;whiteSpace=wrap;connectable=0;fillColor=none;top=0;left=0;bottom=0;right=0;overflow=hidden;strokeColor=inherit;fontSize=16;" vertex="1" parent="XuhRDX56pQfsWtt-mXjJ-499">
          <mxGeometry width="89" height="30" as="geometry">
            <mxRectangle width="89" height="30" as="alternateBounds" />
          </mxGeometry>
        </mxCell>
        <mxCell id="XuhRDX56pQfsWtt-mXjJ-501" value="Dias do Cíclo" style="shape=partialRectangle;html=1;whiteSpace=wrap;connectable=0;fillColor=none;top=0;left=0;bottom=0;right=0;align=left;spacingLeft=6;overflow=hidden;strokeColor=inherit;fontSize=16;" vertex="1" parent="XuhRDX56pQfsWtt-mXjJ-499">
          <mxGeometry x="89" width="311" height="30" as="geometry">
            <mxRectangle width="311" height="30" as="alternateBounds" />
          </mxGeometry>
        </mxCell>
        <mxCell id="XuhRDX56pQfsWtt-mXjJ-502" style="shape=tableRow;horizontal=0;startSize=0;swimlaneHead=0;swimlaneBody=0;top=0;left=0;bottom=0;right=0;collapsible=0;dropTarget=0;fillColor=none;points=[[0,0.5],[1,0.5]];portConstraint=eastwest;strokeColor=inherit;fontSize=16;" vertex="1" parent="XuhRDX56pQfsWtt-mXjJ-476">
          <mxGeometry y="180" width="400" height="30" as="geometry" />
        </mxCell>
        <mxCell id="XuhRDX56pQfsWtt-mXjJ-503" value="FK, string" style="shape=partialRectangle;html=1;whiteSpace=wrap;connectable=0;fillColor=none;top=0;left=0;bottom=0;right=0;overflow=hidden;strokeColor=inherit;fontSize=16;" vertex="1" parent="XuhRDX56pQfsWtt-mXjJ-502">
          <mxGeometry width="89" height="30" as="geometry">
            <mxRectangle width="89" height="30" as="alternateBounds" />
          </mxGeometry>
        </mxCell>
        <mxCell id="XuhRDX56pQfsWtt-mXjJ-504" value="Concluído em" style="shape=partialRectangle;html=1;whiteSpace=wrap;connectable=0;fillColor=none;top=0;left=0;bottom=0;right=0;align=left;spacingLeft=6;overflow=hidden;strokeColor=inherit;fontSize=16;" vertex="1" parent="XuhRDX56pQfsWtt-mXjJ-502">
          <mxGeometry x="89" width="311" height="30" as="geometry">
            <mxRectangle width="311" height="30" as="alternateBounds" />
          </mxGeometry>
        </mxCell>
        <mxCell id="XuhRDX56pQfsWtt-mXjJ-505" style="shape=tableRow;horizontal=0;startSize=0;swimlaneHead=0;swimlaneBody=0;top=0;left=0;bottom=0;right=0;collapsible=0;dropTarget=0;fillColor=none;points=[[0,0.5],[1,0.5]];portConstraint=eastwest;strokeColor=inherit;fontSize=16;" vertex="1" parent="XuhRDX56pQfsWtt-mXjJ-476">
          <mxGeometry y="210" width="400" height="30" as="geometry" />
        </mxCell>
        <mxCell id="XuhRDX56pQfsWtt-mXjJ-506" value="∑, int" style="shape=partialRectangle;html=1;whiteSpace=wrap;connectable=0;fillColor=none;top=0;left=0;bottom=0;right=0;overflow=hidden;strokeColor=inherit;fontSize=16;" vertex="1" parent="XuhRDX56pQfsWtt-mXjJ-505">
          <mxGeometry width="89" height="30" as="geometry">
            <mxRectangle width="89" height="30" as="alternateBounds" />
          </mxGeometry>
        </mxCell>
        <mxCell id="XuhRDX56pQfsWtt-mXjJ-507" value="Velocidade do Cíclo" style="shape=partialRectangle;html=1;whiteSpace=wrap;connectable=0;fillColor=none;top=0;left=0;bottom=0;right=0;align=left;spacingLeft=6;overflow=hidden;strokeColor=inherit;fontSize=16;" vertex="1" parent="XuhRDX56pQfsWtt-mXjJ-505">
          <mxGeometry x="89" width="311" height="30" as="geometry">
            <mxRectangle width="311" height="30" as="alternateBounds" />
          </mxGeometry>
        </mxCell>
        <mxCell id="XuhRDX56pQfsWtt-mXjJ-508" style="shape=tableRow;horizontal=0;startSize=0;swimlaneHead=0;swimlaneBody=0;top=0;left=0;bottom=0;right=0;collapsible=0;dropTarget=0;fillColor=none;points=[[0,0.5],[1,0.5]];portConstraint=eastwest;strokeColor=inherit;fontSize=16;" vertex="1" parent="XuhRDX56pQfsWtt-mXjJ-476">
          <mxGeometry y="240" width="400" height="30" as="geometry" />
        </mxCell>
        <mxCell id="XuhRDX56pQfsWtt-mXjJ-509" value="∑, int" style="shape=partialRectangle;html=1;whiteSpace=wrap;connectable=0;fillColor=none;top=0;left=0;bottom=0;right=0;overflow=hidden;strokeColor=inherit;fontSize=16;" vertex="1" parent="XuhRDX56pQfsWtt-mXjJ-508">
          <mxGeometry width="89" height="30" as="geometry">
            <mxRectangle width="89" height="30" as="alternateBounds" />
          </mxGeometry>
        </mxCell>
        <mxCell id="XuhRDX56pQfsWtt-mXjJ-510" value="Hora Média/Dia Cíclo" style="shape=partialRectangle;html=1;whiteSpace=wrap;connectable=0;fillColor=none;top=0;left=0;bottom=0;right=0;align=left;spacingLeft=6;overflow=hidden;strokeColor=inherit;fontSize=16;" vertex="1" parent="XuhRDX56pQfsWtt-mXjJ-508">
          <mxGeometry x="89" width="311" height="30" as="geometry">
            <mxRectangle width="311" height="30" as="alternateBounds" />
          </mxGeometry>
        </mxCell>
        <mxCell id="XuhRDX56pQfsWtt-mXjJ-511" style="shape=tableRow;horizontal=0;startSize=0;swimlaneHead=0;swimlaneBody=0;top=0;left=0;bottom=0;right=0;collapsible=0;dropTarget=0;fillColor=none;points=[[0,0.5],[1,0.5]];portConstraint=eastwest;strokeColor=inherit;fontSize=16;" vertex="1" parent="XuhRDX56pQfsWtt-mXjJ-476">
          <mxGeometry y="270" width="400" height="30" as="geometry" />
        </mxCell>
        <mxCell id="XuhRDX56pQfsWtt-mXjJ-512" value="∑, string" style="shape=partialRectangle;html=1;whiteSpace=wrap;connectable=0;fillColor=none;top=0;left=0;bottom=0;right=0;overflow=hidden;strokeColor=inherit;fontSize=16;" vertex="1" parent="XuhRDX56pQfsWtt-mXjJ-511">
          <mxGeometry width="89" height="30" as="geometry">
            <mxRectangle width="89" height="30" as="alternateBounds" />
          </mxGeometry>
        </mxCell>
        <mxCell id="XuhRDX56pQfsWtt-mXjJ-513" value="Resultado do Cíclo" style="shape=partialRectangle;html=1;whiteSpace=wrap;connectable=0;fillColor=none;top=0;left=0;bottom=0;right=0;align=left;spacingLeft=6;overflow=hidden;strokeColor=inherit;fontSize=16;" vertex="1" parent="XuhRDX56pQfsWtt-mXjJ-511">
          <mxGeometry x="89" width="311" height="30" as="geometry">
            <mxRectangle width="311" height="30" as="alternateBounds" />
          </mxGeometry>
        </mxCell>
        <mxCell id="XuhRDX56pQfsWtt-mXjJ-486" value="Fragmentação da Gestão do Tempo" style="shape=table;startSize=30;container=1;collapsible=0;childLayout=tableLayout;fixedRows=1;rowLines=0;fontStyle=0;strokeColor=default;fontSize=16;" vertex="1" parent="1">
          <mxGeometry x="609" y="1800" width="400" height="180" as="geometry" />
        </mxCell>
        <mxCell id="XuhRDX56pQfsWtt-mXjJ-487" value="" style="shape=tableRow;horizontal=0;startSize=0;swimlaneHead=0;swimlaneBody=0;top=0;left=0;bottom=0;right=0;collapsible=0;dropTarget=0;fillColor=none;points=[[0,0.5],[1,0.5]];portConstraint=eastwest;strokeColor=inherit;fontSize=16;" vertex="1" parent="XuhRDX56pQfsWtt-mXjJ-486">
          <mxGeometry y="30" width="400" height="30" as="geometry" />
        </mxCell>
        <mxCell id="XuhRDX56pQfsWtt-mXjJ-488" value="PK, string" style="shape=partialRectangle;html=1;whiteSpace=wrap;connectable=0;fillColor=none;top=0;left=0;bottom=0;right=0;overflow=hidden;pointerEvents=1;strokeColor=inherit;fontSize=16;" vertex="1" parent="XuhRDX56pQfsWtt-mXjJ-487">
          <mxGeometry width="89" height="30" as="geometry">
            <mxRectangle width="89" height="30" as="alternateBounds" />
          </mxGeometry>
        </mxCell>
        <mxCell id="XuhRDX56pQfsWtt-mXjJ-489" value="Nome" style="shape=partialRectangle;html=1;whiteSpace=wrap;connectable=0;fillColor=none;top=0;left=0;bottom=0;right=0;align=left;spacingLeft=6;overflow=hidden;strokeColor=inherit;fontSize=16;" vertex="1" parent="XuhRDX56pQfsWtt-mXjJ-487">
          <mxGeometry x="89" width="311" height="30" as="geometry">
            <mxRectangle width="311" height="30" as="alternateBounds" />
          </mxGeometry>
        </mxCell>
        <mxCell id="XuhRDX56pQfsWtt-mXjJ-490" value="" style="shape=tableRow;horizontal=0;startSize=0;swimlaneHead=0;swimlaneBody=0;top=0;left=0;bottom=0;right=0;collapsible=0;dropTarget=0;fillColor=none;points=[[0,0.5],[1,0.5]];portConstraint=eastwest;strokeColor=inherit;fontSize=16;" vertex="1" parent="XuhRDX56pQfsWtt-mXjJ-486">
          <mxGeometry y="60" width="400" height="30" as="geometry" />
        </mxCell>
        <mxCell id="XuhRDX56pQfsWtt-mXjJ-491" value=", float" style="shape=partialRectangle;html=1;whiteSpace=wrap;connectable=0;fillColor=none;top=0;left=0;bottom=0;right=0;overflow=hidden;strokeColor=inherit;fontSize=16;" vertex="1" parent="XuhRDX56pQfsWtt-mXjJ-490">
          <mxGeometry width="89" height="30" as="geometry">
            <mxRectangle width="89" height="30" as="alternateBounds" />
          </mxGeometry>
        </mxCell>
        <mxCell id="XuhRDX56pQfsWtt-mXjJ-492" value="Tempo Centesimal Alocado" style="shape=partialRectangle;html=1;whiteSpace=wrap;connectable=0;fillColor=none;top=0;left=0;bottom=0;right=0;align=left;spacingLeft=6;overflow=hidden;strokeColor=inherit;fontSize=16;" vertex="1" parent="XuhRDX56pQfsWtt-mXjJ-490">
          <mxGeometry x="89" width="311" height="30" as="geometry">
            <mxRectangle width="311" height="30" as="alternateBounds" />
          </mxGeometry>
        </mxCell>
        <mxCell id="XuhRDX56pQfsWtt-mXjJ-620" value="" style="shape=tableRow;horizontal=0;startSize=0;swimlaneHead=0;swimlaneBody=0;top=0;left=0;bottom=0;right=0;collapsible=0;dropTarget=0;fillColor=none;points=[[0,0.5],[1,0.5]];portConstraint=eastwest;strokeColor=inherit;fontSize=16;" vertex="1" parent="XuhRDX56pQfsWtt-mXjJ-486">
          <mxGeometry y="90" width="400" height="30" as="geometry" />
        </mxCell>
        <mxCell id="XuhRDX56pQfsWtt-mXjJ-621" value="FK, string" style="shape=partialRectangle;html=1;whiteSpace=wrap;connectable=0;fillColor=none;top=0;left=0;bottom=0;right=0;overflow=hidden;strokeColor=inherit;fontSize=16;" vertex="1" parent="XuhRDX56pQfsWtt-mXjJ-620">
          <mxGeometry width="89" height="30" as="geometry">
            <mxRectangle width="89" height="30" as="alternateBounds" />
          </mxGeometry>
        </mxCell>
        <mxCell id="XuhRDX56pQfsWtt-mXjJ-622" value="Status" style="shape=partialRectangle;html=1;whiteSpace=wrap;connectable=0;fillColor=none;top=0;left=0;bottom=0;right=0;align=left;spacingLeft=6;overflow=hidden;strokeColor=inherit;fontSize=16;" vertex="1" parent="XuhRDX56pQfsWtt-mXjJ-620">
          <mxGeometry x="89" width="311" height="30" as="geometry">
            <mxRectangle width="311" height="30" as="alternateBounds" />
          </mxGeometry>
        </mxCell>
        <mxCell id="XuhRDX56pQfsWtt-mXjJ-493" value="" style="shape=tableRow;horizontal=0;startSize=0;swimlaneHead=0;swimlaneBody=0;top=0;left=0;bottom=0;right=0;collapsible=0;dropTarget=0;fillColor=none;points=[[0,0.5],[1,0.5]];portConstraint=eastwest;strokeColor=inherit;fontSize=16;" vertex="1" parent="XuhRDX56pQfsWtt-mXjJ-486">
          <mxGeometry y="120" width="400" height="30" as="geometry" />
        </mxCell>
        <mxCell id="XuhRDX56pQfsWtt-mXjJ-494" value=", date" style="shape=partialRectangle;html=1;whiteSpace=wrap;connectable=0;fillColor=none;top=0;left=0;bottom=0;right=0;overflow=hidden;strokeColor=inherit;fontSize=16;" vertex="1" parent="XuhRDX56pQfsWtt-mXjJ-493">
          <mxGeometry width="89" height="30" as="geometry">
            <mxRectangle width="89" height="30" as="alternateBounds" />
          </mxGeometry>
        </mxCell>
        <mxCell id="XuhRDX56pQfsWtt-mXjJ-495" value="Realizado em" style="shape=partialRectangle;html=1;whiteSpace=wrap;connectable=0;fillColor=none;top=0;left=0;bottom=0;right=0;align=left;spacingLeft=6;overflow=hidden;strokeColor=inherit;fontSize=16;" vertex="1" parent="XuhRDX56pQfsWtt-mXjJ-493">
          <mxGeometry x="89" width="311" height="30" as="geometry">
            <mxRectangle width="311" height="30" as="alternateBounds" />
          </mxGeometry>
        </mxCell>
        <mxCell id="XuhRDX56pQfsWtt-mXjJ-538" style="shape=tableRow;horizontal=0;startSize=0;swimlaneHead=0;swimlaneBody=0;top=0;left=0;bottom=0;right=0;collapsible=0;dropTarget=0;fillColor=none;points=[[0,0.5],[1,0.5]];portConstraint=eastwest;strokeColor=inherit;fontSize=16;" vertex="1" parent="XuhRDX56pQfsWtt-mXjJ-486">
          <mxGeometry y="150" width="400" height="30" as="geometry" />
        </mxCell>
        <mxCell id="XuhRDX56pQfsWtt-mXjJ-539" value="FK, string" style="shape=partialRectangle;html=1;whiteSpace=wrap;connectable=0;fillColor=none;top=0;left=0;bottom=0;right=0;overflow=hidden;strokeColor=inherit;fontSize=16;" vertex="1" parent="XuhRDX56pQfsWtt-mXjJ-538">
          <mxGeometry width="89" height="30" as="geometry">
            <mxRectangle width="89" height="30" as="alternateBounds" />
          </mxGeometry>
        </mxCell>
        <mxCell id="XuhRDX56pQfsWtt-mXjJ-540" value="Cíclo de Estudo" style="shape=partialRectangle;html=1;whiteSpace=wrap;connectable=0;fillColor=none;top=0;left=0;bottom=0;right=0;align=left;spacingLeft=6;overflow=hidden;strokeColor=inherit;fontSize=16;" vertex="1" parent="XuhRDX56pQfsWtt-mXjJ-538">
          <mxGeometry x="89" width="311" height="30" as="geometry">
            <mxRectangle width="311" height="30" as="alternateBounds" />
          </mxGeometry>
        </mxCell>
        <mxCell id="XuhRDX56pQfsWtt-mXjJ-616" value="" style="edgeStyle=orthogonalEdgeStyle;fontSize=12;html=1;endArrow=ERoneToMany;rounded=0;exitX=0;exitY=0.5;exitDx=0;exitDy=0;entryX=1;entryY=0.5;entryDx=0;entryDy=0;" edge="1" parent="1" source="XuhRDX56pQfsWtt-mXjJ-601" target="XuhRDX56pQfsWtt-mXjJ-342">
          <mxGeometry width="100" height="100" relative="1" as="geometry">
            <mxPoint x="1419" y="245" as="sourcePoint" />
            <mxPoint x="430" y="110" as="targetPoint" />
            <Array as="points">
              <mxPoint x="1230" y="295" />
              <mxPoint x="1230" y="370" />
              <mxPoint x="459" y="370" />
              <mxPoint x="459" y="85" />
            </Array>
          </mxGeometry>
        </mxCell>
        <mxCell id="XuhRDX56pQfsWtt-mXjJ-617" value="" style="edgeStyle=orthogonalEdgeStyle;fontSize=12;html=1;endArrow=ERoneToMany;rounded=0;exitX=0;exitY=0.5;exitDx=0;exitDy=0;entryX=1;entryY=0.5;entryDx=0;entryDy=0;" edge="1" parent="1" source="XuhRDX56pQfsWtt-mXjJ-604" target="XuhRDX56pQfsWtt-mXjJ-423">
          <mxGeometry width="100" height="100" relative="1" as="geometry">
            <mxPoint x="1419" y="305" as="sourcePoint" />
            <mxPoint x="1030" y="80" as="targetPoint" />
            <Array as="points">
              <mxPoint x="1310" y="325" />
              <mxPoint x="1310" y="85" />
            </Array>
          </mxGeometry>
        </mxCell>
        <mxCell id="XuhRDX56pQfsWtt-mXjJ-618" value="" style="edgeStyle=orthogonalEdgeStyle;fontSize=12;html=1;endArrow=ERoneToMany;rounded=0;exitX=0;exitY=0.5;exitDx=0;exitDy=0;entryX=1;entryY=0.5;entryDx=0;entryDy=0;" edge="1" parent="1" source="XuhRDX56pQfsWtt-mXjJ-607" target="XuhRDX56pQfsWtt-mXjJ-276">
          <mxGeometry width="100" height="100" relative="1" as="geometry">
            <mxPoint x="1419" y="305" as="sourcePoint" />
            <mxPoint x="440" y="1437.5" as="targetPoint" />
            <Array as="points">
              <mxPoint x="1290" y="355" />
              <mxPoint x="1290" y="1405" />
            </Array>
          </mxGeometry>
        </mxCell>
        <mxCell id="XuhRDX56pQfsWtt-mXjJ-619" value="" style="edgeStyle=orthogonalEdgeStyle;fontSize=12;html=1;endArrow=ERoneToMany;rounded=0;exitX=0;exitY=0.5;exitDx=0;exitDy=0;entryX=1;entryY=0.5;entryDx=0;entryDy=0;" edge="1" parent="1" source="XuhRDX56pQfsWtt-mXjJ-610" target="XuhRDX56pQfsWtt-mXjJ-480">
          <mxGeometry width="100" height="100" relative="1" as="geometry">
            <mxPoint x="1419" y="365" as="sourcePoint" />
            <mxPoint x="370" y="1770" as="targetPoint" />
            <Array as="points">
              <mxPoint x="1260" y="385" />
              <mxPoint x="1260" y="1770" />
              <mxPoint x="430" y="1770" />
              <mxPoint x="430" y="1875" />
            </Array>
          </mxGeometry>
        </mxCell>
        <mxCell id="XuhRDX56pQfsWtt-mXjJ-623" value="" style="edgeStyle=orthogonalEdgeStyle;fontSize=12;html=1;endArrow=ERoneToMany;rounded=0;exitX=1;exitY=0.5;exitDx=0;exitDy=0;entryX=0;entryY=0.5;entryDx=0;entryDy=0;" edge="1" parent="1" source="XuhRDX56pQfsWtt-mXjJ-477" target="XuhRDX56pQfsWtt-mXjJ-538">
          <mxGeometry width="100" height="100" relative="1" as="geometry">
            <mxPoint x="460" y="1990" as="sourcePoint" />
            <mxPoint x="560" y="1890" as="targetPoint" />
            <Array as="points">
              <mxPoint x="450" y="1845" />
              <mxPoint x="450" y="1965" />
            </Array>
          </mxGeometry>
        </mxCell>
        <mxCell id="XuhRDX56pQfsWtt-mXjJ-624" value="" style="edgeStyle=orthogonalEdgeStyle;fontSize=12;html=1;endArrow=ERoneToMany;rounded=0;exitX=0;exitY=0.5;exitDx=0;exitDy=0;entryX=1;entryY=0.5;entryDx=0;entryDy=0;" edge="1" parent="1" source="XuhRDX56pQfsWtt-mXjJ-613" target="XuhRDX56pQfsWtt-mXjJ-620">
          <mxGeometry width="100" height="100" relative="1" as="geometry">
            <mxPoint x="1419" y="395" as="sourcePoint" />
            <mxPoint x="420" y="1885" as="targetPoint" />
            <Array as="points">
              <mxPoint x="1090" y="415" />
              <mxPoint x="1090" y="1905" />
            </Array>
          </mxGeometry>
        </mxCell>
        <mxCell id="XuhRDX56pQfsWtt-mXjJ-625" value="Portfólio" style="shape=table;startSize=30;container=1;collapsible=0;childLayout=tableLayout;fixedRows=1;rowLines=0;fontStyle=0;strokeColor=default;fontSize=16;" vertex="1" parent="1">
          <mxGeometry x="2070" y="560" width="400" height="270" as="geometry" />
        </mxCell>
        <mxCell id="XuhRDX56pQfsWtt-mXjJ-626" value="" style="shape=tableRow;horizontal=0;startSize=0;swimlaneHead=0;swimlaneBody=0;top=0;left=0;bottom=0;right=0;collapsible=0;dropTarget=0;fillColor=none;points=[[0,0.5],[1,0.5]];portConstraint=eastwest;strokeColor=inherit;fontSize=16;" vertex="1" parent="XuhRDX56pQfsWtt-mXjJ-625">
          <mxGeometry y="30" width="400" height="30" as="geometry" />
        </mxCell>
        <mxCell id="XuhRDX56pQfsWtt-mXjJ-627" value="PK, string" style="shape=partialRectangle;html=1;whiteSpace=wrap;connectable=0;fillColor=none;top=0;left=0;bottom=0;right=0;overflow=hidden;pointerEvents=1;strokeColor=inherit;fontSize=16;" vertex="1" parent="XuhRDX56pQfsWtt-mXjJ-626">
          <mxGeometry width="89" height="30" as="geometry">
            <mxRectangle width="89" height="30" as="alternateBounds" />
          </mxGeometry>
        </mxCell>
        <mxCell id="XuhRDX56pQfsWtt-mXjJ-628" value="Nome" style="shape=partialRectangle;html=1;whiteSpace=wrap;connectable=0;fillColor=none;top=0;left=0;bottom=0;right=0;align=left;spacingLeft=6;overflow=hidden;strokeColor=inherit;fontSize=16;" vertex="1" parent="XuhRDX56pQfsWtt-mXjJ-626">
          <mxGeometry x="89" width="311" height="30" as="geometry">
            <mxRectangle width="311" height="30" as="alternateBounds" />
          </mxGeometry>
        </mxCell>
        <mxCell id="XuhRDX56pQfsWtt-mXjJ-629" value="" style="shape=tableRow;horizontal=0;startSize=0;swimlaneHead=0;swimlaneBody=0;top=0;left=0;bottom=0;right=0;collapsible=0;dropTarget=0;fillColor=none;points=[[0,0.5],[1,0.5]];portConstraint=eastwest;strokeColor=inherit;fontSize=16;" vertex="1" parent="XuhRDX56pQfsWtt-mXjJ-625">
          <mxGeometry y="60" width="400" height="30" as="geometry" />
        </mxCell>
        <mxCell id="XuhRDX56pQfsWtt-mXjJ-630" value=", string" style="shape=partialRectangle;html=1;whiteSpace=wrap;connectable=0;fillColor=none;top=0;left=0;bottom=0;right=0;overflow=hidden;strokeColor=inherit;fontSize=16;" vertex="1" parent="XuhRDX56pQfsWtt-mXjJ-629">
          <mxGeometry width="89" height="30" as="geometry">
            <mxRectangle width="89" height="30" as="alternateBounds" />
          </mxGeometry>
        </mxCell>
        <mxCell id="XuhRDX56pQfsWtt-mXjJ-631" value="Empresa" style="shape=partialRectangle;html=1;whiteSpace=wrap;connectable=0;fillColor=none;top=0;left=0;bottom=0;right=0;align=left;spacingLeft=6;overflow=hidden;strokeColor=inherit;fontSize=16;" vertex="1" parent="XuhRDX56pQfsWtt-mXjJ-629">
          <mxGeometry x="89" width="311" height="30" as="geometry">
            <mxRectangle width="311" height="30" as="alternateBounds" />
          </mxGeometry>
        </mxCell>
        <mxCell id="XuhRDX56pQfsWtt-mXjJ-632" value="" style="shape=tableRow;horizontal=0;startSize=0;swimlaneHead=0;swimlaneBody=0;top=0;left=0;bottom=0;right=0;collapsible=0;dropTarget=0;fillColor=none;points=[[0,0.5],[1,0.5]];portConstraint=eastwest;strokeColor=inherit;fontSize=16;" vertex="1" parent="XuhRDX56pQfsWtt-mXjJ-625">
          <mxGeometry y="90" width="400" height="30" as="geometry" />
        </mxCell>
        <mxCell id="XuhRDX56pQfsWtt-mXjJ-633" value="FK, string" style="shape=partialRectangle;html=1;whiteSpace=wrap;connectable=0;fillColor=none;top=0;left=0;bottom=0;right=0;overflow=hidden;strokeColor=inherit;fontSize=16;" vertex="1" parent="XuhRDX56pQfsWtt-mXjJ-632">
          <mxGeometry width="89" height="30" as="geometry">
            <mxRectangle width="89" height="30" as="alternateBounds" />
          </mxGeometry>
        </mxCell>
        <mxCell id="XuhRDX56pQfsWtt-mXjJ-634" value="Processo Seletivo" style="shape=partialRectangle;html=1;whiteSpace=wrap;connectable=0;fillColor=none;top=0;left=0;bottom=0;right=0;align=left;spacingLeft=6;overflow=hidden;strokeColor=inherit;fontSize=16;" vertex="1" parent="XuhRDX56pQfsWtt-mXjJ-632">
          <mxGeometry x="89" width="311" height="30" as="geometry">
            <mxRectangle width="311" height="30" as="alternateBounds" />
          </mxGeometry>
        </mxCell>
        <mxCell id="XuhRDX56pQfsWtt-mXjJ-635" style="shape=tableRow;horizontal=0;startSize=0;swimlaneHead=0;swimlaneBody=0;top=0;left=0;bottom=0;right=0;collapsible=0;dropTarget=0;fillColor=none;points=[[0,0.5],[1,0.5]];portConstraint=eastwest;strokeColor=inherit;fontSize=16;" vertex="1" parent="XuhRDX56pQfsWtt-mXjJ-625">
          <mxGeometry y="120" width="400" height="30" as="geometry" />
        </mxCell>
        <mxCell id="XuhRDX56pQfsWtt-mXjJ-636" value=", date" style="shape=partialRectangle;html=1;whiteSpace=wrap;connectable=0;fillColor=none;top=0;left=0;bottom=0;right=0;overflow=hidden;strokeColor=inherit;fontSize=16;" vertex="1" parent="XuhRDX56pQfsWtt-mXjJ-635">
          <mxGeometry width="89" height="30" as="geometry">
            <mxRectangle width="89" height="30" as="alternateBounds" />
          </mxGeometry>
        </mxCell>
        <mxCell id="XuhRDX56pQfsWtt-mXjJ-637" value="Data de Envio" style="shape=partialRectangle;html=1;whiteSpace=wrap;connectable=0;fillColor=none;top=0;left=0;bottom=0;right=0;align=left;spacingLeft=6;overflow=hidden;strokeColor=inherit;fontSize=16;" vertex="1" parent="XuhRDX56pQfsWtt-mXjJ-635">
          <mxGeometry x="89" width="311" height="30" as="geometry">
            <mxRectangle width="311" height="30" as="alternateBounds" />
          </mxGeometry>
        </mxCell>
        <mxCell id="XuhRDX56pQfsWtt-mXjJ-638" style="shape=tableRow;horizontal=0;startSize=0;swimlaneHead=0;swimlaneBody=0;top=0;left=0;bottom=0;right=0;collapsible=0;dropTarget=0;fillColor=none;points=[[0,0.5],[1,0.5]];portConstraint=eastwest;strokeColor=inherit;fontSize=16;" vertex="1" parent="XuhRDX56pQfsWtt-mXjJ-625">
          <mxGeometry y="150" width="400" height="30" as="geometry" />
        </mxCell>
        <mxCell id="XuhRDX56pQfsWtt-mXjJ-639" value=", bool" style="shape=partialRectangle;html=1;whiteSpace=wrap;connectable=0;fillColor=none;top=0;left=0;bottom=0;right=0;overflow=hidden;strokeColor=inherit;fontSize=16;" vertex="1" parent="XuhRDX56pQfsWtt-mXjJ-638">
          <mxGeometry width="89" height="30" as="geometry">
            <mxRectangle width="89" height="30" as="alternateBounds" />
          </mxGeometry>
        </mxCell>
        <mxCell id="XuhRDX56pQfsWtt-mXjJ-640" value="Retorno" style="shape=partialRectangle;html=1;whiteSpace=wrap;connectable=0;fillColor=none;top=0;left=0;bottom=0;right=0;align=left;spacingLeft=6;overflow=hidden;strokeColor=inherit;fontSize=16;" vertex="1" parent="XuhRDX56pQfsWtt-mXjJ-638">
          <mxGeometry x="89" width="311" height="30" as="geometry">
            <mxRectangle width="311" height="30" as="alternateBounds" />
          </mxGeometry>
        </mxCell>
        <mxCell id="XuhRDX56pQfsWtt-mXjJ-659" style="shape=tableRow;horizontal=0;startSize=0;swimlaneHead=0;swimlaneBody=0;top=0;left=0;bottom=0;right=0;collapsible=0;dropTarget=0;fillColor=none;points=[[0,0.5],[1,0.5]];portConstraint=eastwest;strokeColor=inherit;fontSize=16;" vertex="1" parent="XuhRDX56pQfsWtt-mXjJ-625">
          <mxGeometry y="180" width="400" height="30" as="geometry" />
        </mxCell>
        <mxCell id="XuhRDX56pQfsWtt-mXjJ-660" value=", date" style="shape=partialRectangle;html=1;whiteSpace=wrap;connectable=0;fillColor=none;top=0;left=0;bottom=0;right=0;overflow=hidden;strokeColor=inherit;fontSize=16;" vertex="1" parent="XuhRDX56pQfsWtt-mXjJ-659">
          <mxGeometry width="89" height="30" as="geometry">
            <mxRectangle width="89" height="30" as="alternateBounds" />
          </mxGeometry>
        </mxCell>
        <mxCell id="XuhRDX56pQfsWtt-mXjJ-661" value="Data do Retorno do Envio do Port" style="shape=partialRectangle;html=1;whiteSpace=wrap;connectable=0;fillColor=none;top=0;left=0;bottom=0;right=0;align=left;spacingLeft=6;overflow=hidden;strokeColor=inherit;fontSize=16;" vertex="1" parent="XuhRDX56pQfsWtt-mXjJ-659">
          <mxGeometry x="89" width="311" height="30" as="geometry">
            <mxRectangle width="311" height="30" as="alternateBounds" />
          </mxGeometry>
        </mxCell>
        <mxCell id="XuhRDX56pQfsWtt-mXjJ-656" style="shape=tableRow;horizontal=0;startSize=0;swimlaneHead=0;swimlaneBody=0;top=0;left=0;bottom=0;right=0;collapsible=0;dropTarget=0;fillColor=none;points=[[0,0.5],[1,0.5]];portConstraint=eastwest;strokeColor=inherit;fontSize=16;" vertex="1" parent="XuhRDX56pQfsWtt-mXjJ-625">
          <mxGeometry y="210" width="400" height="30" as="geometry" />
        </mxCell>
        <mxCell id="XuhRDX56pQfsWtt-mXjJ-657" value=", bool" style="shape=partialRectangle;html=1;whiteSpace=wrap;connectable=0;fillColor=none;top=0;left=0;bottom=0;right=0;overflow=hidden;strokeColor=inherit;fontSize=16;" vertex="1" parent="XuhRDX56pQfsWtt-mXjJ-656">
          <mxGeometry width="89" height="30" as="geometry">
            <mxRectangle width="89" height="30" as="alternateBounds" />
          </mxGeometry>
        </mxCell>
        <mxCell id="XuhRDX56pQfsWtt-mXjJ-658" value="Resultado" style="shape=partialRectangle;html=1;whiteSpace=wrap;connectable=0;fillColor=none;top=0;left=0;bottom=0;right=0;align=left;spacingLeft=6;overflow=hidden;strokeColor=inherit;fontSize=16;" vertex="1" parent="XuhRDX56pQfsWtt-mXjJ-656">
          <mxGeometry x="89" width="311" height="30" as="geometry">
            <mxRectangle width="311" height="30" as="alternateBounds" />
          </mxGeometry>
        </mxCell>
        <mxCell id="XuhRDX56pQfsWtt-mXjJ-662" style="shape=tableRow;horizontal=0;startSize=0;swimlaneHead=0;swimlaneBody=0;top=0;left=0;bottom=0;right=0;collapsible=0;dropTarget=0;fillColor=none;points=[[0,0.5],[1,0.5]];portConstraint=eastwest;strokeColor=inherit;fontSize=16;" vertex="1" parent="XuhRDX56pQfsWtt-mXjJ-625">
          <mxGeometry y="240" width="400" height="30" as="geometry" />
        </mxCell>
        <mxCell id="XuhRDX56pQfsWtt-mXjJ-663" value=", date" style="shape=partialRectangle;html=1;whiteSpace=wrap;connectable=0;fillColor=none;top=0;left=0;bottom=0;right=0;overflow=hidden;strokeColor=inherit;fontSize=16;" vertex="1" parent="XuhRDX56pQfsWtt-mXjJ-662">
          <mxGeometry width="89" height="30" as="geometry">
            <mxRectangle width="89" height="30" as="alternateBounds" />
          </mxGeometry>
        </mxCell>
        <mxCell id="XuhRDX56pQfsWtt-mXjJ-664" value="Data do Resultado Final" style="shape=partialRectangle;html=1;whiteSpace=wrap;connectable=0;fillColor=none;top=0;left=0;bottom=0;right=0;align=left;spacingLeft=6;overflow=hidden;strokeColor=inherit;fontSize=16;" vertex="1" parent="XuhRDX56pQfsWtt-mXjJ-662">
          <mxGeometry x="89" width="311" height="30" as="geometry">
            <mxRectangle width="311" height="30" as="alternateBounds" />
          </mxGeometry>
        </mxCell>
        <mxCell id="XuhRDX56pQfsWtt-mXjJ-665" value="Notas Diversas" style="shape=table;startSize=30;container=1;collapsible=0;childLayout=tableLayout;fixedRows=1;rowLines=0;fontStyle=0;strokeColor=default;fontSize=16;" vertex="1" parent="1">
          <mxGeometry x="2089" y="1170" width="400" height="150" as="geometry" />
        </mxCell>
        <mxCell id="XuhRDX56pQfsWtt-mXjJ-666" value="" style="shape=tableRow;horizontal=0;startSize=0;swimlaneHead=0;swimlaneBody=0;top=0;left=0;bottom=0;right=0;collapsible=0;dropTarget=0;fillColor=none;points=[[0,0.5],[1,0.5]];portConstraint=eastwest;strokeColor=inherit;fontSize=16;" vertex="1" parent="XuhRDX56pQfsWtt-mXjJ-665">
          <mxGeometry y="30" width="400" height="30" as="geometry" />
        </mxCell>
        <mxCell id="XuhRDX56pQfsWtt-mXjJ-667" value="PK, string" style="shape=partialRectangle;html=1;whiteSpace=wrap;connectable=0;fillColor=none;top=0;left=0;bottom=0;right=0;overflow=hidden;pointerEvents=1;strokeColor=inherit;fontSize=16;" vertex="1" parent="XuhRDX56pQfsWtt-mXjJ-666">
          <mxGeometry width="89" height="30" as="geometry">
            <mxRectangle width="89" height="30" as="alternateBounds" />
          </mxGeometry>
        </mxCell>
        <mxCell id="XuhRDX56pQfsWtt-mXjJ-668" value="Nome" style="shape=partialRectangle;html=1;whiteSpace=wrap;connectable=0;fillColor=none;top=0;left=0;bottom=0;right=0;align=left;spacingLeft=6;overflow=hidden;strokeColor=inherit;fontSize=16;" vertex="1" parent="XuhRDX56pQfsWtt-mXjJ-666">
          <mxGeometry x="89" width="311" height="30" as="geometry">
            <mxRectangle width="311" height="30" as="alternateBounds" />
          </mxGeometry>
        </mxCell>
        <mxCell id="XuhRDX56pQfsWtt-mXjJ-669" value="" style="shape=tableRow;horizontal=0;startSize=0;swimlaneHead=0;swimlaneBody=0;top=0;left=0;bottom=0;right=0;collapsible=0;dropTarget=0;fillColor=none;points=[[0,0.5],[1,0.5]];portConstraint=eastwest;strokeColor=inherit;fontSize=16;" vertex="1" parent="XuhRDX56pQfsWtt-mXjJ-665">
          <mxGeometry y="60" width="400" height="30" as="geometry" />
        </mxCell>
        <mxCell id="XuhRDX56pQfsWtt-mXjJ-670" value=", string" style="shape=partialRectangle;html=1;whiteSpace=wrap;connectable=0;fillColor=none;top=0;left=0;bottom=0;right=0;overflow=hidden;strokeColor=inherit;fontSize=16;" vertex="1" parent="XuhRDX56pQfsWtt-mXjJ-669">
          <mxGeometry width="89" height="30" as="geometry">
            <mxRectangle width="89" height="30" as="alternateBounds" />
          </mxGeometry>
        </mxCell>
        <mxCell id="XuhRDX56pQfsWtt-mXjJ-671" value="Ideia principal" style="shape=partialRectangle;html=1;whiteSpace=wrap;connectable=0;fillColor=none;top=0;left=0;bottom=0;right=0;align=left;spacingLeft=6;overflow=hidden;strokeColor=inherit;fontSize=16;" vertex="1" parent="XuhRDX56pQfsWtt-mXjJ-669">
          <mxGeometry x="89" width="311" height="30" as="geometry">
            <mxRectangle width="311" height="30" as="alternateBounds" />
          </mxGeometry>
        </mxCell>
        <mxCell id="XuhRDX56pQfsWtt-mXjJ-672" value="" style="shape=tableRow;horizontal=0;startSize=0;swimlaneHead=0;swimlaneBody=0;top=0;left=0;bottom=0;right=0;collapsible=0;dropTarget=0;fillColor=none;points=[[0,0.5],[1,0.5]];portConstraint=eastwest;strokeColor=inherit;fontSize=16;" vertex="1" parent="XuhRDX56pQfsWtt-mXjJ-665">
          <mxGeometry y="90" width="400" height="30" as="geometry" />
        </mxCell>
        <mxCell id="XuhRDX56pQfsWtt-mXjJ-673" value=", date" style="shape=partialRectangle;html=1;whiteSpace=wrap;connectable=0;fillColor=none;top=0;left=0;bottom=0;right=0;overflow=hidden;strokeColor=inherit;fontSize=16;" vertex="1" parent="XuhRDX56pQfsWtt-mXjJ-672">
          <mxGeometry width="89" height="30" as="geometry">
            <mxRectangle width="89" height="30" as="alternateBounds" />
          </mxGeometry>
        </mxCell>
        <mxCell id="XuhRDX56pQfsWtt-mXjJ-674" value="Data da escrita" style="shape=partialRectangle;html=1;whiteSpace=wrap;connectable=0;fillColor=none;top=0;left=0;bottom=0;right=0;align=left;spacingLeft=6;overflow=hidden;strokeColor=inherit;fontSize=16;" vertex="1" parent="XuhRDX56pQfsWtt-mXjJ-672">
          <mxGeometry x="89" width="311" height="30" as="geometry">
            <mxRectangle width="311" height="30" as="alternateBounds" />
          </mxGeometry>
        </mxCell>
        <mxCell id="XuhRDX56pQfsWtt-mXjJ-678" style="shape=tableRow;horizontal=0;startSize=0;swimlaneHead=0;swimlaneBody=0;top=0;left=0;bottom=0;right=0;collapsible=0;dropTarget=0;fillColor=none;points=[[0,0.5],[1,0.5]];portConstraint=eastwest;strokeColor=inherit;fontSize=16;" vertex="1" parent="XuhRDX56pQfsWtt-mXjJ-665">
          <mxGeometry y="120" width="400" height="30" as="geometry" />
        </mxCell>
        <mxCell id="XuhRDX56pQfsWtt-mXjJ-679" value="FK, string" style="shape=partialRectangle;html=1;whiteSpace=wrap;connectable=0;fillColor=none;top=0;left=0;bottom=0;right=0;overflow=hidden;strokeColor=inherit;fontSize=16;" vertex="1" parent="XuhRDX56pQfsWtt-mXjJ-678">
          <mxGeometry width="89" height="30" as="geometry">
            <mxRectangle width="89" height="30" as="alternateBounds" />
          </mxGeometry>
        </mxCell>
        <mxCell id="XuhRDX56pQfsWtt-mXjJ-680" value="Classificação Geral (Sub Área)" style="shape=partialRectangle;html=1;whiteSpace=wrap;connectable=0;fillColor=none;top=0;left=0;bottom=0;right=0;align=left;spacingLeft=6;overflow=hidden;strokeColor=inherit;fontSize=16;" vertex="1" parent="XuhRDX56pQfsWtt-mXjJ-678">
          <mxGeometry x="89" width="311" height="30" as="geometry">
            <mxRectangle width="311" height="30" as="alternateBounds" />
          </mxGeometry>
        </mxCell>
        <mxCell id="XuhRDX56pQfsWtt-mXjJ-690" value="" style="edgeStyle=orthogonalEdgeStyle;fontSize=12;html=1;endArrow=ERmany;startArrow=ERmany;rounded=0;entryX=0;entryY=0.5;entryDx=0;entryDy=0;exitX=1;exitY=0.5;exitDx=0;exitDy=0;" edge="1" parent="1" source="XuhRDX56pQfsWtt-mXjJ-675" target="XuhRDX56pQfsWtt-mXjJ-678">
          <mxGeometry width="100" height="100" relative="1" as="geometry">
            <mxPoint x="1640" y="1380" as="sourcePoint" />
            <mxPoint x="1740" y="1280" as="targetPoint" />
            <Array as="points">
              <mxPoint x="2060" y="1205" />
              <mxPoint x="2060" y="1305" />
            </Array>
          </mxGeometry>
        </mxCell>
        <mxCell id="XuhRDX56pQfsWtt-mXjJ-694" value="" style="edgeStyle=orthogonalEdgeStyle;fontSize=12;html=1;endArrow=ERmany;startArrow=ERmany;rounded=0;exitX=1;exitY=0.5;exitDx=0;exitDy=0;entryX=1;entryY=0.238;entryDx=0;entryDy=0;entryPerimeter=0;" edge="1" parent="1" source="XuhRDX56pQfsWtt-mXjJ-273" target="XuhRDX56pQfsWtt-mXjJ-691">
          <mxGeometry width="100" height="100" relative="1" as="geometry">
            <mxPoint x="460" y="1370" as="sourcePoint" />
            <mxPoint x="560" y="1270" as="targetPoint" />
            <Array as="points">
              <mxPoint x="460" y="1375" />
              <mxPoint x="460" y="917" />
            </Array>
          </mxGeometry>
        </mxCell>
        <mxCell id="XuhRDX56pQfsWtt-mXjJ-695" value="Processos Seletivos" style="shape=table;startSize=30;container=1;collapsible=0;childLayout=tableLayout;fixedRows=1;rowLines=0;fontStyle=0;strokeColor=default;fontSize=16;" vertex="1" parent="1">
          <mxGeometry x="2070" y="150" width="400" height="120" as="geometry" />
        </mxCell>
        <mxCell id="XuhRDX56pQfsWtt-mXjJ-696" value="" style="shape=tableRow;horizontal=0;startSize=0;swimlaneHead=0;swimlaneBody=0;top=0;left=0;bottom=0;right=0;collapsible=0;dropTarget=0;fillColor=none;points=[[0,0.5],[1,0.5]];portConstraint=eastwest;strokeColor=inherit;fontSize=16;" vertex="1" parent="XuhRDX56pQfsWtt-mXjJ-695">
          <mxGeometry y="30" width="400" height="30" as="geometry" />
        </mxCell>
        <mxCell id="XuhRDX56pQfsWtt-mXjJ-697" value="1" style="shape=partialRectangle;html=1;whiteSpace=wrap;connectable=0;fillColor=none;top=0;left=0;bottom=0;right=0;overflow=hidden;pointerEvents=1;strokeColor=inherit;fontSize=16;" vertex="1" parent="XuhRDX56pQfsWtt-mXjJ-696">
          <mxGeometry width="89" height="30" as="geometry">
            <mxRectangle width="89" height="30" as="alternateBounds" />
          </mxGeometry>
        </mxCell>
        <mxCell id="XuhRDX56pQfsWtt-mXjJ-698" value="Nome" style="shape=partialRectangle;html=1;whiteSpace=wrap;connectable=0;fillColor=none;top=0;left=0;bottom=0;right=0;align=left;spacingLeft=6;overflow=hidden;strokeColor=inherit;fontSize=16;" vertex="1" parent="XuhRDX56pQfsWtt-mXjJ-696">
          <mxGeometry x="89" width="311" height="30" as="geometry">
            <mxRectangle width="311" height="30" as="alternateBounds" />
          </mxGeometry>
        </mxCell>
        <mxCell id="XuhRDX56pQfsWtt-mXjJ-699" value="" style="shape=tableRow;horizontal=0;startSize=0;swimlaneHead=0;swimlaneBody=0;top=0;left=0;bottom=0;right=0;collapsible=0;dropTarget=0;fillColor=none;points=[[0,0.5],[1,0.5]];portConstraint=eastwest;strokeColor=inherit;fontSize=16;" vertex="1" parent="XuhRDX56pQfsWtt-mXjJ-695">
          <mxGeometry y="60" width="400" height="30" as="geometry" />
        </mxCell>
        <mxCell id="XuhRDX56pQfsWtt-mXjJ-700" value="2" style="shape=partialRectangle;html=1;whiteSpace=wrap;connectable=0;fillColor=none;top=0;left=0;bottom=0;right=0;overflow=hidden;strokeColor=inherit;fontSize=16;" vertex="1" parent="XuhRDX56pQfsWtt-mXjJ-699">
          <mxGeometry width="89" height="30" as="geometry">
            <mxRectangle width="89" height="30" as="alternateBounds" />
          </mxGeometry>
        </mxCell>
        <mxCell id="XuhRDX56pQfsWtt-mXjJ-701" value="Value 2" style="shape=partialRectangle;html=1;whiteSpace=wrap;connectable=0;fillColor=none;top=0;left=0;bottom=0;right=0;align=left;spacingLeft=6;overflow=hidden;strokeColor=inherit;fontSize=16;" vertex="1" parent="XuhRDX56pQfsWtt-mXjJ-699">
          <mxGeometry x="89" width="311" height="30" as="geometry">
            <mxRectangle width="311" height="30" as="alternateBounds" />
          </mxGeometry>
        </mxCell>
        <mxCell id="XuhRDX56pQfsWtt-mXjJ-702" value="" style="shape=tableRow;horizontal=0;startSize=0;swimlaneHead=0;swimlaneBody=0;top=0;left=0;bottom=0;right=0;collapsible=0;dropTarget=0;fillColor=none;points=[[0,0.5],[1,0.5]];portConstraint=eastwest;strokeColor=inherit;fontSize=16;" vertex="1" parent="XuhRDX56pQfsWtt-mXjJ-695">
          <mxGeometry y="90" width="400" height="30" as="geometry" />
        </mxCell>
        <mxCell id="XuhRDX56pQfsWtt-mXjJ-703" value="3" style="shape=partialRectangle;html=1;whiteSpace=wrap;connectable=0;fillColor=none;top=0;left=0;bottom=0;right=0;overflow=hidden;strokeColor=inherit;fontSize=16;" vertex="1" parent="XuhRDX56pQfsWtt-mXjJ-702">
          <mxGeometry width="89" height="30" as="geometry">
            <mxRectangle width="89" height="30" as="alternateBounds" />
          </mxGeometry>
        </mxCell>
        <mxCell id="XuhRDX56pQfsWtt-mXjJ-704" value="Value 3" style="shape=partialRectangle;html=1;whiteSpace=wrap;connectable=0;fillColor=none;top=0;left=0;bottom=0;right=0;align=left;spacingLeft=6;overflow=hidden;strokeColor=inherit;fontSize=16;" vertex="1" parent="XuhRDX56pQfsWtt-mXjJ-702">
          <mxGeometry x="89" width="311" height="30" as="geometry">
            <mxRectangle width="311" height="30" as="alternateBounds" />
          </mxGeometry>
        </mxCell>
      </root>
    </mxGraphModel>
  </diagram>
</mxfile>
